<svg width="290" height="202" fill="none" xmlns="http://www.w3.org/2000/svg"><path d="M1.66 99.726l13.172-1.14v7.727l5.29-8.194 10.579-.934v33.45l-13.069 1.141v-7.779l-5.29 8.245-10.682.934v-33.45zm41.02-3.578l13.173-1.14v10.112l1.867-.156V94.852l13.172-1.141v20.121l8.039-20.847 9.801-.882 13.276 32.257-14.21 1.244-1.659-4.563-4.252.363-1.764 4.875-22.403 1.97v-10.735l-1.867.156v10.735l-13.172 1.141V96.148zm67.263-5.86l38.998-3.423c.571-.052 1.193-.052 1.712-.052 3.111 0 5.704.83 7.727 2.386.415.311.778.674 1.141 1.037v-4.304l13.172-1.141v7.727l5.29-8.194 21.937-1.919a20.05 20.05 0 011.711-.103c3.111 0 5.704.83 7.727 2.385a10.263 10.263 0 012.852 3.475 26.112 26.112 0 012.127-2.749c3.267-3.526 7.312-5.497 12.031-5.912.57-.052 1.141-.052 1.711-.052 4.149 0 7.728 1.349 10.735 4.045 2.956 2.645 4.668 6.068 5.031 10.113l4.926-15.506 11.98-1.037 6.794 20.277h.155V76.493l21.522-1.867v12.498h-.155v8.246h.155v12.602l-18.255 1.608v5.082l-12.601 1.089v-5.082l-6.95.622v5.082l-12.602 1.089v-9.231c-3.215 3.371-7.156 5.29-11.824 5.653a18.24 18.24 0 01-1.659.052c-4.149 0-7.727-1.4-10.787-4.097-2.178-1.971-3.682-4.356-4.512-7.053-.259.259-.518.519-.778.726-2.178 1.867-5.082 3.008-8.66 3.371v8.816l-25.152 2.178v-7.779l-5.342 8.246-10.683.934v-12.447c-.363.415-.778.83-1.245 1.193-2.178 1.867-5.082 3.008-8.66 3.371v8.816l-25.204 2.23v-20.9l-1.348.104v20.848l-13.173 1.141V90.288h.156zm117.67 1.867h-.467c-1.245.104-2.178.622-3.008 1.66-.933 1.088-1.348 2.281-1.348 3.578 0 1.244.363 2.23 1.192 3.059.623.623 1.297.934 2.179.934h.414c1.245-.104 2.23-.622 3.06-1.66.882-1.037 1.297-2.281 1.297-3.682 0-1.296-.363-2.23-1.089-3.007-.675-.623-1.349-.882-2.23-.882zM1.66 56.165l11.98-1.038c.57-.052 1.14-.052 1.659-.052 2.489 0 4.615.519 6.378 1.608 1.971 1.193 4.253 3.578 4.253 8.142 0 1.711-.363 3.267-1.037 4.667 1.555 1.66 2.333 3.89 2.333 6.534 0 4.253-1.66 11.513-12.913 12.499L1.608 89.614v-33.45h.052zM38.065 53l21.003-1.815v3.578c3.112-3.008 6.898-4.667 11.202-5.082.57-.052 1.14-.052 1.711-.052 4.15 0 7.728 1.348 10.735 4.045 1.193 1.037 2.127 2.23 2.905 3.526v-8.297l12.446-1.09c.57-.051 1.193-.051 1.711-.051 3.112 0 5.705.83 7.727 2.385a10.278 10.278 0 012.853 3.475 25.977 25.977 0 012.126-2.748c3.267-3.527 7.312-5.498 12.031-5.913.571-.051 1.141-.051 1.712-.051 4.149 0 7.727 1.348 10.735 4.045 2.956 2.644 4.667 6.067 5.03 10.112l4.927-15.506 11.979-1.037 6.794 20.277h.156V41.8l21.521-1.867v12.55h-.155v8.246h.155V73.33l-18.254 1.607v5.083l-12.602 1.089v-5.082l-6.949.622v5.082l-12.602 1.09v-9.18c-3.216 3.37-7.157 5.29-11.824 5.653a18.26 18.26 0 01-1.66.052c-4.149 0-7.727-1.4-10.787-4.097-2.178-1.971-3.682-4.357-4.511-7.053-.26.259-.519.518-.778.726-2.178 1.867-5.083 3.008-8.66 3.37v8.817l-13.173 1.14v-7.83a18.12 18.12 0 01-2.697 3.682c-3.267 3.526-7.312 5.549-12.083 5.964-.57.052-1.141.052-1.66.052-4.149 0-7.727-1.4-10.787-4.097-3.422-3.112-5.186-7.157-5.186-11.98 0-1.296.156-2.593.415-3.838l-2.437.208v20.9L37.96 86.45V53h.104zm33.346 9.23h-.467c-1.244.105-2.178.623-3.008 1.66-.933 1.09-1.348 2.282-1.348 3.579 0 1.244.363 2.23 1.193 3.06.622.622 1.296.933 2.178.933h.415c1.244-.104 2.23-.622 3.06-1.66.881-1.037 1.296-2.281 1.296-3.682 0-1.296-.363-2.23-1.09-3.008-.673-.622-1.347-.881-2.23-.881zm54.297-4.718h-.467c-1.244.103-2.178.622-3.007 1.659-.934 1.09-1.349 2.282-1.349 3.578 0 1.245.363 2.23 1.193 3.06.622.622 1.296.934 2.178.934h.415c1.245-.104 2.23-.623 3.06-1.66.881-1.037 1.296-2.282 1.296-3.682 0-1.297-.363-2.23-1.089-3.008-.674-.622-1.348-.881-2.23-.881zm-79.5-15.351l-11.255.985V29.353c-.518 3.682-2.074 6.949-4.719 9.801-3.267 3.527-7.312 5.55-12.083 5.964-.57.052-1.141.052-1.66.052-4.148 0-7.727-1.4-10.786-4.097C2.282 37.961.519 33.916.519 29.093c0-4.719 1.66-8.92 4.978-12.446 3.267-3.526 7.312-5.497 12.032-5.912.57-.052 1.14-.052 1.711-.052 4.045 0 7.572 1.297 10.527 3.838v-4.357L53.313 8.09v8.816l2.852-9.023 11.98-1.038 6.793 20.278h.156V6.17l13.172-1.14v9.957c2.282.103 4.201.57 5.809 1.348.103.052.155.104.259.155V4.511l23.078-2.022 2.852 4.408 2.748-4.926 15.87-1.4-10.632 17.32 11.15 16.077-15.143 1.348-3.786-5.808-3.682 6.483-22.455 1.97v-1.815c-2.074 1.4-4.667 2.23-7.727 2.49l-8.246.726v5.082l-12.602 1.089V40.45l-6.949.622v5.082l-12.602 1.09v-5.083zm-27.59-18.877h-.467c-1.245.104-2.178.622-3.008 1.66-.933 1.089-1.348 2.281-1.348 3.578 0 1.244.363 2.23 1.193 3.06.622.622 1.296.933 2.178.933h.415c1.244-.104 2.23-.622 3.06-1.66.88-1.037 1.296-2.281 1.296-3.682 0-1.296-.363-2.23-1.09-3.007-.674-.623-1.348-.882-2.23-.882zm29.508 6.12l1.245-.104 2.696-8.557-3.993.363v8.297h.052zm59.379-2.49l5.134-8.245-5.134-7.26v15.505zM34.59 22.3c.156.57.26 1.14.363 1.763V22.3h-.363z" fill="#fff"/><path d="M137.947 1.193l-3.215 5.29-7.053 11.46 7.779 11.202 3.06 4.408-5.342.467-6.742.57-1.867.156-1.037-1.556-3.06-4.719-3.163 5.549-.83 1.4-1.608.156-6.638.57-1.244.104-2.853.26-5.912.518-3.37.311v-2.282c-2.127 1.712-4.927 2.697-8.246 3.008l-7.572.674-1.14.104v5.082l-2.853.26-5.341.466-3.371.311V39.88l-7.987.726v5.03l-2.852.26-5.342.467-3.422.31v-5.081l-1.971.155-5.912.519-3.37.31V21.678l-1.505.156c.467 1.504.674 3.112.674 4.875 0 4.615-1.607 8.712-4.77 12.135-3.216 3.37-7.157 5.342-11.773 5.756-.57.052-1.089.052-1.608.052-3.993 0-7.52-1.348-10.423-3.993-3.32-2.956-5.03-6.897-5.03-11.565 0-4.615 1.607-8.66 4.822-12.083s7.105-5.342 11.669-5.756c.57-.052 1.14-.052 1.66-.052 3.992 0 7.519 1.296 10.371 3.89.207.207.467.414.674.621v-5.082l2.852-.259 16.285-1.4 3.37-.311v11.513l-2.852.259-2.334.207v9.387l1.971-.156h.207l6.172-19.499.622-1.97 2.075-.156 6.741-.57 2.438-.208.778 2.334 6.015 17.943 1.038-.104V6.69l2.852-.26 5.912-.518 3.37-.311v9.905c2.438.052 4.46.467 6.068 1.297.312.155.675.363 1.038.57V4.979l2.852-.26 5.912-.518 3.371-.312 1.504-.155 6.793-.57 1.867-.156 1.037 1.556 2.127 3.319 2.23-3.994.778-1.452 1.659-.155 6.794-.57 6.171-.52zm-30.96 27.537l6.275-10.06-6.275-8.92v18.98zm-89.873 4.305h.466c1.4-.104 2.49-.726 3.423-1.867.934-1.141 1.4-2.49 1.4-3.994 0-1.451-.414-2.489-1.244-3.37-.674-.674-1.452-.986-2.541-.986h-.519c-1.348.104-2.437.674-3.37 1.815-.986 1.193-1.505 2.49-1.505 3.942 0 1.4.415 2.489 1.349 3.422.726.727 1.503 1.038 2.54 1.038zm169.841 7.468v11.512h-.156v9.283h.156v11.565l-2.853.26-14.261 1.244-1.141.104v5.082l-2.852.26-5.342.466-3.371.311v-5.082l-7.986.726v5.082l-2.853.26-5.341.466-3.371.311V72.344a9.04 9.04 0 01-.622.727c-3.164 3.422-7.105 5.393-11.721 5.756-.57.052-1.089.052-1.607.052-3.993 0-7.52-1.349-10.424-3.993-2.386-2.127-3.89-4.72-4.616-7.728-.414.467-.881.934-1.4 1.4-2.23 1.868-5.186 2.957-8.816 3.32v8.764l-2.852.26-5.912.518-3.371.311v-9.646a17.34 17.34 0 01-3.578 5.653c-3.164 3.423-7.105 5.393-11.72 5.756-.571.052-1.09.052-1.608.052-3.994 0-7.52-1.348-10.424-3.993-3.32-3.008-5.03-6.897-5.03-11.617 0-1.556.207-3.008.57-4.408l-3.63.311v20.9l-2.853.26-5.964.57-3.37.31V53.52l2.852-.259 13.743-1.193 3.37-.31v4.252l.052-.052c3.216-3.423 7.105-5.342 11.669-5.757.57-.052 1.14-.052 1.66-.052 3.993 0 7.52 1.297 10.371 3.89 1.712 1.504 2.956 3.319 3.786 5.342V49.319l2.852-.26 9.128-.777c.57-.052 1.14-.052 1.66-.052 2.955 0 5.496.778 7.415 2.281 1.089.83 2.334 2.179 3.112 4.201a20.523 20.523 0 012.593-3.526c3.215-3.423 7.105-5.342 11.668-5.757.571-.052 1.141-.052 1.66-.052 3.993 0 7.519 1.297 10.372 3.89 3.319 2.956 4.978 6.897 4.978 11.616 0 .467 0 .882-.052 1.349l5.135-16.284.622-1.97 2.074-.157 6.742-.57 2.437-.207.778 2.333 6.016 17.944 1.037-.104V42.266l2.853-.26 14.261-1.244 3.475-.26zM124.204 67.21h.467c1.4-.103 2.489-.726 3.423-1.867.933-1.14 1.4-2.489 1.4-3.993 0-1.452-.415-2.49-1.245-3.37-.674-.675-1.452-.986-2.541-.986h-.518c-1.349.104-2.438.674-3.371 1.815-.986 1.193-1.504 2.49-1.504 3.941 0 1.4.415 2.49 1.348 3.423.726.726 1.504 1.037 2.541 1.037zm-25.878-6.897c.57-.104.778-.26.83-.311 0-.052.052-.104.052-.208h-.882v.519zM69.907 71.981h.467c1.4-.103 2.489-.726 3.422-1.867.934-1.14 1.4-2.489 1.4-3.993 0-1.452-.414-2.489-1.244-3.37-.674-.675-1.452-.986-2.541-.986h-.519c-1.348.104-2.437.674-3.37 1.815-.986 1.193-1.505 2.49-1.505 3.942 0 1.4.415 2.489 1.349 3.422.726.726 1.504 1.037 2.541 1.037zM15.299 55.594c2.385 0 4.46.518 6.12 1.556 1.814 1.14 4.044 3.37 4.044 7.675 0 1.763-.415 3.37-1.14 4.77 1.607 1.557 2.488 3.787 2.488 6.431 0 4.046-1.607 10.995-12.446 11.98l-8.764.778-3.371.311v-32.36l2.852-.26 8.66-.778c.468-.103 1.038-.103 1.557-.103zm273.56 19.55v11.514h-.156v9.283h.156v11.564l-2.852.26-14.262 1.244-1.141.104v5.082l-2.852.26-5.341.466-3.371.311v-5.082l-7.987.726v5.083l-2.852.259-5.342.467-3.37.311v-10.009c-.208.259-.415.518-.623.726-3.163 3.423-7.105 5.393-11.72 5.756-.571.052-1.089.052-1.608.052-3.993 0-7.519-1.348-10.424-3.993-2.385-2.126-3.889-4.719-4.615-7.727a17.94 17.94 0 01-1.4 1.4c-2.23 1.867-5.186 2.956-8.816 3.319v8.764l-2.853.26-5.912.518-3.319.311-2.852.26-5.808.518-3.371.311v-9.075l-5.29 8.246-.83 1.296-1.504.156-4.978.415-3.371.311v-13.432a12.45 12.45 0 01-2.074 2.334c-2.23 1.867-5.186 2.956-8.817 3.319v8.764l-2.852.259-5.912.519-3.319.311-2.852.26-5.912.518-3.475.208v-20.9l-2.385.207v20.9l-2.853.259-5.912.519-3.371.311V90.755l2.853-.26 20.432-1.763 3.371-.311 2.749-.26 9.127-.777c.571-.052 1.141-.052 1.66-.052 2.956 0 5.497.778 7.416 2.282a9.504 9.504 0 011.97 2.074v-5.29l2.853-.259 5.912-.518 3.371-.312v8.92l5.289-8.142.83-1.296 1.504-.156 4.875-.415 3.319-.31 2.852-.26 9.127-.778c.571-.052 1.141-.052 1.66-.052 2.956 0 5.497.778 7.416 2.282 1.089.83 2.334 2.178 3.111 4.2a20.52 20.52 0 012.593-3.526c3.216-3.423 7.105-5.341 11.669-5.756.57-.052 1.141-.052 1.659-.052 3.994 0 7.52 1.296 10.372 3.89 3.319 2.955 4.979 6.897 4.979 11.616 0 .467 0 .882-.052 1.348l5.134-16.284.622-1.97 2.075-.156 6.742-.57 2.437-.208.778 2.334 6.016 17.943 1.037-.103V76.96l2.852-.26 14.262-1.244 3.526-.311zm-62.75 26.709h.466c1.401-.104 2.49-.726 3.423-1.867.934-1.141 1.4-2.49 1.4-3.993 0-1.453-.414-2.49-1.244-3.371-.674-.675-1.452-.986-2.541-.986h-.519c-1.348.104-2.437.674-3.371 1.815-.985 1.193-1.504 2.49-1.504 3.942 0 1.4.415 2.489 1.349 3.422.726.726 1.504 1.038 2.541 1.038zm-25.878-6.898c.57-.103.778-.259.829-.31 0-.053.052-.105.052-.208h-.881v.518zm-51.03 4.46c.57-.104.778-.26.829-.31 0-.053.052-.105.052-.208h-.881v.518zm-60.832-6.742l.882 2.127 10.372 25.204 1.607 3.889-4.2.363-6.483.571-2.385.207-.83-2.23-.83-2.334-4.978.415-1.141 3.06-.674 1.867-1.971.155-6.379.571-4.978.415-4.772.415-3.37.311v-10.735l-2.905.259v10.735l-2.852.259-5.912.519-3.37.311v-32.36l2.851-.26 5.913-.518 3.37-.311v10.112l2.905-.259V95.318l2.852-.259 5.912-.519 3.37-.31v22.351l8.195-21.315.674-1.815 1.919-.155 4.874-.415 2.334-.207zm-58.187 5.083v32.412l-2.852.259-5.808.519-3.371.259v-8.971l-5.29 8.245-.83 1.297-1.504.155-4.978.415-3.37.311v-32.36l2.851-.259 5.912-.519 3.371-.311v8.92l5.29-8.142.83-1.297 1.504-.155 4.874-.415 3.371-.363zM139.866 0l-2.075.156-6.171.518-6.793.57-1.66.156-.57.052-.26.467-.778 1.452-1.4 2.49-1.193-1.868-1.037-1.556-.363-.518-.622.052-1.867.155-6.69.623-1.504.155-3.371.311-5.912.519-2.852.26-.934.103v11.616c-1.452-.622-3.111-.985-5.03-1.14V4.46l-1.14.104-3.372.31-5.912.52-2.852.259-.934.103v18.618l-5.03-15.04-.778-2.333-.26-.778-.829.052-2.437.207-6.742.57-2.075.157-.674.051-.207.675-.623 1.97-1.14 3.527V7.416l-1.141.104-3.371.31-16.232 1.505-2.853.26-.933.103v3.732c-2.852-2.177-6.223-3.266-10.009-3.266-.57 0-1.193.051-1.763.103-4.823.415-8.972 2.49-12.343 6.068C1.711 19.914 0 24.219 0 29.093c0 5.03 1.815 9.18 5.342 12.395 3.111 2.8 6.845 4.252 11.098 4.252.57 0 1.14 0 1.71-.052 4.876-.414 9.076-2.489 12.395-6.119a19.957 19.957 0 003.838-6.068V43.77l1.141-.103 3.37-.311 5.913-.519.83-.052v5.03l1.14-.103 3.371-.311 5.342-.467 2.852-.26.934-.103v-5.083l5.912-.518v5.082l1.14-.103 3.372-.311 5.341-.467 2.852-.26.934-.103v-5.082h.207l7.572-.675c2.748-.259 5.134-.933 7.157-2.074v1.452l1.14-.104 3.371-.31 5.912-.52 2.853-.259 1.244-.103 6.638-.57 1.608-.156.519-.052.259-.467.83-1.4 2.333-4.097 2.127 3.267 1.037 1.556.363.518.622-.052 1.867-.155 6.742-.57 5.341-.467 1.764-.156-1.038-1.452-3.059-4.408-7.364-10.631 6.69-10.89 3.215-5.29L139.866 0zm-31.842 25.1V13.017l3.993 5.652-3.993 6.431zm-59.38-3.526l1.4-.104 1.297-.104-2.385 7.468-.363.052v-7.312h.051zm-31.53 10.423c-.726 0-1.245-.207-1.815-.777-.726-.726-1.038-1.556-1.038-2.697 0-1.245.415-2.23 1.245-3.267.778-.934 1.608-1.349 2.697-1.452h.415c.778 0 1.296.207 1.763.674.674.674.985 1.504.985 2.645 0 1.296-.363 2.333-1.192 3.319-.778.933-1.608 1.4-2.697 1.504-.104.051-.26.051-.363.051zm170.878 7.365l-1.141.103-3.371.311-14.261 1.245-2.853.26-.933.103v18.618l-5.031-14.988-.778-2.333-.259-.778-.83.052-2.437.207-6.742.57-2.074.156-.674.052-.208.674-.622 1.97-3.527 11.15c-.726-3.215-2.333-6.015-4.874-8.245-3.06-2.749-6.794-4.149-11.047-4.149-.57 0-1.192.052-1.763.104-4.823.415-8.972 2.49-12.342 6.067a21.325 21.325 0 00-1.712 2.075 9.954 9.954 0 00-2.593-2.904c-2.126-1.66-4.823-2.49-8.038-2.49-.57 0-1.14.052-1.763.104l-9.128.778-2.852.26-.933.103v7.104c-.623-.777-1.297-1.555-2.075-2.23-3.06-2.748-6.793-4.148-11.046-4.148-.57 0-1.193.052-1.763.104-4.045.363-7.623 1.815-10.631 4.408v-2.956l-1.141.104-3.371.31-13.743 1.194-2.852.259-.934.104v34.434l1.141-.103 3.371-.311 5.912-.519 2.852-.26.934-.103V64.98l1.296-.103c-.207 1.089-.259 2.178-.259 3.267 0 5.03 1.815 9.179 5.342 12.394 3.111 2.8 6.845 4.253 11.098 4.253.57 0 1.14 0 1.71-.052 4.876-.415 9.076-2.49 12.395-6.12a17.497 17.497 0 001.764-2.23v6.586l1.14-.103 3.371-.311 5.912-.519 2.853-.26.933-.103v-8.764c3.423-.467 6.275-1.608 8.453-3.423.052-.052.156-.104.208-.155.881 2.489 2.334 4.667 4.408 6.534 3.111 2.8 6.845 4.252 11.098 4.252.57 0 1.141 0 1.711-.052 4.356-.362 8.142-2.022 11.254-4.926V83.7l1.141-.103 3.371-.311 5.341-.467 2.852-.26.934-.103v-5.083l5.912-.518v5.082l1.141-.103 3.371-.311 5.341-.467 2.853-.26.933-.103v-5.082h.208l14.261-1.245 2.852-.26.934-.103V60.157h-.156V52.95h.156V39.362zm-63.788 26.811c-.726 0-1.244-.207-1.815-.778-.726-.726-1.037-1.556-1.037-2.696 0-1.245.415-2.23 1.245-3.268.777-.933 1.607-1.348 2.696-1.452h.415c.778 0 1.297.208 1.763.674.675.675.986 1.504.986 2.645 0 1.297-.363 2.334-1.193 3.32-.778.933-1.608 1.4-2.697 1.503-.103.052-.259.052-.363.052zm-54.297 4.771c-.726 0-1.245-.207-1.815-.778-.726-.726-1.037-1.555-1.037-2.696 0-1.245.415-2.23 1.244-3.268.778-.933 1.608-1.348 2.697-1.452h.415c.778 0 1.296.208 1.763.675.674.674.985 1.504.985 2.644 0 1.297-.363 2.334-1.192 3.32-.778.933-1.608 1.4-2.697 1.503-.156.052-.26.052-.363.052zM15.299 54.556c-.57 0-1.141.052-1.712.104l-8.66.778-2.853.156-.933.103v34.435l1.14-.103 3.372-.311 8.764-.778c5.082-.467 8.764-2.179 10.994-5.238 1.971-2.645 2.386-5.653 2.386-7.78 0-2.644-.778-4.874-2.23-6.637.622-1.4.933-2.904.933-4.616 0-4.823-2.437-7.312-4.511-8.557-1.867-.985-4.15-1.556-6.69-1.556zm274.597 19.448l-1.141.104-3.371.31-14.261 1.245-2.852.26-.934.103v18.618l-5.03-14.987-.778-2.334-.259-.778-.83.052-2.438.207-6.741.57-2.075.156-.674.052-.207.674-.623 1.971-3.526 11.15c-.726-3.215-2.334-6.016-4.875-8.246-3.06-2.748-6.794-4.148-11.046-4.148-.57 0-1.193.051-1.763.103-4.823.415-8.972 2.49-12.343 6.068a21.314 21.314 0 00-1.711 2.074 9.954 9.954 0 00-2.593-2.904c-2.127-1.66-4.823-2.49-8.039-2.49-.57 0-1.192.053-1.763.105l-9.127.777-2.852.26-3.319.31-4.875.416-1.504.155-.519.052-.259.415-.83 1.297-3.371 5.237v-6.534l-1.141.104-3.371.31-5.912.52-2.852.259-.933.104v3.526c-.104-.104-.208-.156-.311-.26-2.127-1.659-4.823-2.489-8.039-2.489-.57 0-1.192.052-1.763.104l-9.127.778-2.749.26-3.371.31-20.432 1.764-2.853.259-.933.104v34.435l1.141-.104 3.371-.311 5.912-.519 2.852-.259.933-.104v-20.847l.311-.052v20.795l1.141-.103 3.371-.311 5.912-.519 2.853-.259 3.319-.311 5.912-.519 2.852-.259.933-.104v-8.764c3.423-.467 6.275-1.608 8.454-3.423.103-.104.259-.208.363-.311V119.9l1.14-.104 3.371-.311 4.979-.415 1.504-.155.518-.052.26-.415.829-1.297 3.423-5.289v6.586l1.141-.104 3.371-.311 5.808-.519 2.853-.259 3.319-.311 5.912-.519 2.852-.259.933-.104v-8.764c3.423-.467 6.275-1.608 8.454-3.423.051-.052.155-.104.207-.155a15.263 15.263 0 004.408 6.482c3.112 2.801 6.846 4.253 11.098 4.253.571 0 1.141 0 1.711-.052 4.357-.363 8.142-2.023 11.254-4.927v8.557l1.141-.104 3.371-.311 5.341-.467 2.853-.259.933-.104v-5.082l5.912-.519v5.083l1.141-.104 3.371-.311 5.342-.467 2.852-.259.933-.104v-5.082h.208l14.261-1.245 2.853-.259.933-.104V94.8h-.156v-7.21H290V74.004h-.104zm-63.787 26.811c-.726 0-1.245-.207-1.815-.777-.726-.727-1.038-1.556-1.038-2.697 0-1.245.415-2.23 1.245-3.267.778-.934 1.608-1.349 2.697-1.452h.415c.778 0 1.296.207 1.763.674.674.674.985 1.504.985 2.645 0 1.296-.363 2.333-1.193 3.319-.777.933-1.607 1.4-2.696 1.504-.156.051-.26.051-.363.051zm-137.066-9.23l-.778.051-2.281.208-4.875.415-1.92.155-.621.052-.208.622-.674 1.815-6.223 16.129V93.089l-1.141.103-3.371.311-5.912.519-2.852.26-.934.103v10.112l-.83.052V94.437l-1.14.103-3.371.312L46 95.37l-2.853.26-.933.103v34.435l1.14-.104 3.372-.311 5.912-.518 2.852-.26.933-.103v-10.735l.83-.052v10.735l1.141-.104 3.371-.311 4.771-.415 4.979-.415 6.378-.57 1.971-.156.674-.052.208-.622.674-1.867.83-2.386 3.526-.311.57 1.608.83 2.23.26.726.777-.052 2.386-.207 6.483-.571 4.2-.363 1.4-.104-.518-1.296-1.608-3.89-10.372-25.203-.881-2.127-.26-.778zm-57.823 5.03l-1.141.104-3.371.31-4.875.416-1.504.155-.519.052-.259.415-.83 1.296-3.37 5.238v-6.586l-1.141.104-3.371.31-5.912.52-2.853.207-.933.104v34.435l1.14-.104 3.372-.311 4.978-.415 1.504-.156.519-.052.26-.415.829-1.296 3.423-5.29v6.69l1.14-.104 3.371-.311 5.809-.518 2.852-.26.933-.103V96.615h-.051z" fill="#000"/><path d="M18.877 42.525c-3.786.311-7.053-.726-9.698-3.112-2.645-2.385-3.993-5.497-3.993-9.282 0-3.786 1.348-7.105 3.993-9.957 2.645-2.853 5.912-4.46 9.698-4.772 3.838-.31 7.105.675 9.698 3.06 2.645 2.386 3.941 5.445 3.941 9.335 0 3.837-1.296 7.156-3.941 10.009-2.593 2.8-5.86 4.408-9.698 4.719zm0-21.781c-2.178.207-3.993 1.14-5.497 2.904-1.452 1.763-2.178 3.734-2.178 5.912s.726 4.045 2.23 5.6c1.452 1.505 3.319 2.18 5.497 1.972 2.23-.208 4.097-1.193 5.549-3.008 1.4-1.712 2.126-3.682 2.126-5.964 0-2.23-.726-4.097-2.178-5.55-1.504-1.451-3.32-2.073-5.549-1.866zm31.842-2.386l-5.186.467v20.9l-5.912.518v-20.9l-5.134.468v-5.29l16.284-1.4v5.237h-.052zM75.767 42.11l-5.341.467v-5.082l-14.21 1.244v5.083l-5.342.466v-10.32l2.282-.207 6.794-21.47 6.742-.57 6.793 20.276 2.334-.207v10.32h-.052zm-8.245-9.594L63.32 19.033l-4.2 14.21 8.4-.727zm29.456-5.446c0 2.75-.934 4.876-2.852 6.483-1.712 1.4-3.942 2.23-6.794 2.49l-7.572.674V10.579l5.912-.518v9.75c3.423-.312 6.016 0 7.831.881 2.282 1.09 3.475 3.215 3.475 6.379zm-5.705.468c0-1.297-.415-2.127-1.192-2.593-.623-.364-1.608-.467-3.008-.364l-1.4.104v6.223l1.4-.103c2.8-.208 4.2-1.297 4.2-3.267zm13.639 6.949L99 35.005V8.868l5.912-.519v26.138zm28.99-2.541l-6.742.57-5.86-9.023-5.705 10.008-6.638.57 9.024-14.572-8.194-11.668 6.794-.57 4.927 7.675 4.771-8.505 6.793-.57-8.09 13.223 8.92 12.862zM24.633 77.064c0 5.341-3.215 8.297-9.594 8.868l-8.764.778V60.572l8.66-.778c2.438-.207 4.409.104 5.86 1.038 1.712 1.037 2.542 2.696 2.542 5.03 0 2.437-.985 4.304-3.008 5.549 2.852.674 4.304 2.593 4.304 5.653zm-7.052-9.854c0-1.607-1.038-2.281-3.06-2.126l-2.49.207v5.135l2.23-.208c2.179-.155 3.32-1.14 3.32-3.008zm-5.55 7.831v5.86l3.164-.259c2.437-.207 3.682-1.296 3.682-3.267 0-1.97-1.193-2.853-3.578-2.645l-3.268.311zm44.496-13.639l-7.83.674v20.9l-5.913.518V57.357l13.743-1.193v5.238zm15.143 20.07c-3.785.31-7.053-.726-9.698-3.112-2.644-2.385-3.993-5.497-3.993-9.283 0-3.785 1.349-7.105 3.993-9.957 2.645-2.852 5.913-4.46 9.698-4.771 3.838-.311 7.105.674 9.698 3.06 2.645 2.385 3.941 5.445 3.941 9.334 0 3.838-1.296 7.157-3.941 10.01-2.645 2.8-5.86 4.356-9.698 4.719zm0-21.781c-2.178.207-3.993 1.14-5.497 2.904-1.452 1.763-2.23 3.734-2.23 5.912s.726 4.045 2.23 5.6c1.452 1.505 3.32 2.179 5.497 1.971 2.23-.207 4.097-1.193 5.55-3.008 1.4-1.71 2.126-3.682 2.126-5.963 0-2.23-.727-4.097-2.179-5.55-1.452-1.452-3.267-2.074-5.497-1.866zm24.582 19.136l-5.912.519V53.207l9.127-.778c2.956-.259 5.238.26 6.949 1.556 1.815 1.348 2.697 3.527 2.697 6.43 0 2.905-.933 5.187-2.852 6.846-1.712 1.452-4.097 2.334-7.157 2.593l-2.8.26v8.712h-.052zm0-20.9v6.846l2.645-.207c2.956-.26 4.408-1.556 4.408-3.838 0-2.23-1.452-3.267-4.408-3.008l-2.645.207zM125.967 76.7c-3.785.312-7.052-.725-9.697-3.111-2.645-2.385-3.994-5.497-3.994-9.283 0-3.786 1.349-7.105 3.994-9.957 2.645-2.852 5.912-4.46 9.697-4.771 3.838-.311 7.105.674 9.698 3.06 2.645 2.385 3.942 5.445 3.942 9.334 0 3.838-1.297 7.157-3.942 10.01-2.645 2.8-5.86 4.407-9.698 4.719zm0-21.78c-2.178.207-3.993 1.14-5.497 2.904-1.452 1.763-2.23 3.734-2.23 5.912s.726 4.045 2.23 5.6c1.452 1.505 3.319 2.179 5.497 1.971 2.23-.207 4.097-1.193 5.549-3.008 1.401-1.711 2.127-3.682 2.127-5.964 0-2.23-.726-4.096-2.178-5.549-1.452-1.4-3.268-2.022-5.498-1.867zm40.659 22.818l-5.342.467v-5.083l-14.21 1.245v5.082l-5.341.467v-10.32l2.282-.208 6.793-21.47 6.742-.57 6.794 20.277 2.333-.207v10.32h-.051zm-8.246-9.646l-4.201-13.484-4.2 14.262 8.401-.778zm26.5 2.956l-14.261 1.245V46.154l14.261-1.244v5.237l-8.349.726V55.8l8.194-.726v5.238l-8.194.726v5.341l8.349-.725v5.393zM28.108 128.353l-5.808.519v-16.129l-11.046 17.114-4.979.415v-26.138l5.912-.518v16.025l11.046-16.959 4.875-.414v26.085zm40.192-3.526l-5.913.518V114.61l-9.127.778v10.735l-5.912.519v-26.138l5.912-.518v10.112l9.127-.778V99.208l5.912-.519v26.138zm29.508-2.593l-6.483.57-1.66-4.564-9.386.83-1.763 4.875-6.379.57 10.424-27.07 4.875-.415 10.372 25.204zm-9.802-8.713l-2.956-9.127-3.06 9.646 6.016-.519zm47.089 5.445l-5.912.519v-20.9l-8.609.778v20.9l-5.912.518V94.644l20.433-1.763v26.085zm12.031-1.037l-5.912.519V92.311l9.128-.778c2.956-.26 5.237.259 6.949 1.555 1.815 1.349 2.696 3.527 2.696 6.431s-.933 5.186-2.852 6.845c-1.711 1.453-4.097 2.334-7.156 2.593l-2.801.26v8.712h-.052zm0-20.9v6.846l2.645-.207c2.956-.26 4.408-1.556 4.408-3.838 0-2.23-1.452-3.267-4.408-3.008l-2.645.208zm38.947 17.477l-5.808.519V98.897l-11.046 17.113-4.979.415V90.288l5.912-.519v16.025l11.046-16.958 4.875-.415v26.085zm12.083-1.037l-5.912.519V87.85l9.128-.777c2.956-.26 5.237.259 6.949 1.555 1.815 1.349 2.697 3.527 2.697 6.431s-.934 5.186-2.853 6.845c-1.711 1.453-4.097 2.334-7.156 2.593l-2.801.26v8.712h-.052zm0-20.9v6.846l2.645-.207c2.956-.26 4.408-1.556 4.408-3.838 0-2.23-1.452-3.267-4.408-3.008l-2.645.208zm29.716 18.774c-3.786.311-7.053-.726-9.698-3.112-2.645-2.385-3.993-5.497-3.993-9.282 0-3.786 1.348-7.105 3.993-9.958 2.645-2.852 5.912-4.46 9.698-4.77 3.838-.312 7.105.673 9.698 3.06 2.645 2.385 3.941 5.444 3.941 9.334 0 3.837-1.296 7.156-3.941 10.009-2.645 2.8-5.86 4.408-9.698 4.719zm0-21.781c-2.178.207-3.993 1.14-5.497 2.904-1.452 1.763-2.23 3.734-2.23 5.912s.726 4.045 2.23 5.601c1.452 1.504 3.319 2.178 5.497 1.971 2.23-.208 4.097-1.193 5.549-3.008 1.4-1.712 2.126-3.682 2.126-5.964 0-2.23-.726-4.097-2.178-5.55-1.452-1.4-3.267-2.022-5.497-1.866zm40.658 22.818l-5.341.467v-5.082l-14.21 1.244v5.083l-5.342.466v-10.372l2.282-.207 6.794-21.47 6.742-.57 6.793 20.277 2.334-.208v10.372h-.052zm-8.246-9.646l-4.2-13.483-4.201 14.261 8.401-.778zm26.501 2.956l-14.262 1.245V80.798l14.262-1.245v5.238l-8.35.726v4.927l8.194-.727v5.238l-8.194.726v5.342l8.35-.726v5.393z" fill="#22B4AF"/><path d="M17.84 41.488c-3.786.311-7.053-.726-9.698-3.112-2.645-2.385-3.993-5.497-3.993-9.283 0-3.785 1.348-7.105 3.993-9.957 2.645-2.852 5.912-4.46 9.698-4.77 3.837-.312 7.105.673 9.698 3.059 2.644 2.385 3.94 5.445 3.94 9.335 0 3.837-1.296 7.156-3.94 10.009-2.593 2.8-5.86 4.408-9.698 4.719zm0-21.781c-2.178.207-3.993 1.14-5.497 2.904-1.452 1.763-2.178 3.734-2.178 5.912s.726 4.045 2.23 5.6c1.452 1.505 3.319 2.179 5.497 1.971 2.23-.207 4.097-1.192 5.549-3.008 1.4-1.71 2.126-3.681 2.126-5.963 0-2.23-.726-4.097-2.178-5.55-1.504-1.451-3.32-2.074-5.55-1.866zm31.842-2.386l-5.186.467v20.9l-5.912.518v-20.9l-5.134.467v-5.29l16.283-1.4v5.238h-.051zM74.73 41.073l-5.342.467v-5.082l-14.21 1.244v5.082l-5.34.467v-10.32l2.281-.207 6.794-21.47 6.742-.57 6.793 20.276 2.334-.207v10.32h-.052zm-8.246-9.594l-4.2-13.484-4.201 14.21 8.401-.726zm29.456-5.445c0 2.748-.933 4.875-2.852 6.482-1.711 1.4-3.941 2.23-6.793 2.49l-7.572.674V9.542l5.912-.518v9.75c3.423-.312 6.016 0 7.831.88 2.282 1.09 3.475 3.216 3.475 6.38zm-5.704.466c0-1.296-.415-2.126-1.193-2.593-.622-.363-1.607-.466-3.008-.363l-1.4.104v6.223l1.4-.104c2.8-.207 4.201-1.296 4.201-3.267zm13.639 6.95l-5.912.518V7.831l5.912-.519V33.45zm28.99-2.542l-6.742.57-5.86-9.023-5.705 10.01-6.638.57 9.024-14.573-8.194-11.668 6.794-.57 4.926 7.674 4.771-8.505 6.794-.57-8.09 13.224 8.92 12.861zM23.596 76.026c0 5.342-3.215 8.298-9.594 8.868l-8.764.778V59.535l8.66-.778c2.438-.207 4.409.104 5.86 1.037 1.712 1.038 2.542 2.697 2.542 5.03 0 2.438-.986 4.305-3.008 5.55 2.852.674 4.304 2.593 4.304 5.653zm-7.053-9.853c0-1.608-1.037-2.282-3.06-2.126l-2.489.207v5.134l2.23-.207c2.178-.156 3.32-1.14 3.32-3.008zm-5.549 7.83v5.861l3.164-.26c2.437-.207 3.682-1.296 3.682-3.266 0-1.971-1.193-2.853-3.579-2.645l-3.267.31zM55.49 60.365l-7.83.674v20.9l-5.913.518V56.32l13.743-1.193v5.238zm15.143 20.069c-3.786.312-7.053-.725-9.698-3.111-2.645-2.386-3.993-5.497-3.993-9.283 0-3.786 1.348-7.105 3.993-9.957 2.645-2.852 5.912-4.46 9.698-4.771 3.838-.311 7.105.674 9.698 3.06 2.645 2.385 3.941 5.445 3.941 9.334 0 3.838-1.296 7.157-3.941 10.01-2.645 2.8-5.86 4.356-9.698 4.719zm0-21.78c-2.178.207-3.993 1.14-5.497 2.903-1.452 1.764-2.23 3.734-2.23 5.913 0 2.178.726 4.045 2.23 5.6 1.452 1.504 3.319 2.179 5.497 1.971 2.23-.207 4.097-1.193 5.549-3.008 1.4-1.711 2.126-3.682 2.126-5.964 0-2.23-.726-4.097-2.178-5.549s-3.267-2.074-5.497-1.867zM95.215 77.79l-5.912.518V52.171l9.127-.778c2.956-.26 5.238.26 6.949 1.556 1.815 1.348 2.697 3.526 2.697 6.43 0 2.905-.934 5.187-2.852 6.846-1.712 1.452-4.097 2.334-7.157 2.593l-2.8.26v8.712h-.052zm0-20.9v6.846l2.644-.208c2.956-.259 4.409-1.556 4.409-3.837 0-2.23-1.453-3.268-4.409-3.008l-2.644.207zm29.715 18.773c-3.786.312-7.053-.726-9.698-3.111-2.644-2.386-3.993-5.497-3.993-9.283 0-3.786 1.349-7.105 3.993-9.957 2.645-2.852 5.912-4.46 9.698-4.771 3.838-.311 7.105.674 9.698 3.06 2.645 2.385 3.941 5.445 3.941 9.334 0 3.838-1.296 7.157-3.941 10.01-2.645 2.8-5.86 4.407-9.698 4.718zm0-21.78c-2.178.207-3.993 1.14-5.497 2.903-1.452 1.764-2.23 3.734-2.23 5.913 0 2.178.726 4.044 2.23 5.6 1.452 1.504 3.319 2.178 5.497 1.971 2.23-.207 4.097-1.193 5.549-3.008 1.4-1.711 2.127-3.682 2.127-5.964 0-2.23-.727-4.097-2.179-5.549-1.452-1.4-3.267-2.022-5.497-1.867zM165.588 76.7l-5.341.467v-5.082l-14.21 1.245v5.082l-5.341.467v-10.32l2.281-.208 6.794-21.47 6.742-.57 6.794 20.277 2.333-.207V76.7h-.052zm-8.245-9.645l-4.201-13.484-4.201 14.262 8.402-.778zm26.5 2.955l-14.261 1.245V45.118l14.261-1.245v5.238l-8.349.726v4.927l8.193-.726v5.238l-8.193.726v5.341l8.349-.726v5.394zM27.07 127.316l-5.808.518v-16.128L10.216 128.82l-4.978.415v-26.138l5.912-.518v16.024l11.046-16.958 4.875-.415v26.086zm40.192-3.527l-5.912.519v-10.735l-9.127.778v10.735l-5.912.518V99.467l5.912-.519v10.113l9.127-.778V98.171l5.912-.519v26.137zm29.508-2.593l-6.482.571-1.66-4.564-9.386.83-1.764 4.875-6.378.57 10.424-27.07 4.874-.415 10.372 25.203zm-9.801-8.712l-2.956-9.127-3.06 9.645 6.016-.518zm47.089 5.445l-5.912.519v-20.9l-8.609.778v20.9l-5.912.518V93.607l20.433-1.763v26.085zm12.031-1.037l-5.912.519V91.273l9.127-.778c2.956-.259 5.238.26 6.95 1.556 1.815 1.349 2.696 3.527 2.696 6.43 0 2.905-.933 5.187-2.852 6.846-1.711 1.452-4.097 2.334-7.157 2.593l-2.8.26v8.712h-.052zm0-20.9v6.846l2.645-.207c2.956-.26 4.408-1.556 4.408-3.838 0-2.23-1.452-3.267-4.408-3.008l-2.645.208zm38.947 17.477l-5.809.519V97.859l-11.046 17.114-4.978.415V89.251l5.912-.519v16.025l11.046-16.958 4.875-.415v26.085zm12.083-1.037l-5.912.519V86.813l9.127-.778c2.956-.259 5.238.26 6.95 1.556 1.815 1.349 2.696 3.527 2.696 6.43 0 2.905-.933 5.187-2.852 6.846-1.711 1.452-4.097 2.334-7.157 2.593l-2.8.26v8.712h-.052zm0-20.9v6.846l2.645-.207c2.956-.26 4.408-1.556 4.408-3.838 0-2.23-1.452-3.267-4.408-3.008l-2.645.207zm29.716 18.774c-3.786.311-7.053-.726-9.698-3.112-2.645-2.385-3.993-5.497-3.993-9.283 0-3.785 1.348-7.105 3.993-9.957 2.645-2.852 5.912-4.46 9.698-4.77 3.837-.312 7.105.673 9.698 3.059 2.644 2.385 3.941 5.445 3.941 9.335 0 3.837-1.297 7.156-3.941 10.009-2.645 2.8-5.861 4.408-9.698 4.719zm0-21.781c-2.178.207-3.993 1.14-5.497 2.904-1.452 1.763-2.23 3.734-2.23 5.912s.726 4.045 2.23 5.601c1.452 1.504 3.319 2.178 5.497 1.97 2.23-.207 4.097-1.192 5.549-3.007 1.4-1.712 2.126-3.683 2.126-5.964 0-2.23-.726-4.097-2.178-5.55-1.452-1.4-3.267-2.022-5.497-1.866zm40.658 22.818l-5.342.467v-5.083l-14.209 1.245v5.082l-5.342.467v-10.372l2.282-.207 6.794-21.47 6.741-.57 6.794 20.276 2.334-.207v10.372h-.052zm-8.246-9.646l-4.201-13.484-4.2 14.262 8.401-.778zm26.5 2.956l-14.261 1.245V79.76l14.261-1.244v5.238l-8.349.726v4.926l8.194-.726v5.238l-8.194.726v5.342l8.349-.726v5.393z" fill="#000"/><path d="M239 180.559L1 201.363v-48.166l238-20.805v48.167z" fill="#E84C0A"/><path d="M38.965 174.646c0 3.077-1.012 5.708-3.076 7.893-2.065 2.226-4.615 3.441-7.69 3.724-2.106.202-4.048-.243-5.748-1.295-1.7-1.053-2.996-2.51-3.805-4.412l5.18-.445c1.134 1.457 2.632 2.104 4.534 1.943 1.417-.122 2.631-.648 3.643-1.579 1.052-.931 1.7-2.064 2.024-3.481l-7.812.688v-3.805l7.852-.688c-.283-1.335-.971-2.347-2.023-3.076-1.053-.729-2.267-1.012-3.684-.89-1.943.161-3.48 1.092-4.574 2.792l-5.18.446c.809-2.146 2.064-3.846 3.804-5.181a11.53 11.53 0 015.95-2.267c2.995-.243 5.505.526 7.57 2.348 2.023 1.902 3.035 4.29 3.035 7.285zm10.321 9.391l-4.25.364v-11.374l-3.643.324v-3.359l11.496-1.012v3.359l-3.643.324v11.374h.04zm13.844-16.393c2.266-.202 4.168.364 5.706 1.7 1.498 1.336 2.267 3.117 2.267 5.383 0 2.267-.77 4.21-2.267 5.788-1.497 1.619-3.4 2.51-5.707 2.712-2.267.203-4.128-.364-5.666-1.74-1.539-1.336-2.267-3.157-2.267-5.384 0-2.266.769-4.169 2.267-5.747 1.538-1.619 3.44-2.51 5.666-2.712zm3.885 7.488c0-1.174-.364-2.105-1.052-2.833-.73-.729-1.62-1.012-2.793-.931-1.134.081-2.065.566-2.753 1.416-.728.85-1.052 1.862-1.052 2.996 0 1.133.364 2.064 1.093 2.752.728.729 1.619 1.012 2.752.931 1.133-.081 2.064-.567 2.793-1.376.648-.85 1.012-1.822 1.012-2.955zm24.448 5.222l-4.25.364v-11.414l-3.643.323v-3.319l11.495-1.012v3.36l-3.643.324v11.374h.04zm19.185-5.951c0 2.834-2.064 4.412-6.152 4.777l-6.314.566v-14.733l6.435-.567c3.522-.323 5.303.85 5.303 3.441 0 1.336-.608 2.347-1.822 3.116v.041c1.7.567 2.55 1.7 2.55 3.359zm-5.019-5.707c0-.89-.526-1.295-1.578-1.214l-1.741.162v2.874l1.619-.122c1.133-.162 1.7-.688 1.7-1.7zm.486 5.869c0-1.133-.688-1.619-2.024-1.497l-1.781.162v3.076l2.024-.162c1.214-.121 1.781-.648 1.781-1.579zm15.381-12.021c2.266-.202 4.169.364 5.707 1.7 1.498 1.336 2.267 3.117 2.267 5.383 0 2.267-.769 4.21-2.267 5.788-1.498 1.619-3.4 2.51-5.707 2.712-2.267.203-4.129-.364-5.667-1.74-1.538-1.336-2.267-3.157-2.267-5.384 0-2.266.77-4.169 2.267-5.747 1.538-1.619 3.441-2.55 5.667-2.712zm3.886 7.448c0-1.174-.365-2.105-1.053-2.834-.728-.728-1.619-1.012-2.793-.931-1.133.081-2.064.567-2.752 1.417-.729.85-1.052 1.862-1.052 2.995 0 1.134.364 2.064 1.092 2.753.729.728 1.619 1.011 2.753.931 1.133-.081 2.064-.567 2.793-1.377.647-.809 1.012-1.781 1.012-2.954zm14.531-9.108c1.74-.161 3.278.203 4.573 1.012 1.296.85 2.186 2.065 2.712 3.684.284.89.445 1.943.445 3.197 0 .122 0 .324-.04.527l-11.374 1.011c.364 2.065 1.619 2.996 3.845 2.793 1.539-.121 2.55-.769 3.036-1.902l4.291-.364c-.608 1.619-1.579 2.914-2.874 3.966a8.464 8.464 0 01-4.453 1.781c-2.266.203-4.169-.364-5.585-1.7-1.457-1.335-2.186-3.157-2.186-5.424 0-2.145.729-4.047 2.226-5.707 1.417-1.74 3.238-2.671 5.384-2.874zm-1.093-1.7l-3.765.324v-3.683l3.765-.324v3.683zm4.776 7.65c-.486-1.861-1.7-2.671-3.643-2.509-1.943.162-3.157 1.214-3.683 3.157l7.326-.648zm1.255-8.176l-3.805.324v-3.683l3.805-.324v3.683zm29.547 14.41l-4.169.364-3.036-9.39-3.076 9.957-4.088.364 5.1-15.179 4.129-.364 5.14 14.248zm9.795-16.069c1.741-.162 3.279.202 4.574 1.012 1.295.85 2.186 2.064 2.712 3.683.283.89.445 1.943.445 3.198 0 .121 0 .323-.04.526l-11.374 1.012c.364 2.064 1.619 2.995 3.845 2.792 1.538-.121 2.55-.769 3.036-1.902l4.291-.364c-.608 1.619-1.579 2.914-2.874 3.967a8.466 8.466 0 01-4.453 1.78c-2.266.203-4.169-.364-5.585-1.7-1.458-1.335-2.186-3.157-2.186-5.423 0-2.146.728-4.048 2.226-5.707 1.417-1.741 3.238-2.672 5.383-2.874zm3.724 5.95c-.485-1.862-1.7-2.672-3.643-2.51-1.942.162-3.157 1.214-3.683 3.157l7.326-.647zm14.167 7.731l-4.25.364V159.63l-3.643.323v-3.359l11.495-1.012v3.36l-3.643.323v11.415h.041zm13.883-16.434c2.267-.202 4.169.365 5.707 1.7 1.498 1.336 2.267 3.117 2.267 5.384 0 2.266-.769 4.209-2.267 5.788-1.497 1.619-3.4 2.509-5.707 2.712-2.266.202-4.128-.365-5.666-1.741-1.539-1.335-2.267-3.157-2.267-5.383 0-2.267.769-4.169 2.267-5.748 1.497-1.619 3.4-2.509 5.666-2.712zm3.845 7.488c0-1.173-.364-2.104-1.052-2.833-.729-.728-1.619-1.012-2.793-.931-1.133.081-2.064.567-2.752 1.417-.729.85-1.053 1.862-1.053 2.995s.365 2.064 1.093 2.752c.729.729 1.619 1.012 2.753.931 1.133-.081 2.064-.566 2.793-1.376.647-.809 1.011-1.781 1.011-2.955z" fill="#000"/><path d="M37.671 172.706c0 3.076-1.011 5.707-3.076 7.893-2.064 2.226-4.614 3.44-7.69 3.724-2.105.202-4.048-.243-5.748-1.295-1.7-1.053-2.995-2.51-3.805-4.412l5.181-.446c1.134 1.458 2.631 2.105 4.534 1.943 1.416-.121 2.63-.647 3.642-1.578 1.053-.931 1.7-2.065 2.024-3.481l-7.812.688v-3.805l7.853-.688c-.284-1.336-.972-2.348-2.024-3.076-1.052-.729-2.267-1.012-3.683-.891-1.943.162-3.481 1.093-4.574 2.793l-5.181.445c.81-2.145 2.064-3.845 3.805-5.181a11.537 11.537 0 015.95-2.266c2.995-.243 5.504.526 7.569 2.347 2.023 1.903 3.035 4.291 3.035 7.286zm10.322 9.391l-4.25.364v-11.374l-3.643.324v-3.36l11.495-1.011v3.359l-3.643.324v11.374h.04zm13.843-16.393c2.266-.203 4.169.364 5.707 1.7 1.497 1.335 2.266 3.116 2.266 5.383s-.769 4.21-2.266 5.788c-1.498 1.619-3.4 2.51-5.707 2.712-2.267.202-4.129-.364-5.667-1.74-1.538-1.336-2.267-3.158-2.267-5.384 0-2.266.77-4.169 2.267-5.747 1.538-1.619 3.44-2.51 5.667-2.712zm3.885 7.488c0-1.174-.364-2.105-1.052-2.833-.728-.729-1.619-1.012-2.793-.931-1.133.081-2.064.566-2.752 1.416-.729.85-1.053 1.862-1.053 2.995 0 1.134.365 2.065 1.093 2.753.729.728 1.62 1.012 2.753.931 1.133-.081 2.064-.567 2.793-1.376.647-.85 1.011-1.822 1.011-2.955zm24.448 5.221l-4.25.365v-11.415l-3.643.324v-3.319l11.495-1.012v3.36l-3.642.324v11.373h.04zm19.186-5.95c0 2.834-2.065 4.412-6.153 4.776l-6.314.567v-14.733l6.436-.567c3.521-.324 5.302.85 5.302 3.441 0 1.335-.607 2.347-1.821 3.116v.041c1.7.566 2.55 1.7 2.55 3.359zm-5.019-5.707c0-.89-.526-1.295-1.579-1.214l-1.74.162v2.874l1.619-.122c1.133-.162 1.7-.688 1.7-1.7zm.485 5.869c0-1.133-.688-1.619-2.023-1.497l-1.781.161v3.077l2.023-.162c1.215-.122 1.781-.648 1.781-1.579zm15.381-12.021c2.267-.203 4.169.364 5.708 1.7 1.497 1.335 2.266 3.116 2.266 5.383s-.769 4.21-2.266 5.788c-1.498 1.619-3.4 2.51-5.708 2.712-2.266.202-4.128-.364-5.666-1.74-1.538-1.336-2.267-3.158-2.267-5.384 0-2.266.769-4.169 2.267-5.747 1.538-1.619 3.44-2.55 5.666-2.712zm3.886 7.447c0-1.173-.364-2.104-1.052-2.833-.729-.729-1.619-1.012-2.793-.931-1.133.081-2.064.567-2.753 1.417-.728.85-1.052 1.862-1.052 2.995s.364 2.064 1.093 2.752c.729.729 1.619 1.012 2.752.931 1.134-.081 2.065-.566 2.793-1.376.648-.809 1.012-1.781 1.012-2.955zm14.531-9.107c1.741-.162 3.279.203 4.574 1.012 1.295.85 2.186 2.064 2.712 3.683.283.891.445 1.943.445 3.198 0 .122 0 .324-.04.526l-11.374 1.012c.364 2.064 1.619 2.995 3.845 2.793 1.538-.121 2.55-.769 3.036-1.902l4.29-.365c-.607 1.619-1.578 2.915-2.874 3.967a8.464 8.464 0 01-4.452 1.781c-2.267.202-4.169-.364-5.586-1.7-1.457-1.336-2.185-3.157-2.185-5.424 0-2.145.728-4.047 2.226-5.707 1.416-1.74 3.238-2.671 5.383-2.874zm-1.093-1.7l-3.764.324v-3.683l3.764-.324v3.683zm4.776 7.65c-.485-1.862-1.7-2.671-3.642-2.509-1.943.162-3.158 1.214-3.684 3.157l7.326-.648zm1.255-8.176l-3.805.324v-3.683l3.805-.324v3.683zm29.548 14.41l-4.169.364-3.036-9.391-3.076 9.958-4.088.364 5.1-15.179 4.128-.364 5.141 14.248zm9.795-16.069c1.74-.162 3.279.202 4.574 1.011 1.295.85 2.185 2.065 2.712 3.684.283.89.445 1.943.445 3.197 0 .122 0 .324-.041.527l-11.373 1.011c.364 2.065 1.619 2.996 3.845 2.793 1.538-.121 2.55-.769 3.036-1.902l4.29-.364c-.607 1.619-1.579 2.914-2.874 3.966a8.464 8.464 0 01-4.452 1.781c-2.267.203-4.169-.364-5.586-1.7-1.457-1.335-2.186-3.157-2.186-5.424 0-2.145.729-4.047 2.227-5.707 1.416-1.74 3.238-2.671 5.383-2.873zm3.724 5.95c-.486-1.862-1.7-2.672-3.643-2.51-1.943.162-3.157 1.214-3.683 3.157l7.326-.647zm14.166 7.73l-4.25.365v-11.415l-3.642.324v-3.359l11.495-1.012v3.359l-3.643.324v11.414h.04zm13.884-16.433c2.266-.202 4.169.364 5.707 1.7 1.498 1.336 2.267 3.117 2.267 5.384 0 2.266-.769 4.209-2.267 5.788-1.498 1.619-3.4 2.509-5.707 2.712-2.267.202-4.129-.365-5.667-1.741-1.538-1.336-2.267-3.157-2.267-5.383 0-2.267.769-4.169 2.267-5.748 1.498-1.619 3.4-2.509 5.667-2.712zm3.845 7.488c0-1.174-.364-2.104-1.052-2.833-.729-.729-1.619-1.012-2.793-.931-1.134.081-2.065.567-2.753 1.417-.728.85-1.052 1.862-1.052 2.995s.364 2.064 1.093 2.752c.728.729 1.619 1.012 2.752.931 1.134-.081 2.065-.566 2.793-1.376.648-.809 1.012-1.781 1.012-2.955z" fill="#fff"/></svg>