<svg width="600" height="316" fill="none" xmlns="http://www.w3.org/2000/svg"><path d="M354 284.63L2 315.4v-71.238l352-30.77v71.238z" fill="#E84C0A"/><path d="M58.15 275.886c0 4.55-1.497 8.441-4.55 11.673-3.053 3.293-6.824 5.089-11.374 5.508-3.113.299-5.986-.359-8.5-1.916-2.515-1.556-4.43-3.711-5.628-6.525l7.663-.658c1.676 2.155 3.89 3.113 6.704 2.873 2.096-.18 3.892-.958 5.388-2.335 1.557-1.377 2.514-3.053 2.993-5.148l-11.553 1.018v-5.627l11.613-1.018c-.419-1.976-1.437-3.472-2.993-4.55-1.556-1.077-3.352-1.496-5.448-1.317-2.873.24-5.148 1.617-6.764 4.131l-7.663.658c1.197-3.172 3.053-5.687 5.627-7.662 2.575-1.916 5.508-3.053 8.8-3.353 4.43-.359 8.142.779 11.195 3.472 2.993 2.814 4.49 6.346 4.49 10.776zm15.265 13.888l-6.286.539v-16.822l-5.387.479v-4.968l17-1.497v4.969l-5.387.479v16.821h.06zm20.473-24.245c3.353-.299 6.166.539 8.441 2.515 2.215 1.975 3.353 4.609 3.353 7.962 0 3.352-1.138 6.226-3.353 8.56-2.215 2.395-5.028 3.712-8.44 4.011-3.353.299-6.107-.539-8.382-2.574-2.274-1.976-3.352-4.669-3.352-7.962 0-3.352 1.138-6.166 3.352-8.501 2.275-2.394 5.089-3.711 8.381-4.011zm5.747 11.075c0-1.736-.538-3.113-1.556-4.19-1.078-1.078-2.395-1.497-4.13-1.377-1.677.12-3.054.838-4.071 2.095-1.078 1.257-1.557 2.754-1.557 4.43 0 1.676.539 3.053 1.617 4.071 1.077 1.077 2.394 1.496 4.07 1.377 1.676-.12 3.053-.838 4.13-2.036.959-1.257 1.497-2.694 1.497-4.37zm36.158 7.723l-6.285.539v-16.882l-5.388.479v-4.909l17.001-1.497v4.969l-5.388.479v16.822h.06zm28.376-8.8c0 4.19-3.053 6.525-9.1 7.064l-9.338.838v-21.791l9.518-.838c5.208-.479 7.842 1.257 7.842 5.089 0 1.975-.898 3.472-2.694 4.609v.06c2.515.838 3.772 2.514 3.772 4.969zm-7.423-8.441c0-1.317-.779-1.916-2.335-1.796l-2.574.239v4.251l2.394-.18c1.677-.239 2.515-1.017 2.515-2.514zm.718 8.68c0-1.676-1.018-2.394-2.993-2.215l-2.634.24v4.549l2.993-.239c1.796-.18 2.634-.958 2.634-2.335zm22.748-17.779c3.353-.3 6.166.538 8.441 2.514 2.215 1.975 3.353 4.609 3.353 7.962 0 3.352-1.138 6.226-3.353 8.56-2.215 2.395-5.028 3.712-8.441 4.011-3.352.3-6.106-.539-8.381-2.574-2.274-1.975-3.352-4.669-3.352-7.962 0-3.352 1.137-6.166 3.352-8.5 2.275-2.395 5.089-3.772 8.381-4.011zm5.747 11.015c0-1.736-.538-3.113-1.556-4.191-1.078-1.077-2.395-1.496-4.131-1.377-1.676.12-3.053.838-4.071 2.095-1.077 1.258-1.556 2.754-1.556 4.43 0 1.677.539 3.053 1.616 4.071 1.078 1.078 2.395 1.497 4.071 1.377 1.676-.12 3.053-.838 4.131-2.035.958-1.198 1.496-2.634 1.496-4.37zm21.491-13.47c2.575-.239 4.849.299 6.765 1.497 1.916 1.257 3.233 3.053 4.011 5.447.419 1.317.658 2.874.658 4.73 0 .179 0 .479-.059.778l-16.822 1.496c.539 3.054 2.394 4.43 5.687 4.131 2.275-.18 3.771-1.137 4.49-2.814l6.345-.538c-.898 2.394-2.334 4.31-4.25 5.866a12.514 12.514 0 01-6.585 2.634c-3.352.3-6.166-.538-8.261-2.514-2.155-1.975-3.233-4.669-3.233-8.022 0-3.172 1.078-5.986 3.293-8.441 2.095-2.574 4.789-3.951 7.961-4.25zm-1.616-2.514l-5.567.479v-5.448l5.567-.479v5.448zm7.064 11.314c-.718-2.754-2.514-3.951-5.388-3.711-2.873.239-4.669 1.796-5.447 4.669l10.835-.958zm1.856-12.092l-5.627.479v-5.448l5.627-.479v5.448zm43.701 21.311l-6.166.539-4.49-13.888-4.55 14.726-6.046.539 7.543-22.449 6.106-.539 7.603 21.072zm14.487-23.766c2.574-.239 4.849.3 6.764 1.497 1.916 1.257 3.233 3.053 4.011 5.447.419 1.317.659 2.874.659 4.73 0 .179 0 .479-.06.778l-16.822 1.497c.539 3.053 2.394 4.429 5.687 4.13 2.275-.179 3.771-1.137 4.49-2.813l6.345-.539c-.898 2.394-2.334 4.31-4.25 5.866a12.514 12.514 0 01-6.585 2.634c-3.352.3-6.166-.538-8.261-2.514-2.155-1.975-3.233-4.669-3.233-8.022 0-3.172 1.078-5.986 3.293-8.44 2.095-2.575 4.789-3.951 7.962-4.251zm5.507 8.8c-.718-2.753-2.514-3.951-5.388-3.711-2.873.239-4.669 1.796-5.447 4.669l10.835-.958zm20.952 11.434l-6.285.539v-16.882l-5.388.479v-4.968l17.001-1.497v4.969l-5.387.479v16.881h.059zm20.534-24.304c3.352-.3 6.166.538 8.441 2.514 2.215 1.975 3.352 4.609 3.352 7.962 0 3.352-1.137 6.226-3.352 8.56-2.215 2.395-5.029 3.712-8.441 4.011-3.353.299-6.106-.539-8.381-2.574-2.275-1.976-3.353-4.669-3.353-7.962 0-3.352 1.138-6.166 3.353-8.501 2.215-2.394 5.028-3.711 8.381-4.01zm5.687 11.074c0-1.736-.539-3.113-1.557-4.19-1.077-1.078-2.394-1.497-4.13-1.377-1.676.12-3.053.838-4.071 2.095-1.078 1.257-1.556 2.754-1.556 4.43 0 1.676.538 3.053 1.616 4.071 1.077 1.077 2.394 1.497 4.071 1.377 1.676-.12 3.053-.838 4.13-2.036.958-1.197 1.497-2.634 1.497-4.37z" fill="#000"/><path d="M56.237 273.016c0 4.55-1.497 8.441-4.55 11.674-3.053 3.292-6.825 5.088-11.374 5.507-3.113.3-5.986-.359-8.5-1.915-2.515-1.557-4.43-3.712-5.628-6.526l7.663-.658c1.676 2.155 3.89 3.113 6.704 2.873 2.096-.179 3.892-.957 5.388-2.334 1.557-1.377 2.514-3.053 2.993-5.149l-11.553 1.018v-5.627l11.613-1.018c-.419-1.975-1.437-3.472-2.993-4.549-1.556-1.078-3.352-1.497-5.448-1.317-2.873.239-5.148 1.616-6.764 4.13l-7.663.659c1.197-3.173 3.053-5.687 5.627-7.663 2.575-1.916 5.508-3.053 8.8-3.352 4.43-.359 8.142.778 11.195 3.472 2.993 2.813 4.49 6.345 4.49 10.775zm15.265 13.889l-6.286.539v-16.822l-5.387.479v-4.969l17-1.497v4.969l-5.387.479v16.822h.06zm20.473-24.245c3.353-.299 6.166.539 8.441 2.514 2.215 1.976 3.353 4.61 3.353 7.962 0 3.352-1.138 6.226-3.353 8.561-2.215 2.394-5.028 3.711-8.44 4.011-3.353.299-6.107-.539-8.382-2.575-2.274-1.975-3.352-4.669-3.352-7.962 0-3.352 1.137-6.166 3.352-8.5 2.275-2.395 5.089-3.712 8.381-4.011zm5.747 11.075c0-1.736-.538-3.113-1.556-4.191-1.078-1.077-2.395-1.496-4.13-1.377-1.677.12-3.054.838-4.072 2.096-1.077 1.257-1.556 2.753-1.556 4.43 0 1.676.539 3.053 1.616 4.07 1.078 1.078 2.395 1.497 4.071 1.377 1.676-.12 3.053-.838 4.13-2.035.959-1.257 1.497-2.694 1.497-4.37zm36.158 7.722l-6.285.539v-16.882l-5.388.479v-4.909l17.001-1.496v4.969l-5.388.478v16.822h.06zm28.376-8.8c0 4.191-3.053 6.525-9.1 7.064l-9.338.838v-21.79l9.518-.838c5.208-.479 7.842 1.257 7.842 5.088 0 1.976-.898 3.472-2.694 4.61v.059c2.515.839 3.772 2.515 3.772 4.969zm-7.423-8.441c0-1.317-.779-1.915-2.335-1.796l-2.574.24v4.25l2.394-.179c1.677-.24 2.515-1.018 2.515-2.515zm.718 8.681c0-1.677-1.018-2.395-2.993-2.215l-2.634.239v4.55l2.993-.24c1.796-.179 2.634-.957 2.634-2.334zm22.748-17.78c3.353-.299 6.166.539 8.441 2.514 2.215 1.976 3.352 4.61 3.352 7.962 0 3.353-1.137 6.226-3.352 8.561-2.215 2.394-5.028 3.711-8.441 4.011-3.352.299-6.106-.539-8.381-2.574-2.275-1.976-3.352-4.67-3.352-7.962 0-3.353 1.137-6.166 3.352-8.501 2.275-2.395 5.089-3.771 8.381-4.011zm5.747 11.015c0-1.736-.539-3.113-1.556-4.19-1.078-1.078-2.395-1.497-4.131-1.377-1.676.119-3.053.838-4.071 2.095-1.077 1.257-1.556 2.754-1.556 4.43 0 1.676.539 3.053 1.616 4.071 1.078 1.077 2.395 1.496 4.071 1.376 1.676-.119 3.053-.838 4.131-2.035.957-1.197 1.496-2.634 1.496-4.37zm21.491-13.469c2.575-.24 4.849.299 6.765 1.496 1.916 1.257 3.233 3.053 4.011 5.448.419 1.317.658 2.873.658 4.729 0 .18 0 .479-.059.778l-16.822 1.497c.539 3.053 2.394 4.43 5.687 4.131 2.275-.18 3.771-1.138 4.49-2.814l6.345-.539c-.898 2.395-2.334 4.31-4.25 5.867a12.53 12.53 0 01-6.585 2.634c-3.353.299-6.166-.539-8.261-2.514-2.155-1.976-3.233-4.67-3.233-8.022 0-3.173 1.078-5.987 3.292-8.441 2.096-2.574 4.79-3.951 7.962-4.25zm-1.616-2.515l-5.567.479v-5.447l5.567-.479v5.447zm7.064 11.315c-.718-2.754-2.514-3.951-5.388-3.712-2.873.24-4.669 1.796-5.447 4.669l10.835-.957zm1.856-12.093l-5.627.479v-5.448l5.627-.479v5.448zm43.7 21.312l-6.166.538-4.489-13.888-4.55 14.727-6.046.538 7.543-22.449 6.106-.538 7.602 21.072zm14.487-23.766c2.575-.24 4.849.299 6.765 1.496 1.916 1.257 3.233 3.053 4.011 5.448.419 1.317.658 2.873.658 4.729 0 .18 0 .479-.059.778l-16.822 1.497c.539 3.053 2.394 4.43 5.687 4.131 2.275-.18 3.771-1.138 4.49-2.814l6.345-.539c-.898 2.395-2.334 4.31-4.25 5.867a12.53 12.53 0 01-6.585 2.634c-3.352.299-6.166-.539-8.261-2.514-2.155-1.976-3.233-4.67-3.233-8.022 0-3.173 1.078-5.987 3.293-8.441 2.095-2.574 4.789-3.951 7.961-4.25zm5.508 8.8c-.718-2.754-2.514-3.951-5.388-3.712-2.873.24-4.669 1.796-5.447 4.669l10.835-.957zm20.952 11.434l-6.285.538v-16.881l-5.388.479v-4.969l17.001-1.497v4.969l-5.387.479v16.882h.059zm20.534-24.305c3.352-.299 6.166.539 8.44 2.514 2.215 1.976 3.353 4.61 3.353 7.962 0 3.353-1.138 6.226-3.353 8.561-2.214 2.394-5.028 3.711-8.44 4.011-3.353.299-6.106-.539-8.381-2.575-2.275-1.975-3.353-4.669-3.353-7.962 0-3.352 1.138-6.165 3.353-8.5 2.215-2.395 5.028-3.712 8.381-4.011zm5.687 11.075c0-1.736-.539-3.113-1.557-4.191-1.077-1.077-2.394-1.496-4.13-1.377-1.677.12-3.053.839-4.071 2.096-1.078 1.257-1.557 2.753-1.557 4.43 0 1.676.539 3.053 1.617 4.07 1.077 1.078 2.394 1.497 4.071 1.377 1.676-.12 3.053-.838 4.13-2.035.958-1.197 1.497-2.634 1.497-4.37zM2.929 152.311l23.25-2.014v13.639l9.336-14.462 18.673-1.648v59.039l-23.067 2.014v-13.73l-9.428 14.554-18.856 1.647v-59.039h.092zm72.403-6.316l23.25-2.013v17.849l3.294-.275v-17.849l23.25-2.014v35.515l14.187-36.796 17.3-1.556 23.433 56.933-25.08 2.197-2.929-8.055-7.506.641-3.112 8.604-39.543 3.478v-18.947l-3.295.275v18.947l-23.25 2.105v-59.039zm118.718-10.343l68.833-6.041c1.007-.092 2.105-.092 3.021-.092 5.492 0 10.068 1.465 13.638 4.211.733.549 1.373 1.19 2.014 1.831v-7.598l23.249-2.013v13.638l9.337-14.462 38.718-3.387c1.007-.091 2.106-.183 3.021-.183 5.492 0 10.069 1.465 13.638 4.211a18.108 18.108 0 015.035 6.132 45.944 45.944 0 013.753-4.851c5.766-6.224 12.906-9.702 21.235-10.435 1.007-.091 2.014-.091 3.021-.091 7.322 0 13.638 2.38 18.947 7.139 5.218 4.669 8.238 10.71 8.879 17.849l8.696-27.368 21.144-1.831 11.991 35.79h.274v-36.888l37.986-3.295v22.151h-.274v14.553h.274v22.243l-32.219 2.837v8.971l-22.243 1.922v-8.97l-12.265 1.098v8.97l-22.243 1.923v-16.293c-5.675 5.949-12.631 9.336-20.869 9.977-1.007.091-2.014.091-2.929.091-7.323 0-13.639-2.471-19.039-7.231-3.845-3.478-6.499-7.689-7.964-12.448-.457.457-.915.915-1.373 1.281-3.844 3.295-8.97 5.309-15.286 5.95v15.56l-44.393 3.845v-13.73l-9.428 14.554-18.856 1.647V164.76a16.078 16.078 0 01-2.197 2.105c-3.844 3.295-8.97 5.309-15.286 5.95v15.56l-44.485 3.936v-36.888l-2.38.183v36.888l-23.249 2.014v-58.856h.274zm207.689 3.295h-.824c-2.197.183-3.844 1.099-5.309 2.929-1.647 1.923-2.379 4.028-2.379 6.316 0 2.197.64 3.936 2.105 5.401 1.098 1.098 2.288 1.647 3.844 1.647h.732c2.197-.183 3.936-1.098 5.401-2.929 1.556-1.83 2.288-4.027 2.288-6.499 0-2.288-.641-3.936-1.922-5.309-1.19-1.098-2.38-1.556-3.936-1.556zM81.556 105.629l-19.863 1.739V83.021c-.915 6.498-3.661 12.265-8.33 17.299-5.766 6.225-12.905 9.794-21.326 10.527-1.007.091-2.014.091-2.93.091-7.322 0-13.638-2.471-19.038-7.231C4.027 98.215.915 91.076.915 82.563c0-8.33 2.93-15.744 8.787-21.968 5.767-6.224 12.907-9.703 21.236-10.435 1.007-.091 2.014-.091 3.02-.091 7.14 0 13.365 2.288 18.582 6.773v-7.689l41.556-3.661v15.56l5.034-15.926 21.145-1.83 11.99 35.789h.275V42.197l23.249-2.014v17.574c4.028.184 7.415 1.007 10.252 2.38.183.092.275.183.458.275V39.176l40.732-3.57 5.034 7.78 4.852-8.695 28.009-2.471-18.764 30.572 19.679 28.375-26.728 2.38-6.681-10.252-6.499 11.442-39.634 3.478v-3.204c-3.662 2.472-8.238 3.936-13.639 4.394l-14.553 1.282v8.97l-22.243 1.922v-8.97l-12.265 1.098v8.97L81.556 114.6v-8.971zM32.86 72.311h-.823c-2.197.183-3.845 1.099-5.31 2.93-1.647 1.921-2.38 4.027-2.38 6.315 0 2.197.641 3.936 2.106 5.4 1.098 1.099 2.288 1.648 3.844 1.648h.733c2.197-.183 3.936-1.098 5.4-2.929 1.556-1.83 2.288-4.027 2.288-6.499 0-2.288-.64-3.936-1.922-5.309-1.19-1.098-2.38-1.556-3.936-1.556zm52.083 10.893l2.197-.183 4.76-15.103-7.049.64v14.646h.092zm104.805-4.485l9.062-14.554-9.062-12.815v27.37zM61.053 70.572c.274 1.007.457 2.014.64 3.112v-3.203l-.64.091zM271.12 29.657l21.053-1.83c1.007-.092 2.014-.092 2.929-.092 4.393 0 8.146.915 11.259 2.837 3.478 2.105 7.505 6.316 7.505 14.37 0 3.021-.641 5.767-1.83 8.239 2.746 2.929 4.119 6.865 4.119 11.533 0 7.506-2.929 20.32-22.792 22.06l-22.426 1.922v-59.04h.183zm64.257-5.584l37.07-3.203v6.315c5.492-5.309 12.174-8.238 19.772-8.97 1.006-.091 2.013-.091 3.02-.091 7.323 0 13.639 2.38 18.948 7.14 2.105 1.83 3.752 3.935 5.125 6.223V16.842l21.968-1.922c1.007-.092 2.106-.092 3.021-.092 5.492 0 10.069 1.465 13.638 4.21a18.118 18.118 0 015.035 6.134 45.884 45.884 0 013.753-4.852c5.766-6.224 12.906-9.702 21.235-10.434 1.007-.092 2.014-.092 3.021-.092 7.323 0 13.638 2.38 18.947 7.14 5.218 4.668 8.238 10.709 8.879 17.849l8.696-27.369 21.144-1.83 12.174 35.606h.274V4.302l37.987-3.295v22.15h-.275v14.555h.275v22.242l-32.22 2.838v8.97l-22.243 1.922v-8.97l-12.265 1.098v8.97l-22.243 1.923V60.503c-5.675 5.95-12.631 9.337-20.869 9.978-1.007.091-2.014.091-2.929.091-7.323 0-13.639-2.471-19.039-7.231-3.845-3.478-6.499-7.689-7.964-12.449-.457.458-.915.916-1.373 1.282-3.844 3.295-8.97 5.309-15.286 5.95v15.56l-23.249 2.014V61.876c-1.281 2.289-2.838 4.486-4.76 6.5-5.766 6.224-12.906 9.793-21.327 10.526-1.007.091-2.014.091-2.929.091-7.323 0-13.638-2.471-19.039-7.231-6.041-5.492-9.153-12.632-9.153-21.144 0-2.288.274-4.577.732-6.774l-4.302.367v36.796l-23.249 2.014V24.073zm58.855 16.293h-.823c-2.197.183-3.845 1.099-5.309 2.93-1.648 1.921-2.38 4.027-2.38 6.315 0 2.197.641 3.936 2.105 5.4 1.098 1.099 2.288 1.648 3.844 1.648h.733c2.196-.183 3.936-1.098 5.4-2.929 1.556-1.83 2.288-4.027 2.288-6.499 0-2.288-.64-3.936-1.922-5.309-1.19-1.098-2.38-1.556-3.936-1.556zm95.836-8.33h-.824c-2.197.184-3.845 1.099-5.309 2.93-1.648 1.922-2.38 4.027-2.38 6.316 0 2.196.641 3.935 2.105 5.4 1.099 1.098 2.289 1.648 3.845 1.648h.732c2.197-.183 3.936-1.099 5.4-2.93 1.556-1.83 2.289-4.027 2.289-6.498 0-2.289-.641-3.936-1.922-5.31-1.19-1.098-2.38-1.555-3.936-1.555z" fill="#fff"/><path d="M598.169 2.014v20.32h-.274v16.384h.274V59.13l-5.034.458-25.172 2.197-2.013.183v8.97l-5.035.458-9.428.824-5.949.549v-8.97l-14.096 1.19v8.97l-5.035.457-9.428.824-5.949.55V58.124c-.366.457-.733.915-1.099 1.281-5.583 6.041-12.54 9.52-20.686 10.16-1.007.092-1.922.092-2.838.092-7.048 0-13.272-2.38-18.398-7.048-4.21-3.753-6.865-8.33-8.146-13.639a31.479 31.479 0 01-2.472 2.472c-3.936 3.295-9.153 5.217-15.56 5.858v15.469l-5.035.457-10.434.916-5.95.55V57.756c-1.373 3.57-3.478 6.957-6.316 9.978-5.583 6.04-12.54 9.519-20.686 10.16-1.007.091-1.923.091-2.838.091-7.048 0-13.272-2.38-18.398-7.048-5.858-5.309-8.879-12.174-8.879-20.503 0-2.746.366-5.31 1.007-7.78l-6.407.549V80.09l-5.035.458-10.434.915-5.95.55V24.897l5.034-.458 24.257-2.105 5.949-.55v7.507l.092-.092c5.675-6.041 12.54-9.428 20.595-10.16 1.007-.092 2.013-.092 2.929-.092 7.048 0 13.272 2.289 18.306 6.865 3.021 2.655 5.218 5.858 6.682 9.428V17.574l5.035-.457 16.11-1.373c1.006-.092 2.013-.092 2.929-.092 5.217 0 9.702 1.373 13.089 4.028 1.922 1.464 4.119 3.844 5.492 7.414a36.211 36.211 0 014.576-6.224c5.676-6.042 12.541-9.428 20.595-10.16 1.007-.092 2.014-.092 2.93-.092 7.048 0 13.272 2.288 18.306 6.865 5.858 5.217 8.787 12.174 8.787 20.503 0 .824 0 1.556-.091 2.38l9.062-28.741 1.098-3.479 3.661-.274 11.9-1.007 4.302-.366 1.373 4.119 10.709 31.579 1.831-.183V5.126l5.034-.458 25.172-2.105 5.949-.55zm-110.755 47.23h.824c2.471-.182 4.394-1.28 6.041-3.294 1.648-2.014 2.472-4.394 2.472-7.048 0-2.563-.733-4.394-2.197-5.95-1.19-1.19-2.563-1.74-4.485-1.74h-.916c-2.38.184-4.302 1.19-5.949 3.204-1.739 2.106-2.655 4.394-2.655 6.957 0 2.471.732 4.394 2.38 6.041 1.281 1.19 2.654 1.83 4.485 1.83zM441.739 36.98c1.007-.183 1.373-.457 1.465-.549 0-.091.091-.183.091-.366h-1.556v.915zm-50.16 20.595h.824c2.471-.183 4.393-1.281 6.041-3.295 1.648-2.014 2.471-4.393 2.471-7.048 0-2.563-.732-4.394-2.196-5.95-1.19-1.19-2.563-1.739-4.486-1.739h-.915c-2.38.183-4.302 1.19-5.95 3.204-1.739 2.105-2.654 4.394-2.654 6.956 0 2.472.732 4.394 2.38 6.042 1.281 1.281 2.654 1.83 4.485 1.83zM295.194 28.65c4.211 0 7.872.915 10.801 2.746 3.204 2.014 7.14 5.95 7.14 13.547 0 3.112-.732 5.95-2.014 8.42 2.838 2.747 4.394 6.683 4.394 11.351 0 7.14-2.838 19.405-21.968 21.144l-15.469 1.373-5.95.55v-57.21l5.034-.458 15.287-1.373c.823-.091 1.83-.091 2.745-.091zm-51.716 4.76l-5.675 9.336-12.448 20.229 13.73 19.771 5.4 7.78-9.428.824-11.899 1.007-3.295.275-1.831-2.746-5.4-8.33-5.584 9.794-1.464 2.472-2.838.274-11.716 1.007-2.197.183-5.034.458-10.435.915-5.95.55V93.18c-3.753 3.02-8.695 4.76-14.554 5.309l-13.363 1.19-2.014.183v8.97l-5.034.458-9.428.823-5.95.55v-9.062l-14.096 1.281v8.971l-5.034.457-9.428.824-5.95.549v-8.97l-3.478.275-10.435.915-5.95.549v-36.98l-2.654.275c.824 2.655 1.19 5.492 1.19 8.604 0 8.147-2.838 15.378-8.421 21.42-5.584 6.04-12.54 9.519-20.687 10.159-1.007.092-1.922.092-2.837.092-7.048 0-13.273-2.38-18.399-7.048-6.04-5.218-9.061-12.174-9.061-20.412 0-8.147 2.837-15.286 8.512-21.327 5.675-6.041 12.54-9.428 20.595-10.16 1.007-.092 2.014-.092 2.93-.092 7.047 0 13.272 2.288 18.306 6.865.366.366.824.732 1.19 1.098v-8.97l5.034-.458 28.742-2.47 5.95-.55v20.32l-5.035.458-4.12.366V84.21l3.48-.274h.365l10.893-34.508 1.098-3.478 3.661-.275 11.9-1.007 4.302-.366 1.373 4.12 10.618 31.67 1.83-.183V43.02l5.035-.458 10.434-.915 5.95-.55V58.58c4.302.092 7.872.824 10.71 2.289.549.274 1.189.64 1.83 1.006V40l5.035-.458 10.434-.915 5.95-.55 2.654-.274 11.991-1.007 3.295-.274 1.831 2.746 3.753 5.858 3.936-7.048 1.373-2.563 2.929-.275 11.991-1.007 10.892-.823zm-54.645 48.512l11.075-17.757-11.075-15.744v33.501zM30.206 89.52h.824c2.471-.183 4.393-1.281 6.04-3.295 1.648-2.014 2.472-4.393 2.472-7.048 0-2.563-.732-4.393-2.197-5.95-1.19-1.19-2.562-1.739-4.485-1.739h-.915c-2.38.184-4.302 1.19-5.95 3.204-1.739 2.105-2.654 4.394-2.654 6.957 0 2.471.732 4.393 2.38 6.04 1.281 1.282 2.654 1.831 4.485 1.831zm479.634 19.405v20.321h-.275v16.384h.275v20.412l-5.035.458-25.171 2.197-2.014.183v8.97l-5.034.458-9.428.823-5.95.55v-8.971l-14.096 1.282v8.97l-5.034.458-9.428.824-5.95.549v-17.666c-.366.458-.732.915-1.098 1.281-5.584 6.042-12.54 9.52-20.687 10.16-1.007.092-1.922.092-2.837.092-7.048 0-13.273-2.38-18.398-7.048-4.211-3.753-6.865-8.33-8.147-13.638a31.63 31.63 0 01-2.471 2.471c-3.936 3.295-9.154 5.217-15.561 5.858v15.469l-5.034.458-10.435.915-5.858.549-5.034.458-10.252.915-5.95.55V167.78l-9.428 14.371-1.464 2.288-2.655.275-8.787.732-5.95.549v-23.707a21.831 21.831 0 01-3.661 4.119c-3.936 3.296-9.153 5.218-15.561 5.858v15.378l-5.034.458-10.435.915-5.858.549-5.034.458-10.435.915-5.95.549V154.6l-4.21.366v36.888l-5.034.366-10.435.915-5.95.549v-57.116l5.035-.458 36.064-3.112 5.949-.549 4.851-.458 16.11-1.373c1.007-.092 2.014-.092 2.929-.092 5.218 0 9.703 1.373 13.09 4.028 1.19.915 2.38 2.105 3.478 3.661v-9.336l5.034-.458 10.435-.915 5.95-.549V142.7l9.336-14.37 1.465-2.289 2.654-.274 8.604-.733 5.858-.549 5.035-.458 16.109-1.373c1.007-.091 2.014-.091 2.93-.091 5.217 0 9.702 1.373 13.089 4.027 1.922 1.465 4.119 3.845 5.492 7.415a36.22 36.22 0 014.576-6.225c5.675-6.041 12.54-9.428 20.595-10.16 1.007-.091 2.014-.091 2.929-.091 7.048 0 13.273 2.288 18.307 6.865 5.858 5.217 8.787 12.174 8.787 20.503 0 .824 0 1.556-.091 2.38l9.062-28.742 1.098-3.478 3.661-.274 11.9-1.007 4.302-.366 1.373 4.119 10.617 31.67 1.831-.183V112.22l5.034-.458 25.172-2.197 6.133-.641zm-110.755 47.232h.823c2.472-.183 4.394-1.282 6.042-3.296 1.647-2.013 2.471-4.393 2.471-7.048 0-2.563-.732-4.393-2.197-5.949-1.19-1.19-2.563-1.739-4.485-1.739h-.915c-2.38.183-4.302 1.189-5.95 3.203-1.739 2.105-2.654 4.394-2.654 6.957 0 2.471.732 4.393 2.38 6.041 1.281 1.19 2.654 1.831 4.485 1.831zM353.41 143.89c1.006-.183 1.373-.458 1.464-.549 0-.092.092-.183.092-.366h-1.556v.915zm-90.069 7.872c1.007-.183 1.373-.458 1.464-.549 0-.092.092-.183.092-.366h-1.556v.915zm-107.368-11.899l1.556 3.753 18.306 44.485 2.838 6.865-7.414.64-11.442 1.007-4.211.366-1.464-3.936-1.465-4.119-8.787.733-1.922 5.309-1.19 3.295-3.478.274-11.259 1.007-8.879.916-8.421.732-5.949.549v-18.947l-5.126.457v18.948l-5.034.457-10.435.916-5.95.549v-57.117l5.034-.457 10.435-.916 5.95-.549v17.849l5.126-.458v-17.849l5.034-.457 10.435-.916 5.95-.549v39.451l14.462-37.62 1.19-3.204 3.386-.274 8.605-.733 4.119-.457zm-102.7 8.97v57.117l-5.035.457-10.252.916-5.95.549v-15.835L22.7 206.59l-1.464 2.289-2.655.274-8.787.733-5.95.549v-57.117l5.035-.458 10.435-.915 5.95-.549v15.744l9.335-14.371 1.465-2.288 2.654-.275 8.605-.732 5.95-.641zM600 0l-2.014.183-5.949.55-25.172 2.196-5.034.458-1.648.091V36.34l-8.879-26.453-1.373-4.12-.457-1.372-1.465.183-4.302.366-11.899 1.007-3.662.274-1.189.183-.367 1.19-1.098 3.478-6.224 19.68c-1.282-5.675-4.119-10.618-8.604-14.554-5.401-4.85-11.991-7.322-19.497-7.322-1.007 0-2.105.091-3.112.183-8.513.732-15.835 4.393-21.785 10.71-1.098 1.19-2.105 2.379-3.021 3.66a17.576 17.576 0 00-4.576-5.125c-3.753-2.93-8.513-4.394-14.188-4.394-1.007 0-2.105.092-3.112.183l-16.11 1.373-5.034.458-1.648.183v12.265c-1.098-1.373-2.288-2.746-3.661-3.936-5.401-4.85-11.991-7.322-19.497-7.322-1.007 0-2.105.091-3.112.183-7.139.64-13.455 3.203-18.764 7.78v-5.218l-2.014.183-5.95.549-24.256 2.105-5.034.458-1.648.183v60.778l2.014-.183 5.95-.55 10.434-.915 5.035-.457 1.647-.183V45.034l2.289-.183c-.366 1.922-.458 3.845-.458 5.767 0 8.879 3.204 16.201 9.428 21.876C376.476 77.437 383.066 80 390.572 80c1.007 0 2.014 0 3.021-.091 8.604-.733 16.018-4.394 21.876-10.801a30.845 30.845 0 003.112-3.936v11.624l2.014-.183 5.95-.549 10.434-.915 5.035-.458 1.647-.183V58.947c6.042-.823 11.076-2.837 14.92-6.04.092-.092.275-.184.366-.275 1.556 4.393 4.119 8.238 7.781 11.533 5.492 4.943 12.082 7.505 19.588 7.505 1.007 0 2.013 0 3.02-.091 7.689-.64 14.371-3.57 19.863-8.696v15.103l2.014-.183 5.949-.549 9.428-.824 5.035-.458 1.647-.182v-8.971l10.435-.915v8.97l2.014-.183 5.949-.55 9.428-.915 5.035-.457 1.647-.183v-8.97h.366l25.172-2.197 5.034-.458 1.648-.183V36.705h-.275V23.982H600V0zM487.414 47.414c-1.281 0-2.197-.366-3.203-1.373-1.282-1.281-1.831-2.746-1.831-4.76 0-2.196.732-3.935 2.197-5.766 1.373-1.648 2.837-2.38 4.759-2.563h.733c1.373 0 2.288.366 3.112 1.19 1.19 1.19 1.739 2.654 1.739 4.668 0 2.288-.641 4.12-2.105 5.858-1.373 1.648-2.838 2.472-4.76 2.655-.183 0-.458.091-.641.091zm-95.835 8.33c-1.282 0-2.197-.366-3.204-1.373-1.281-1.282-1.83-2.746-1.83-4.76 0-2.197.732-3.936 2.196-5.767 1.373-1.647 2.838-2.38 4.76-2.563h.732c1.373 0 2.289.367 3.113 1.19 1.189 1.19 1.739 2.655 1.739 4.669 0 2.288-.641 4.119-2.106 5.858-1.373 1.647-2.837 2.471-4.759 2.654-.275.092-.458.092-.641.092zm-96.385-28.925c-1.006 0-2.013.092-3.02.183l-15.286 1.373-5.034.458-1.648.183v60.686l2.014-.183 5.949-.549 15.469-1.373c8.971-.823 15.47-3.844 19.405-9.245 3.479-4.668 4.211-9.977 4.211-13.73 0-4.668-1.373-8.604-3.936-11.716 1.098-2.471 1.648-5.126 1.648-8.146 0-8.513-4.302-12.906-7.964-15.103-3.295-1.83-7.322-2.838-11.808-2.838zm-48.329 4.394l-3.661.274-10.893.916-11.991 1.007-2.929.274-1.007.092-.457.823-1.373 2.564-2.472 4.393-2.105-3.295-1.831-2.746-.64-.916-1.099.092-3.295.275-11.808 1.098-2.654.275-5.95.549-10.435.915-5.034.458-1.647.183v20.503c-2.563-1.098-5.492-1.739-8.879-2.013V39.085l-2.014.183-5.95.549-10.434.915-5.035.458-1.647.183v32.86l-8.879-26.453-1.373-4.119-.458-1.373-1.464.092-4.302.366-11.9 1.007-3.66.275-1.19.091-.367 1.19-1.098 3.478-2.014 6.224V44.394l-2.014.183-5.95.549-28.74 2.471-5.035.458-1.648.183v6.682c-5.034-3.845-10.984-5.767-17.666-5.767-1.007 0-2.105.092-3.112.183-8.512.733-15.835 4.394-21.785 10.71C3.02 66.362 0 73.959 0 82.563c0 8.879 3.204 16.201 9.428 21.876 5.492 4.943 12.082 7.506 19.588 7.506 1.007 0 2.014 0 3.02-.091 8.605-.733 16.019-4.394 21.877-10.801a35.235 35.235 0 006.774-10.71v18.124l2.013-.183 5.95-.549 10.435-.916 1.464-.091v8.97l2.014-.183 5.95-.549 9.427-.824 5.035-.458 1.647-.183v-8.97l10.435-.915v8.97l2.014-.183 5.95-.549 9.428-.824 5.034-.458 1.647-.183v-8.97h.367l13.363-1.19c4.852-.458 9.062-1.648 12.632-3.662v2.563l2.014-.183 5.949-.549 10.435-.915 5.034-.458 2.197-.183 11.717-1.007 2.837-.274.915-.092.458-.824 1.465-2.471 4.119-7.231 3.752 5.766 1.831 2.746.641.916 1.098-.092 3.295-.274 11.9-1.007 9.428-.824 3.112-.275-1.831-2.563-5.4-7.78-12.998-18.764 11.808-19.222 5.675-9.337 1.922-3.02zm-56.201 44.302V54.188l7.048 9.977-7.048 11.35zM85.858 69.29l2.471-.183 2.289-.184-4.21 13.181-.641.092V69.29h.091zM30.206 87.689c-1.282 0-2.197-.366-3.204-1.373-1.281-1.282-1.83-2.746-1.83-4.76 0-2.197.732-3.936 2.196-5.766 1.373-1.648 2.838-2.38 4.76-2.564h.732c1.373 0 2.289.367 3.112 1.19 1.19 1.19 1.74 2.655 1.74 4.669 0 2.288-.641 4.119-2.106 5.858-1.373 1.647-2.837 2.471-4.76 2.654-.182.092-.457.092-.64.092zM511.67 106.91l-2.013.183-5.95.549-25.172 2.197-5.034.457-1.647.184v32.86l-8.879-26.453-1.373-4.119-.458-1.373-1.464.091-4.302.367-11.9 1.006-3.661.275-1.19.092-.366 1.189-1.099 3.479-6.224 19.679c-1.281-5.675-4.119-10.617-8.604-14.553-5.4-4.852-11.991-7.323-19.496-7.323-1.007 0-2.106.091-3.113.183-8.512.732-15.835 4.394-21.785 10.709-1.098 1.19-2.105 2.38-3.02 3.662a17.562 17.562 0 00-4.577-5.126c-3.753-2.929-8.512-4.394-14.187-4.394-1.007 0-2.106.092-3.113.183l-16.109 1.373-5.035.458-5.858.549-8.604.732-2.654.275-.916.092-.457.732-1.465 2.288-5.95 9.245v-11.533l-2.013.183-5.95.549-10.435.915-5.034.458-1.648.183v6.225c-.183-.183-.366-.274-.549-.457-3.753-2.929-8.512-4.394-14.188-4.394-1.006 0-2.105.092-3.112.183l-16.11 1.373-4.851.458-5.949.549-36.064 3.112-5.035.458-1.647.183v60.778l2.013-.183 5.95-.549 10.435-.916 5.034-.457 1.648-.183v-36.797l.549-.091v36.888l2.014-.183 5.949-.55 10.435-.915 5.034-.458 5.858-.549 10.435-.915 5.035-.458 1.647-.183v-15.56c6.041-.824 11.076-2.838 14.92-6.042.183-.183.458-.366.641-.549v20.87l2.014-.183 5.949-.55 8.787-.732 2.655-.274.915-.092.458-.732 1.464-2.289 6.042-9.336v11.625l2.013-.183 5.95-.55 10.252-.915 5.034-.458 5.858-.549 10.435-.915 5.034-.458 1.648-.183v-15.469c6.041-.824 11.075-2.837 14.92-6.041.091-.092.274-.183.366-.275 1.556 4.394 4.119 8.238 7.78 11.442 5.492 4.943 12.083 7.506 19.588 7.506 1.007 0 2.014 0 3.021-.092 7.689-.641 14.371-3.57 19.863-8.696v15.103l2.013-.183 5.95-.549 9.428-.824 5.034-.457 1.648-.183v-8.971l10.435-.915v8.97l2.013-.183 5.95-.549 9.428-.824 5.034-.457 1.648-.183v-8.971H480l25.172-2.196 5.034-.458 1.648-.183v-24.073h-.275v-12.724h.275v-23.981h-.184zm-112.585 47.414c-1.282 0-2.197-.366-3.204-1.373-1.281-1.282-1.831-2.746-1.831-4.76 0-2.197.733-3.936 2.197-5.766 1.373-1.648 2.838-2.38 4.76-2.563h.732c1.373 0 2.288.366 3.112 1.19 1.19 1.19 1.739 2.654 1.739 4.668 0 2.288-.64 4.119-2.105 5.858-1.373 1.648-2.837 2.471-4.76 2.654-.274.092-.457.092-.64.092zM157.162 137.94l-1.373.092-4.027.366-8.604.732-3.387.275-1.098.092-.366 1.098-1.19 3.204-10.984 28.466v-31.67l-2.014.183-5.95.549-10.434.916-5.035.457-1.647.183v17.849l-1.465.092v-17.849l-2.014.183-5.95.549-10.434.915-5.034.458-1.648.183v60.778l2.014-.183 5.95-.549 10.434-.915 5.034-.458 1.648-.183v-18.948l1.465-.091v18.947l2.013-.183 5.95-.549 8.421-.732 8.787-.732 11.259-1.007 3.478-.275 1.19-.091.366-1.099 1.19-3.295 1.465-4.211 6.224-.549 1.007 2.838 1.464 3.936.458 1.281 1.373-.091 4.21-.367 11.442-1.006 7.414-.641 2.472-.183-.916-2.289-2.837-6.865-18.307-44.485-1.556-3.753-.458-1.373zm-102.059 8.879l-2.014.183-5.95.549-8.604.733-2.654.274-.915.092-.458.732-1.465 2.288-5.95 9.245v-11.533l-2.013.183-5.95.549-10.434.916-5.035.366-1.647.183v60.778l2.013-.183 5.95-.549 8.787-.733 2.655-.274.915-.092.458-.732 1.464-2.288 6.041-9.337v11.625l2.014-.183 5.95-.549 10.252-.916 5.034-.457 1.648-.183v-60.687h-.092z" fill="#000"/><path d="M33.318 106.27c-6.682.549-12.448-1.281-17.117-5.492-4.668-4.21-7.048-9.703-7.048-16.384 0-6.682 2.38-12.54 7.048-17.575 4.669-5.034 10.435-7.872 17.117-8.42 6.774-.55 12.54 1.19 17.117 5.4 4.668 4.21 6.956 9.61 6.956 16.476 0 6.773-2.288 12.631-6.956 17.665-4.577 4.943-10.343 7.781-17.117 8.33zm0-38.444c-3.844.366-7.048 2.014-9.702 5.126-2.563 3.112-3.936 6.59-3.936 10.435 0 3.844 1.281 7.14 3.936 9.885 2.563 2.655 5.858 3.845 9.702 3.479 3.936-.367 7.231-2.106 9.794-5.31 2.471-3.02 3.753-6.498 3.753-10.526 0-3.936-1.282-7.23-3.844-9.794-2.563-2.471-5.767-3.661-9.703-3.295zm56.202-4.21l-9.154.823v36.888l-10.435.916V65.355l-9.061.823v-9.336l28.74-2.471v9.245h-.09zm44.21 41.922l-9.428.824v-8.97l-25.08 2.196v8.97l-9.428.824V91.167l4.028-.366 11.99-37.895 11.9-1.007 11.991 35.79 4.119-.366v18.215h-.092zm-14.554-16.934l-7.414-23.799-7.414 25.08 14.828-1.28zm51.991-9.611c0 4.851-1.648 8.604-5.034 11.442-3.021 2.471-6.957 3.936-11.991 4.393l-13.364 1.19V49.886l10.435-.916v17.21c6.041-.55 10.618 0 13.821 1.556 4.028 1.922 6.133 5.675 6.133 11.258zm-10.069.824c0-2.288-.732-3.753-2.105-4.577-1.098-.64-2.837-.823-5.309-.64l-2.471.183v10.984l2.471-.183c4.943-.367 7.414-2.289 7.414-5.767zm24.074 12.265l-10.435.916V46.865l10.435-.915v46.132zm51.167-4.485l-11.9 1.007-10.343-15.927-10.069 17.666-11.716 1.007 15.927-25.72-14.462-20.596 11.991-1.006 8.695 13.546 8.421-15.011 11.991-1.007-14.279 23.341 15.744 22.7zm75.331-21.052c0 9.427-5.675 14.645-16.933 15.652l-15.469 1.373V37.437l15.286-1.373c4.302-.366 7.78.183 10.343 1.83 3.021 1.831 4.485 4.76 4.485 8.88 0 4.301-1.739 7.597-5.309 9.794 5.035 1.19 7.597 4.576 7.597 9.977zm-12.448-17.392c0-2.837-1.831-4.027-5.401-3.752l-4.393.366v9.153l3.936-.366c3.844-.366 5.858-2.105 5.858-5.4zm-9.794 13.822v10.343l5.583-.458c4.302-.366 6.499-2.288 6.499-5.766s-2.105-5.034-6.316-4.668l-5.766.549zm78.535-24.073l-13.821 1.19v36.887l-10.435.916V31.762l24.256-2.105v9.245zm26.728 35.423c-6.682.55-12.448-1.282-17.117-5.492-4.668-4.21-7.048-9.703-7.048-16.384 0-6.682 2.38-12.54 7.048-17.575 4.669-5.034 10.435-7.872 17.117-8.42 6.774-.55 12.54 1.189 17.117 5.4 4.668 4.21 6.956 9.61 6.956 16.476 0 6.773-2.288 12.631-6.956 17.665-4.668 4.943-10.343 7.78-17.117 8.33zm0-38.444c-3.844.366-7.048 2.014-9.702 5.126-2.563 3.112-3.936 6.59-3.936 10.435 0 3.844 1.281 7.14 3.936 9.885 2.563 2.655 5.858 3.845 9.702 3.478 3.936-.366 7.231-2.105 9.794-5.308 2.472-3.021 3.753-6.5 3.753-10.527 0-3.936-1.281-7.23-3.844-9.794-2.563-2.471-5.767-3.661-9.703-3.295zm43.387 33.776l-10.435.915V24.44l16.11-1.373c5.217-.457 9.245.458 12.265 2.746 3.204 2.38 4.76 6.225 4.76 11.35 0 5.126-1.648 9.154-5.034 12.083-3.021 2.563-7.231 4.119-12.632 4.577l-4.943.457v15.378h-.091zm0-36.888V44.85l4.668-.366c5.217-.457 7.78-2.746 7.78-6.773 0-3.936-2.563-5.767-7.78-5.31l-4.668.367zm52.448 33.135c-6.682.55-12.448-1.282-17.116-5.492-4.669-4.21-7.048-9.703-7.048-16.384 0-6.682 2.379-12.54 7.048-17.575 4.668-5.034 10.434-7.872 17.116-8.421 6.774-.55 12.54 1.19 17.117 5.4 4.668 4.211 6.957 9.612 6.957 16.476 0 6.774-2.289 12.632-6.957 17.666-4.668 4.943-10.343 7.78-17.117 8.33zm0-38.444c-3.844.366-7.048 2.014-9.702 5.126-2.563 3.112-3.936 6.59-3.936 10.435 0 3.844 1.281 7.14 3.936 9.885 2.563 2.655 5.858 3.845 9.702 3.478 3.936-.366 7.231-2.105 9.794-5.309 2.472-3.02 3.753-6.498 3.753-10.526 0-3.936-1.281-7.23-3.844-9.794-2.563-2.471-5.767-3.57-9.703-3.295zm71.762 40.275l-9.428.823v-8.97l-25.08 2.197v8.97l-9.428.824V53.364l4.028-.366 11.991-37.895 11.899-1.007 11.991 35.79 4.119-.367v18.216h-.092zM547.735 50.8l-7.415-23.799-7.414 25.172 14.829-1.373zm46.773 5.127l-25.172 2.197V11.99l25.172-2.197v9.245l-14.737 1.281v8.696l14.462-1.281v9.244l-14.462 1.465v9.428l14.737-1.282v9.337zM49.61 202.838l-10.25.915v-28.467l-19.497 30.206-8.788.732v-46.132l10.435-.916v28.284l19.497-30.023 8.604-.732v46.133zm70.939-6.225l-10.435.916v-18.948l-16.11 1.373v18.948l-10.434.915v-46.133l10.435-.915v17.849l16.109-1.373v-17.849l10.435-.915v46.132zm52.083-4.576l-11.442 1.006-2.929-8.054-16.568 1.464-3.112 8.604-11.258 1.007 18.398-47.78 8.604-.732 18.307 44.485zm-17.3-15.378l-5.218-16.11-5.492 17.025 10.71-.915zm83.112 9.611l-10.435.915v-36.887l-15.194 1.372v36.888l-10.435.916v-46.133l36.064-3.112v46.041zm21.236-1.831l-10.435.916v-46.133l16.11-1.373c5.217-.458 9.245.458 12.265 2.746 3.204 2.38 4.76 6.224 4.76 11.35 0 5.126-1.648 9.153-5.034 12.082-3.021 2.563-7.232 4.119-12.632 4.577l-4.943.458v15.377h-.091zm0-36.796v12.082l4.668-.366c5.217-.457 7.78-2.746 7.78-6.773 0-3.936-2.563-5.767-7.78-5.309l-4.668.366zm68.741 30.755l-10.252.916v-28.467l-19.496 30.206-8.787.732v-46.133l10.434-.915v28.284l19.497-29.932 8.604-.732v46.041zm21.327-1.83l-10.435.915V131.35l16.11-1.373c5.218-.458 9.245.458 12.266 2.746 3.203 2.38 4.759 6.224 4.759 11.35 0 5.126-1.647 9.154-5.034 12.083-3.02 2.563-7.231 4.119-12.631 4.576l-4.943.458v15.378h-.092zm0-36.888v12.082l4.668-.366c5.218-.458 7.781-2.746 7.781-6.774 0-3.935-2.563-5.766-7.781-5.309l-4.668.367zm52.449 33.226c-6.682.549-12.449-1.281-17.117-5.492-4.668-4.21-7.048-9.702-7.048-16.384s2.38-12.54 7.048-17.575c4.668-5.034 10.435-7.871 17.117-8.421 6.773-.549 12.54 1.19 17.116 5.401 4.669 4.21 6.957 9.611 6.957 16.476 0 6.773-2.288 12.631-6.957 17.666-4.668 4.851-10.343 7.688-17.116 8.329zm0-38.444c-3.845.366-7.048 2.014-9.703 5.126-2.563 3.112-3.936 6.59-3.936 10.435 0 3.844 1.282 7.139 3.936 9.885 2.563 2.655 5.858 3.845 9.703 3.479 3.936-.366 7.231-2.106 9.794-5.309 2.471-3.021 3.753-6.499 3.753-10.527 0-3.935-1.282-7.231-3.845-9.794-2.563-2.562-5.766-3.661-9.702-3.295zm71.762 40.183l-9.428.824v-8.97l-25.08 2.197v8.97l-9.428.824v-18.307l4.027-.366 11.991-37.895 11.9-1.007 11.99 35.79 4.119-.366v18.306h-.091zm-14.554-16.933l-7.414-23.799-7.414 25.172 14.828-1.373zm46.773 5.126l-25.171 2.196v-46.132l25.171-2.197v9.245l-14.736 1.281v8.696l14.462-1.282v9.245l-14.462 1.282v9.428l14.736-1.282v9.52z" fill="#22B4AF"/><path d="M31.487 104.439c-6.681.55-12.448-1.281-17.116-5.492-4.669-4.21-7.048-9.702-7.048-16.384s2.38-12.54 7.048-17.574c4.668-5.035 10.434-7.872 17.116-8.422 6.774-.549 12.54 1.19 17.117 5.401 4.668 4.21 6.957 9.61 6.957 16.476 0 6.773-2.289 12.632-6.957 17.666-4.577 4.943-10.343 7.78-17.117 8.329zm0-38.444c-3.844.367-7.048 2.014-9.702 5.126-2.563 3.112-3.936 6.59-3.936 10.435 0 3.844 1.281 7.14 3.936 9.886 2.563 2.654 5.858 3.844 9.702 3.478 3.936-.366 7.232-2.105 9.794-5.309 2.472-3.02 3.753-6.499 3.753-10.526 0-3.936-1.281-7.231-3.844-9.794-2.563-2.472-5.767-3.662-9.703-3.296zm56.202-4.21l-9.153.824v36.888l-10.435.915V63.524l-9.062.824V55.01l28.741-2.47v9.244h-.091zm44.21 41.922l-9.428.824v-8.97l-25.08 2.196v8.971l-9.428.824V89.336l4.028-.366 11.991-37.895 11.899-1.006 11.991 35.79 4.119-.367v18.215h-.092zm-14.553-16.933l-7.415-23.8-7.414 25.08 14.829-1.28zm51.99-9.612c0 4.852-1.647 8.605-5.034 11.442-3.021 2.472-6.956 3.936-11.991 4.394l-13.364 1.19V48.055l10.435-.915v17.208c6.041-.55 10.618 0 13.822 1.556 4.027 1.922 6.132 5.675 6.132 11.258zm-10.068.824c0-2.288-.733-3.753-2.106-4.576-1.098-.641-2.837-.824-5.308-.641l-2.472.183v10.984l2.472-.183c4.942-.366 7.414-2.288 7.414-5.767zm24.073 12.266l-10.435.915V45.034l10.435-.915v46.133zm51.167-4.485l-11.899 1.007-10.344-15.927-10.068 17.666-11.717 1.006 15.927-25.72-14.462-20.595 11.991-1.007 8.695 13.547 8.422-15.012 11.99-1.007-14.279 23.341 15.744 22.7zm75.332-21.053c0 9.428-5.675 14.645-16.934 15.652l-15.469 1.373V35.606l15.286-1.373c4.302-.366 7.78.184 10.343 1.831 3.021 1.83 4.485 4.76 4.485 8.879 0 4.302-1.739 7.597-5.308 9.794 5.034 1.19 7.597 4.576 7.597 9.977zm-12.449-17.391c0-2.838-1.83-4.028-5.4-3.753l-4.394.366v9.153l3.936-.366c3.845-.366 5.858-2.105 5.858-5.4zm-9.794 13.821v10.343l5.584-.457c4.302-.366 6.499-2.289 6.499-5.767s-2.106-5.034-6.316-4.668l-5.767.55zm78.536-24.073l-13.822 1.19v36.888l-10.435.915V29.931l24.257-2.105v9.245zm26.727 35.423c-6.681.55-12.448-1.281-17.116-5.492-4.668-4.21-7.048-9.702-7.048-16.384s2.38-12.54 7.048-17.575c4.668-5.034 10.435-7.871 17.116-8.42 6.774-.55 12.54 1.19 17.117 5.4 4.668 4.21 6.957 9.61 6.957 16.476 0 6.773-2.289 12.631-6.957 17.666-4.668 4.943-10.343 7.78-17.117 8.33zm0-38.444c-3.844.367-7.048 2.014-9.702 5.126-2.563 3.112-3.936 6.59-3.936 10.435 0 3.844 1.281 7.14 3.936 9.886 2.563 2.654 5.858 3.844 9.702 3.478 3.936-.366 7.232-2.105 9.794-5.31 2.472-3.02 3.753-6.498 3.753-10.525 0-3.936-1.281-7.232-3.844-9.794-2.563-2.472-5.767-3.662-9.703-3.296zm43.387 33.776l-10.435.915V22.61l16.11-1.373c5.217-.458 9.245.457 12.266 2.746 3.203 2.38 4.759 6.224 4.759 11.35 0 5.126-1.647 9.153-5.034 12.082-3.021 2.563-7.231 4.12-12.632 4.577l-4.942.458v15.377h-.092zm0-36.888v12.083l4.668-.367c5.218-.457 7.781-2.746 7.781-6.773 0-3.936-2.563-5.767-7.781-5.309l-4.668.366zm52.449 33.135c-6.682.55-12.449-1.281-17.117-5.492-4.668-4.21-7.048-9.702-7.048-16.384s2.38-12.54 7.048-17.575c4.668-5.034 10.435-7.871 17.117-8.42 6.773-.55 12.54 1.19 17.116 5.4 4.669 4.21 6.957 9.61 6.957 16.476 0 6.773-2.288 12.631-6.957 17.666-4.668 4.943-10.343 7.78-17.116 8.33zm0-38.444c-3.845.366-7.048 2.014-9.703 5.126-2.563 3.112-3.936 6.59-3.936 10.435 0 3.844 1.282 7.14 3.936 9.886 2.563 2.654 5.858 3.844 9.703 3.478 3.936-.366 7.231-2.105 9.794-5.31 2.471-3.02 3.753-6.498 3.753-10.526 0-3.935-1.282-7.23-3.845-9.794-2.563-2.47-5.766-3.57-9.702-3.295zm71.762 40.275l-9.428.824v-8.97l-25.08 2.196v8.97l-9.428.824V51.533l4.027-.366 11.991-37.895 11.899-1.007 11.991 35.79 4.119-.366v18.215h-.091zM545.904 48.97l-7.414-23.798-7.414 25.171 14.828-1.373zm46.773 5.126l-25.171 2.197V10.16l25.171-2.197v9.245l-14.736 1.282v8.695l14.462-1.281v9.245l-14.462 1.464v9.428l14.736-1.281v9.336zM47.78 201.007l-10.251.915v-28.467l-19.497 30.206-8.787.733v-46.133l10.435-.915v28.283l19.496-30.023 8.604-.732v46.133zm70.939-6.224l-10.435.915v-18.947l-16.11 1.373v18.947l-10.435.915v-46.132l10.435-.916v17.849l16.11-1.373v-17.849l10.435-.915v46.133zm52.082-4.577l-11.442 1.007-2.929-8.055-16.567 1.464-3.112 8.605-11.259 1.006 18.398-47.78 8.604-.732 18.307 44.485zm-17.3-15.378l-5.217-16.109-5.492 17.025 10.709-.916zm83.112 9.611l-10.435.916v-36.888l-15.194 1.373v36.888l-10.435.915V141.51l36.064-3.112v46.041zm21.236-1.83l-10.435.915v-46.133l16.11-1.373c5.217-.457 9.245.458 12.265 2.746 3.204 2.38 4.76 6.225 4.76 11.35 0 5.126-1.647 9.154-5.034 12.083-3.021 2.563-7.231 4.119-12.632 4.576l-4.942.458v15.378h-.092zm0-36.797v12.083l4.668-.366c5.218-.458 7.78-2.746 7.78-6.774 0-3.936-2.562-5.766-7.78-5.309l-4.668.366zm68.741 30.756l-10.251.915v-28.467l-19.497 30.206-8.787.732v-46.132l10.435-.916v28.284l19.496-29.931 8.604-.733v46.042zm21.328-1.831l-10.435.915v-46.133l16.11-1.373c5.217-.457 9.245.458 12.265 2.746 3.204 2.38 4.76 6.225 4.76 11.351 0 5.125-1.648 9.153-5.034 12.082-3.021 2.563-7.232 4.119-12.632 4.577l-4.943.457v15.378h-.091zm0-36.888v12.082l4.668-.366c5.217-.457 7.78-2.746 7.78-6.773 0-3.936-2.563-5.767-7.78-5.309l-4.668.366zm52.448 33.227c-6.682.549-12.448-1.282-17.117-5.492-4.668-4.211-7.048-9.703-7.048-16.385 0-6.682 2.38-12.54 7.048-17.574 4.669-5.035 10.435-7.872 17.117-8.421 6.774-.549 12.54 1.19 17.117 5.4 4.668 4.211 6.956 9.611 6.956 16.476 0 6.774-2.288 12.632-6.956 17.666-4.668 4.851-10.343 7.689-17.117 8.33zm0-38.444c-3.844.366-7.048 2.013-9.702 5.125-2.563 3.113-3.936 6.591-3.936 10.435 0 3.845 1.281 7.14 3.936 9.886 2.563 2.654 5.858 3.844 9.702 3.478 3.936-.366 7.231-2.105 9.794-5.309 2.472-3.02 3.753-6.499 3.753-10.526 0-3.936-1.281-7.231-3.844-9.794-2.563-2.563-5.767-3.662-9.703-3.295zm71.762 40.183l-9.428.823v-8.97l-25.08 2.197v8.97l-9.428.824v-18.307l4.028-.366 11.991-37.894 11.899-1.007 11.991 35.789 4.119-.366v18.307h-.092zm-14.554-16.934l-7.414-23.799-7.414 25.172 14.828-1.373zm46.774 5.126l-25.172 2.197v-46.133l25.172-2.197v9.245l-14.737 1.281v8.696l14.462-1.281v9.244l-14.462 1.282v9.428l14.737-1.282v9.52z" fill="#000"/></svg>