<svg width="600" height="316" viewBox="0 0 600 316" fill="none" xmlns="http://www.w3.org/2000/svg">
<path d="M354 284.63L2 315.4V244.162L354 213.392V284.63Z" fill="#E84C0A"/>
<path d="M58.1498 275.886C58.1498 280.436 56.6532 284.327 53.6001 287.559C50.5471 290.852 46.7756 292.648 42.226 293.067C39.113 293.366 36.2396 292.708 33.7253 291.151C31.211 289.595 29.2954 287.44 28.0981 284.626L35.7607 283.968C37.4368 286.123 39.6518 287.081 42.4654 286.841C44.5607 286.661 46.3566 285.883 47.8532 284.506C49.4096 283.129 50.3675 281.453 50.8464 279.358L39.2926 280.376V274.749L50.9062 273.731C50.4872 271.755 49.4695 270.259 47.913 269.181C46.3566 268.104 44.5607 267.685 42.4654 267.864C39.592 268.104 37.3171 269.481 35.7008 271.995L28.0382 272.653C29.2355 269.481 31.0913 266.966 33.6654 264.991C36.2396 263.075 39.1729 261.938 42.4654 261.638C46.8954 261.279 50.6069 262.417 53.66 265.11C56.6532 267.924 58.1498 271.456 58.1498 275.886Z" fill="black"/>
<path d="M73.415 289.774L67.1293 290.313V273.491L61.7416 273.97V269.002L78.7429 267.505V272.474L73.3552 272.953V289.774H73.415Z" fill="black"/>
<path d="M93.8885 265.529C97.2409 265.23 100.054 266.068 102.329 268.044C104.544 270.019 105.682 272.653 105.682 276.006C105.682 279.358 104.544 282.232 102.329 284.566C100.114 286.961 97.3007 288.278 93.8885 288.577C90.5361 288.876 87.7824 288.038 85.5075 286.003C83.2327 284.027 82.1552 281.334 82.1552 278.041C82.1552 274.689 83.2926 271.875 85.5075 269.54C87.7824 267.146 90.596 265.829 93.8885 265.529ZM99.6354 276.604C99.6354 274.868 99.0967 273.491 98.079 272.414C97.0014 271.336 95.6844 270.917 93.9483 271.037C92.2722 271.157 90.8953 271.875 89.8776 273.132C88.8001 274.389 88.3211 275.886 88.3211 277.562C88.3211 279.238 88.8599 280.615 89.9375 281.633C91.015 282.71 92.332 283.129 94.0082 283.01C95.6844 282.89 97.0613 282.172 98.1388 280.974C99.0966 279.717 99.6354 278.28 99.6354 276.604Z" fill="black"/>
<path d="M135.793 284.327L129.508 284.866V267.984L124.12 268.463V263.554L141.121 262.057V267.026L135.733 267.505V284.327H135.793Z" fill="black"/>
<path d="M164.169 275.527C164.169 279.717 161.116 282.052 155.069 282.591L145.731 283.429V261.638L155.249 260.8C160.457 260.321 163.091 262.057 163.091 265.889C163.091 267.864 162.193 269.361 160.397 270.498V270.558C162.912 271.396 164.169 273.072 164.169 275.527ZM156.746 267.086C156.746 265.769 155.967 265.17 154.411 265.29L151.837 265.529V269.78L154.231 269.6C155.908 269.361 156.746 268.583 156.746 267.086ZM157.464 275.766C157.464 274.09 156.446 273.372 154.471 273.551L151.837 273.791V278.34L154.83 278.101C156.626 277.921 157.464 277.143 157.464 275.766Z" fill="black"/>
<path d="M180.212 257.987C183.565 257.687 186.378 258.525 188.653 260.501C190.868 262.476 192.006 265.11 192.006 268.463C192.006 271.815 190.868 274.689 188.653 277.023C186.438 279.418 183.625 280.735 180.212 281.034C176.86 281.334 174.106 280.495 171.831 278.46C169.557 276.485 168.479 273.791 168.479 270.498C168.479 267.146 169.616 264.332 171.831 261.998C174.106 259.603 176.92 258.226 180.212 257.987ZM185.959 269.002C185.959 267.266 185.421 265.889 184.403 264.811C183.325 263.734 182.008 263.315 180.272 263.434C178.596 263.554 177.219 264.272 176.201 265.529C175.124 266.787 174.645 268.283 174.645 269.959C174.645 271.636 175.184 273.012 176.261 274.03C177.339 275.108 178.656 275.527 180.332 275.407C182.008 275.287 183.385 274.569 184.463 273.372C185.421 272.174 185.959 270.738 185.959 269.002Z" fill="black"/>
<path d="M207.45 255.532C210.025 255.293 212.299 255.831 214.215 257.029C216.131 258.286 217.448 260.082 218.226 262.476C218.645 263.793 218.884 265.35 218.884 267.206C218.884 267.385 218.884 267.685 218.825 267.984L202.003 269.48C202.542 272.534 204.397 273.91 207.69 273.611C209.965 273.431 211.461 272.474 212.18 270.797L218.525 270.259C217.627 272.653 216.191 274.569 214.275 276.125C212.359 277.622 210.144 278.52 207.69 278.759C204.338 279.059 201.524 278.221 199.429 276.245C197.274 274.27 196.196 271.576 196.196 268.223C196.196 265.051 197.274 262.237 199.489 259.782C201.584 257.208 204.278 255.831 207.45 255.532ZM205.834 253.018L200.267 253.497V248.049L205.834 247.57V253.018ZM212.898 264.332C212.18 261.578 210.384 260.381 207.51 260.621C204.637 260.86 202.841 262.417 202.063 265.29L212.898 264.332ZM214.754 252.24L209.127 252.719V247.271L214.754 246.792V252.24Z" fill="black"/>
<path d="M258.455 273.551L252.289 274.09L247.799 260.202L243.249 274.928L237.203 275.467L244.746 253.018L250.852 252.479L258.455 273.551Z" fill="black"/>
<path d="M272.942 249.785C275.516 249.546 277.791 250.085 279.706 251.282C281.622 252.539 282.939 254.335 283.717 256.729C284.136 258.046 284.376 259.603 284.376 261.459C284.376 261.638 284.376 261.938 284.316 262.237L267.494 263.734C268.033 266.787 269.888 268.163 273.181 267.864C275.456 267.685 276.952 266.727 277.671 265.051L284.016 264.512C283.118 266.906 281.682 268.822 279.766 270.378C277.85 271.875 275.635 272.773 273.181 273.012C269.829 273.312 267.015 272.474 264.92 270.498C262.765 268.523 261.687 265.829 261.687 262.476C261.687 259.304 262.765 256.49 264.98 254.036C267.075 251.461 269.769 250.085 272.942 249.785ZM278.449 258.585C277.731 255.832 275.935 254.634 273.061 254.874C270.188 255.113 268.392 256.67 267.614 259.543L278.449 258.585Z" fill="black"/>
<path d="M299.401 270.019L293.116 270.558V253.676L287.728 254.155V249.187L304.729 247.69V252.659L299.342 253.138V270.019H299.401Z" fill="black"/>
<path d="M319.935 245.715C323.287 245.415 326.101 246.253 328.376 248.229C330.591 250.204 331.728 252.838 331.728 256.191C331.728 259.543 330.591 262.417 328.376 264.751C326.161 267.146 323.347 268.463 319.935 268.762C316.582 269.061 313.829 268.223 311.554 266.188C309.279 264.212 308.201 261.519 308.201 258.226C308.201 254.874 309.339 252.06 311.554 249.725C313.769 247.331 316.582 246.014 319.935 245.715ZM325.622 256.789C325.622 255.053 325.083 253.676 324.065 252.599C322.988 251.521 321.671 251.102 319.935 251.222C318.259 251.342 316.882 252.06 315.864 253.317C314.786 254.574 314.308 256.071 314.308 257.747C314.308 259.423 314.846 260.8 315.924 261.818C317.001 262.895 318.318 263.315 319.995 263.195C321.671 263.075 323.048 262.357 324.125 261.159C325.083 259.962 325.622 258.525 325.622 256.789Z" fill="black"/>
<path d="M56.2367 273.016C56.2367 277.566 54.7401 281.457 51.687 284.69C48.634 287.982 44.8625 289.778 40.3129 290.197C37.2 290.497 34.3265 289.838 31.8122 288.282C29.2979 286.725 27.3823 284.57 26.185 281.756L33.8476 281.098C35.5238 283.253 37.7387 284.211 40.5523 283.971C42.6476 283.792 44.4435 283.014 45.9401 281.637C47.4966 280.26 48.4544 278.584 48.9333 276.488L37.3795 277.506V271.879L48.9932 270.861C48.5741 268.886 47.5564 267.389 46 266.312C44.4435 265.234 42.6476 264.815 40.5523 264.995C37.6789 265.234 35.404 266.611 33.7877 269.125L26.1251 269.784C27.3224 266.611 29.1782 264.097 31.7523 262.121C34.3265 260.205 37.2598 259.068 40.5523 258.769C44.9823 258.41 48.6938 259.547 51.7469 262.241C54.7401 265.054 56.2367 268.586 56.2367 273.016Z" fill="white"/>
<path d="M71.502 286.905L65.2162 287.444V270.622L59.8285 271.101V266.132L76.8299 264.635V269.604L71.4421 270.083V286.905H71.502Z" fill="white"/>
<path d="M91.9754 262.66C95.3278 262.361 98.1414 263.199 100.416 265.174C102.631 267.15 103.769 269.784 103.769 273.136C103.769 276.488 102.631 279.362 100.416 281.697C98.2012 284.091 95.3876 285.408 91.9754 285.708C88.623 286.007 85.8693 285.169 83.5945 283.133C81.3196 281.158 80.2421 278.464 80.2421 275.171C80.2421 271.819 81.3795 269.005 83.5945 266.671C85.8693 264.276 88.6829 262.959 91.9754 262.66ZM97.7223 273.735C97.7223 271.999 97.1836 270.622 96.1659 269.544C95.0883 268.467 93.7713 268.048 92.0353 268.167C90.3591 268.287 88.9822 269.005 87.9645 270.263C86.887 271.52 86.4081 273.016 86.4081 274.693C86.4081 276.369 86.9468 277.746 88.0244 278.763C89.1019 279.841 90.4189 280.26 92.0951 280.14C93.7713 280.02 95.1482 279.302 96.2257 278.105C97.1836 276.848 97.7223 275.411 97.7223 273.735Z" fill="white"/>
<path d="M133.88 281.457L127.595 281.996V265.114L122.207 265.593V260.684L139.208 259.188V264.157L133.82 264.635V281.457H133.88Z" fill="white"/>
<path d="M162.256 272.657C162.256 276.848 159.203 279.182 153.156 279.721L143.818 280.559V258.769L153.336 257.931C158.544 257.452 161.178 259.188 161.178 263.019C161.178 264.995 160.28 266.491 158.484 267.629V267.688C160.999 268.527 162.256 270.203 162.256 272.657ZM154.833 264.216C154.833 262.899 154.054 262.301 152.498 262.42L149.924 262.66V266.91L152.318 266.731C153.995 266.491 154.833 265.713 154.833 264.216ZM155.551 272.897C155.551 271.22 154.533 270.502 152.558 270.682L149.924 270.921V275.471L152.917 275.231C154.713 275.052 155.551 274.274 155.551 272.897Z" fill="white"/>
<path d="M178.299 255.117C181.652 254.818 184.465 255.656 186.74 257.631C188.955 259.607 190.092 262.241 190.092 265.593C190.092 268.946 188.955 271.819 186.74 274.154C184.525 276.548 181.712 277.865 178.299 278.165C174.947 278.464 172.193 277.626 169.918 275.591C167.643 273.615 166.566 270.921 166.566 267.629C166.566 264.276 167.703 261.463 169.918 259.128C172.193 256.733 175.007 255.357 178.299 255.117ZM184.046 266.132C184.046 264.396 183.507 263.019 182.49 261.942C181.412 260.864 180.095 260.445 178.359 260.565C176.683 260.684 175.306 261.403 174.288 262.66C173.211 263.917 172.732 265.414 172.732 267.09C172.732 268.766 173.271 270.143 174.348 271.161C175.426 272.238 176.743 272.657 178.419 272.537C180.095 272.418 181.472 271.699 182.55 270.502C183.507 269.305 184.046 267.868 184.046 266.132Z" fill="white"/>
<path d="M205.537 252.663C208.112 252.423 210.386 252.962 212.302 254.159C214.218 255.416 215.535 257.212 216.313 259.607C216.732 260.924 216.971 262.48 216.971 264.336C216.971 264.516 216.971 264.815 216.912 265.114L200.09 266.611C200.629 269.664 202.484 271.041 205.777 270.742C208.052 270.562 209.548 269.604 210.267 267.928L216.612 267.389C215.714 269.784 214.278 271.699 212.362 273.256C210.446 274.752 208.231 275.65 205.777 275.89C202.424 276.189 199.611 275.351 197.516 273.376C195.361 271.4 194.283 268.706 194.283 265.354C194.283 262.181 195.361 259.367 197.575 256.913C199.671 254.339 202.365 252.962 205.537 252.663ZM203.921 250.148L198.354 250.627V245.18L203.921 244.701V250.148ZM210.985 261.463C210.267 258.709 208.471 257.512 205.597 257.751C202.724 257.991 200.928 259.547 200.15 262.42L210.985 261.463ZM212.841 249.37L207.214 249.849V244.401L212.841 243.922V249.37Z" fill="white"/>
<path d="M256.541 270.682L250.375 271.22L245.886 257.332L241.336 272.059L235.29 272.597L242.833 250.148L248.939 249.61L256.541 270.682Z" fill="white"/>
<path d="M271.028 246.916C273.603 246.676 275.877 247.215 277.793 248.412C279.709 249.669 281.026 251.465 281.804 253.86C282.223 255.177 282.462 256.733 282.462 258.589C282.462 258.769 282.462 259.068 282.403 259.367L265.581 260.864C266.12 263.917 267.975 265.294 271.268 264.995C273.543 264.815 275.039 263.857 275.758 262.181L282.103 261.642C281.205 264.037 279.769 265.952 277.853 267.509C275.937 269.005 273.722 269.903 271.268 270.143C267.916 270.442 265.102 269.604 263.007 267.629C260.852 265.653 259.774 262.959 259.774 259.607C259.774 256.434 260.852 253.62 263.067 251.166C265.162 248.592 267.856 247.215 271.028 246.916ZM276.536 255.716C275.818 252.962 274.022 251.765 271.148 252.004C268.275 252.244 266.479 253.8 265.701 256.673L276.536 255.716Z" fill="white"/>
<path d="M297.488 267.15L291.203 267.688V250.807L285.815 251.286V246.317L302.816 244.82V249.789L297.429 250.268V267.15H297.488Z" fill="white"/>
<path d="M318.022 242.845C321.374 242.546 324.188 243.384 326.462 245.359C328.677 247.335 329.815 249.969 329.815 253.321C329.815 256.674 328.677 259.547 326.462 261.882C324.248 264.276 321.434 265.593 318.022 265.893C314.669 266.192 311.916 265.354 309.641 263.318C307.366 261.343 306.288 258.649 306.288 255.356C306.288 252.004 307.426 249.191 309.641 246.856C311.856 244.461 314.669 243.144 318.022 242.845ZM323.709 253.92C323.709 252.184 323.17 250.807 322.152 249.729C321.075 248.652 319.758 248.233 318.022 248.352C316.345 248.472 314.969 249.191 313.951 250.448C312.873 251.705 312.394 253.201 312.394 254.878C312.394 256.554 312.933 257.931 314.011 258.948C315.088 260.026 316.405 260.445 318.082 260.325C319.758 260.205 321.135 259.487 322.212 258.29C323.17 257.093 323.709 255.656 323.709 253.92Z" fill="white"/>
<path d="M2.92901 152.311L26.1784 150.297V163.936L35.5148 149.474L54.1876 147.826V206.865L31.1212 208.879V195.149L21.6933 209.703L2.83748 211.35V152.311H2.92901ZM75.3318 145.995L98.5812 143.982V161.831L101.876 161.556V143.707L125.126 141.693V177.208L139.313 140.412L156.613 138.856L180.046 195.789L154.966 197.986L152.037 189.931L144.531 190.572L141.419 199.176L101.876 202.654V183.707L98.5812 183.982V202.929L75.3318 205.034V145.995ZM194.05 135.652L262.883 129.611C263.89 129.519 264.988 129.519 265.904 129.519C271.396 129.519 275.972 130.984 279.542 133.73C280.275 134.279 280.915 134.92 281.556 135.561V127.963L304.805 125.95V139.588L314.142 125.126L352.86 121.739C353.867 121.648 354.966 121.556 355.881 121.556C361.373 121.556 365.95 123.021 369.519 125.767C371.625 127.414 373.364 129.519 374.554 131.899C375.652 130.252 376.934 128.604 378.307 127.048C384.073 120.824 391.213 117.346 399.542 116.613C400.549 116.522 401.556 116.522 402.563 116.522C409.885 116.522 416.201 118.902 421.51 123.661C426.728 128.33 429.748 134.371 430.389 141.51L439.085 114.142L460.229 112.311L472.22 148.101H472.494V111.213L510.48 107.918V130.069H510.206V144.622H510.48V166.865L478.261 169.702V178.673L456.018 180.595V171.625L443.753 172.723V181.693L421.51 183.616V167.323C415.835 173.272 408.879 176.659 400.641 177.3C399.634 177.391 398.627 177.391 397.712 177.391C390.389 177.391 384.073 174.92 378.673 170.16C374.828 166.682 372.174 162.471 370.709 157.712C370.252 158.169 369.794 158.627 369.336 158.993C365.492 162.288 360.366 164.302 354.05 164.943V180.503L309.657 184.348V170.618L300.229 185.172L281.373 186.819V164.76C280.732 165.492 280 166.224 279.176 166.865C275.332 170.16 270.206 172.174 263.89 172.815V188.375L219.405 192.311V155.423L217.025 155.606V192.494L193.776 194.508V135.652H194.05ZM401.739 138.947C401.464 138.947 401.19 138.947 400.915 138.947C398.718 139.13 397.071 140.046 395.606 141.876C393.959 143.799 393.227 145.904 393.227 148.192C393.227 150.389 393.867 152.128 395.332 153.593C396.43 154.691 397.62 155.24 399.176 155.24C399.359 155.24 399.634 155.24 399.908 155.24C402.105 155.057 403.844 154.142 405.309 152.311C406.865 150.481 407.597 148.284 407.597 145.812C407.597 143.524 406.956 141.876 405.675 140.503C404.485 139.405 403.295 138.947 401.739 138.947ZM81.556 105.629L61.6933 107.368V83.0206C60.778 89.5194 58.032 95.286 53.3638 100.32C47.5972 106.545 40.4576 110.114 32.0366 110.847C31.0297 110.938 30.0228 110.938 29.1075 110.938C21.7848 110.938 15.4691 108.467 10.0686 103.707C4.02741 98.2151 0.915283 91.0755 0.915283 82.5629C0.915283 74.2334 3.84435 66.8192 9.70247 60.595C15.4691 54.3707 22.6086 50.8924 30.9382 50.1602C31.945 50.0686 32.9519 50.0687 33.9588 50.0687C41.0983 50.0687 47.3226 52.357 52.54 56.8421V49.1533L94.0961 45.492V61.0526L99.1304 45.1259L120.275 43.2952L132.265 79.0847H132.54V42.1968L155.789 40.1831V57.7574C159.817 57.9405 163.204 58.7643 166.041 60.1373C166.224 60.2288 166.316 60.3204 166.499 60.4119V39.1762L207.231 35.6064L212.265 43.3867L217.117 34.6911L245.126 32.2197L226.362 62.7918L246.041 91.167L219.313 93.5469L212.632 83.2952L206.133 94.7368L166.499 98.2151V95.0114C162.837 97.4828 158.261 98.9474 152.86 99.405L138.307 100.687V109.657L116.064 111.579V102.609L103.799 103.707V112.677L81.556 114.6V105.629ZM32.8604 72.3112C32.5858 72.3112 32.3112 72.3112 32.0366 72.3112C29.8398 72.4943 28.1922 73.4096 26.7276 75.2403C25.08 77.1625 24.3478 79.2677 24.3478 81.5561C24.3478 83.7529 24.9885 85.492 26.453 86.9565C27.5514 88.0549 28.7414 88.6041 30.2974 88.6041C30.4805 88.6041 30.7551 88.6041 31.0297 88.6041C33.2265 88.4211 34.9656 87.5057 36.4302 85.6751C37.9862 83.8444 38.7185 81.6476 38.7185 79.1762C38.7185 76.8879 38.0778 75.2403 36.7963 73.8673C35.6064 72.7689 34.4164 72.3112 32.8604 72.3112ZM84.9427 83.2037L87.1395 83.0206L91.8993 67.9176L84.8512 68.5584V83.2037H84.9427ZM189.748 78.7185L198.81 64.1648L189.748 51.3501V78.7185ZM61.0526 70.5721C61.3272 71.5789 61.5103 72.5858 61.6933 73.6842V70.4806L61.0526 70.5721ZM271.121 29.6568L292.174 27.8261C293.181 27.7346 294.188 27.7346 295.103 27.7346C299.496 27.7346 303.249 28.6499 306.362 30.5721C309.84 32.6773 313.867 36.8879 313.867 44.9428C313.867 47.9634 313.226 50.7094 312.037 53.1808C314.783 56.1098 316.156 60.0458 316.156 64.714C316.156 72.2197 313.227 85.0343 293.364 86.7735L270.938 88.6957V29.6568H271.121ZM335.378 24.0732L372.448 20.8696V27.1854C377.94 21.8764 384.622 18.9474 392.22 18.2151C393.226 18.1236 394.233 18.1236 395.24 18.1236C402.563 18.1236 408.879 20.5034 414.188 25.2632C416.293 27.0938 417.94 29.1991 419.313 31.4874V16.8421L441.281 14.9199C442.288 14.8284 443.387 14.8284 444.302 14.8284C449.794 14.8284 454.371 16.2929 457.94 19.0389C460.046 20.6865 461.785 22.7918 462.975 25.1716C464.073 23.524 465.355 21.8764 466.728 20.3204C472.494 14.0961 479.634 10.6179 487.963 9.88558C488.97 9.79405 489.977 9.79405 490.984 9.79405C498.307 9.79405 504.622 12.1739 509.931 16.9336C515.149 21.6018 518.169 27.643 518.81 34.7826L527.506 7.41419L548.65 5.58353L560.824 41.1899H561.098V4.30206L599.085 1.00687V23.1579H598.81V37.7117H599.085V59.9542L566.865 62.7918V71.762L544.622 73.6842V64.714L532.357 65.8124V74.7826L510.114 76.7048V60.5034C504.439 66.4531 497.483 69.8398 489.245 70.4806C488.238 70.5721 487.231 70.5721 486.316 70.5721C478.993 70.5721 472.677 68.1007 467.277 63.341C463.432 59.8627 460.778 55.6522 459.313 50.8924C458.856 51.3501 458.398 51.8078 457.94 52.1739C454.096 55.4691 448.97 57.4828 442.654 58.1236V73.6842L419.405 75.6979V61.8764C418.124 64.1648 416.567 66.3616 414.645 68.3753C408.879 74.5995 401.739 78.1693 393.318 78.9016C392.311 78.9931 391.304 78.9931 390.389 78.9931C383.066 78.9931 376.751 76.5217 371.35 71.762C365.309 66.27 362.197 59.1304 362.197 50.6179C362.197 48.3295 362.471 46.0412 362.929 43.8444L358.627 44.2105V81.0069L335.378 83.0206V24.0732ZM394.233 40.3661C393.959 40.3661 393.684 40.3661 393.41 40.3661C391.213 40.5492 389.565 41.4645 388.101 43.2952C386.453 45.2174 385.721 47.3227 385.721 49.611C385.721 51.8078 386.362 53.5469 387.826 55.0114C388.924 56.1098 390.114 56.659 391.67 56.659C391.853 56.659 392.128 56.659 392.403 56.659C394.599 56.476 396.339 55.5606 397.803 53.73C399.359 51.8993 400.091 49.7025 400.091 47.2311C400.091 44.9428 399.451 43.2952 398.169 41.9222C396.979 40.8238 395.789 40.3661 394.233 40.3661ZM490.069 32.0366C489.794 32.0366 489.519 32.0366 489.245 32.0366C487.048 32.2197 485.4 33.135 483.936 34.9657C482.288 36.8879 481.556 38.9931 481.556 41.2815C481.556 43.4783 482.197 45.2174 483.661 46.6819C484.76 47.7803 485.95 48.3295 487.506 48.3295C487.689 48.3295 487.963 48.3295 488.238 48.3295C490.435 48.1465 492.174 47.2311 493.638 45.4005C495.194 43.5698 495.927 41.373 495.927 38.9016C495.927 36.6133 495.286 34.9657 494.005 33.5927C492.815 32.4943 491.625 32.0366 490.069 32.0366Z" fill="white"/>
<path d="M598.169 2.01373V22.3341H597.895V38.7185H598.169V59.1304L593.135 59.5881L567.963 61.7849L565.95 61.968V70.9382L560.915 71.3959L551.487 72.2197L545.538 72.7689V63.7986L531.442 64.9886V73.9588L526.407 74.4165L516.979 75.2403L511.03 75.7895V58.1236C510.664 58.5812 510.297 59.0389 509.931 59.405C504.348 65.4462 497.391 68.9245 489.245 69.5652C488.238 69.6567 487.323 69.6567 486.407 69.6567C479.359 69.6567 473.135 67.2769 468.009 62.6087C463.799 58.8558 461.144 54.2792 459.863 48.9702C459.13 49.794 458.307 50.6178 457.391 51.4416C453.455 54.7368 448.238 56.659 441.831 57.2998V72.7689L436.796 73.2265L426.362 74.1419L420.412 74.6911V57.7574C419.039 61.3272 416.934 64.714 414.096 67.7346C408.513 73.7757 401.556 77.254 393.41 77.8947C392.403 77.9863 391.487 77.9863 390.572 77.9863C383.524 77.9863 377.3 75.6064 372.174 70.9382C366.316 65.6293 363.295 58.7643 363.295 50.4348C363.295 47.6888 363.661 45.1259 364.302 42.6545L357.895 43.2037V80.0915L352.86 80.5492L342.426 81.4645L336.476 82.0137V24.897L341.51 24.4394L365.767 22.3341L371.716 21.7849V29.2906L371.808 29.1991C377.483 23.1579 384.348 19.7712 392.403 19.0389C393.41 18.9474 394.416 18.9474 395.332 18.9474C402.38 18.9474 408.604 21.2357 413.638 25.8124C416.659 28.4668 418.856 31.6705 420.32 35.2403V17.5744L425.355 17.1167L441.465 15.7437C442.471 15.6522 443.478 15.6522 444.394 15.6522C449.611 15.6522 454.096 17.0252 457.483 19.6796C459.405 21.1442 461.602 23.524 462.975 27.0938C464.256 24.897 465.721 22.8833 467.551 20.8696C473.227 14.8284 480.092 11.4416 488.146 10.7094C489.153 10.6178 490.16 10.6178 491.076 10.6178C498.124 10.6178 504.348 12.9062 509.382 17.4828C515.24 22.7002 518.169 29.6567 518.169 37.9863C518.169 38.8101 518.169 39.5423 518.078 40.3661L527.14 11.6247L528.238 8.14645L531.899 7.87185L543.799 6.86499L548.101 6.49886L549.474 10.6178L560.183 42.1968L562.014 42.0137V5.12586L567.048 4.66819L592.22 2.56293L598.169 2.01373ZM487.414 49.2449C487.689 49.2449 487.963 49.2449 488.238 49.2449C490.709 49.0618 492.632 47.9634 494.279 45.9497C495.927 43.9359 496.751 41.5561 496.751 38.9016C496.751 36.3387 496.018 34.508 494.554 32.9519C493.364 31.762 491.991 31.2128 490.069 31.2128C489.794 31.2128 489.519 31.2128 489.153 31.2128C486.773 31.3959 484.851 32.4027 483.204 34.4165C481.465 36.5217 480.549 38.8101 480.549 41.373C480.549 43.8444 481.281 45.7666 482.929 47.4142C484.21 48.6041 485.583 49.2449 487.414 49.2449ZM441.739 36.9794C442.746 36.7963 443.112 36.5217 443.204 36.4302C443.204 36.3387 443.295 36.2471 443.295 36.0641C443.112 36.0641 442.838 36.0641 442.471 36.0641C442.288 36.0641 442.014 36.0641 441.739 36.0641V36.9794ZM391.579 57.5744C391.854 57.5744 392.128 57.5744 392.403 57.5744C394.874 57.3913 396.796 56.2929 398.444 54.2792C400.092 52.2654 400.915 49.8856 400.915 47.2311C400.915 44.6682 400.183 42.8375 398.719 41.2815C397.529 40.0915 396.156 39.5423 394.233 39.5423C393.959 39.5423 393.684 39.5423 393.318 39.5423C390.938 39.7254 389.016 40.7323 387.368 42.746C385.629 44.8513 384.714 47.1396 384.714 49.7025C384.714 52.1739 385.446 54.0961 387.094 55.7437C388.375 57.0252 389.748 57.5744 391.579 57.5744ZM295.194 28.6499C299.405 28.6499 303.066 29.5652 305.995 31.3959C309.199 33.4096 313.135 37.3455 313.135 44.9428C313.135 48.0549 312.403 50.8924 311.121 53.3638C313.959 56.1098 315.515 60.0458 315.515 64.714C315.515 71.8535 312.677 84.119 293.547 85.8581L278.078 87.2311L272.128 87.7803V30.5721L277.162 30.1144L292.449 28.7414C293.272 28.6499 294.279 28.6499 295.194 28.6499ZM243.478 33.4096L237.803 42.746L225.355 62.9748L239.085 82.746L244.485 90.5263L235.057 91.3501L223.158 92.357L219.863 92.6316L218.032 89.8856L212.632 81.5561L207.048 91.3501L205.584 93.8215L202.746 94.0961L191.03 95.103L188.833 95.286L183.799 95.7437L173.364 96.659L167.414 97.2082V93.1808C163.661 96.2014 158.719 97.9405 152.86 98.4897L139.497 99.6796L137.483 99.8627V108.833L132.449 109.291L123.021 110.114L117.071 110.664V101.602L102.975 102.883V111.854L97.9405 112.311L88.5126 113.135L82.5629 113.684V104.714L79.0847 104.989L68.6499 105.904L62.7002 106.453V69.4737L60.0458 69.7483C60.8696 72.4027 61.2357 75.2403 61.2357 78.3524C61.2357 86.4988 58.3982 93.73 52.8146 99.7712C47.2311 105.812 40.2746 109.291 32.1281 109.931C31.1213 110.023 30.2059 110.023 29.2906 110.023C22.2426 110.023 16.0183 107.643 10.8924 102.975C4.85126 97.7574 1.83066 90.8009 1.83066 82.5629C1.83066 74.4165 4.66819 67.2769 10.3432 61.2357C16.0183 55.1945 22.8833 51.8078 30.9382 51.0755C31.9451 50.984 32.9519 50.984 33.8673 50.984C40.9153 50.984 47.1396 53.2723 52.1739 57.849C52.54 58.2151 52.9977 58.5812 53.3638 58.9474V49.9771L58.3982 49.5194L87.1396 47.0481L93.0892 46.4989V66.8192L88.0549 67.2769L83.9359 67.643V84.2105L87.4142 83.9359H87.7803L98.6728 49.4279L99.7712 45.9497L103.432 45.6751L115.332 44.6682L119.634 44.3021L121.007 48.4211L131.625 80.0915L133.455 79.9085V43.0206L138.49 42.5629L148.924 41.6476L154.874 41.0984V58.5812C159.176 58.6728 162.746 59.405 165.584 60.8696C166.133 61.1442 166.773 61.5103 167.414 61.8764V40L172.449 39.5423L182.883 38.627L188.833 38.0778L191.487 37.8032L203.478 36.7963L206.773 36.5217L208.604 39.2677L212.357 45.1259L216.293 38.0778L217.666 35.5149L220.595 35.2403L232.586 34.2334L243.478 33.4096ZM188.833 81.9222L199.908 64.1648L188.833 48.4211V81.9222ZM30.2059 89.5194C30.4805 89.5194 30.7551 89.5194 31.0297 89.5194C33.5011 89.3364 35.4233 88.238 37.0709 86.2243C38.7185 84.2105 39.5423 81.8307 39.5423 79.1762C39.5423 76.6133 38.8101 74.7826 37.3455 73.2265C36.1556 72.0366 34.7826 71.4874 32.8604 71.4874C32.5858 71.4874 32.3112 71.4874 31.9451 71.4874C29.5652 71.6705 27.643 72.6773 25.9954 74.6911C24.2563 76.7963 23.341 79.0847 23.341 81.6476C23.341 84.119 24.0732 86.0412 25.7208 87.6888C27.0023 88.9703 28.3753 89.5194 30.2059 89.5194ZM509.84 108.924V129.245H509.565V145.629H509.84V166.041L504.805 166.499L479.634 168.696L477.62 168.879V177.849L472.586 178.307L463.158 179.13L457.208 179.68V170.709L443.112 171.991V180.961L438.078 181.419L428.65 182.243L422.7 182.792V165.126C422.334 165.584 421.968 166.041 421.602 166.407C416.018 172.449 409.062 175.927 400.915 176.567C399.908 176.659 398.993 176.659 398.078 176.659C391.03 176.659 384.805 174.279 379.68 169.611C375.469 165.858 372.815 161.281 371.533 155.973C370.801 156.796 369.977 157.62 369.062 158.444C365.126 161.739 359.908 163.661 353.501 164.302V179.771L348.467 180.229L338.032 181.144L332.174 181.693L327.14 182.151L316.888 183.066L310.938 183.616V167.78L301.51 182.151L300.046 184.439L297.391 184.714L288.604 185.446L282.654 185.995V162.288C281.648 163.753 280.458 165.126 278.993 166.407C275.057 169.703 269.84 171.625 263.432 172.265V187.643L258.398 188.101L247.963 189.016L242.105 189.565L237.071 190.023L226.636 190.938L220.686 191.487V154.6L216.476 154.966V191.854L211.442 192.22L201.007 193.135L195.057 193.684V136.568L200.092 136.11L236.156 132.998L242.105 132.449L246.956 131.991L263.066 130.618C264.073 130.526 265.08 130.526 265.995 130.526C271.213 130.526 275.698 131.899 279.085 134.554C280.275 135.469 281.465 136.659 282.563 138.215V128.879L287.597 128.421L298.032 127.506L303.982 126.957V142.7L313.318 128.33L314.783 126.041L317.437 125.767L326.041 125.034L331.899 124.485L336.934 124.027L353.043 122.654C354.05 122.563 355.057 122.563 355.973 122.563C361.19 122.563 365.675 123.936 369.062 126.59C370.984 128.055 373.181 130.435 374.554 134.005C375.835 131.808 377.3 129.794 379.13 127.78C384.805 121.739 391.67 118.352 399.725 117.62C400.732 117.529 401.739 117.529 402.654 117.529C409.702 117.529 415.927 119.817 420.961 124.394C426.819 129.611 429.748 136.568 429.748 144.897C429.748 145.721 429.748 146.453 429.657 147.277L438.719 118.535L439.817 115.057L443.478 114.783L455.378 113.776L459.68 113.41L461.053 117.529L471.67 149.199L473.501 149.016V112.22L478.535 111.762L503.707 109.565L509.84 108.924ZM399.085 156.156C399.359 156.156 399.634 156.156 399.908 156.156C402.38 155.973 404.302 154.874 405.95 152.86C407.597 150.847 408.421 148.467 408.421 145.812C408.421 143.249 407.689 141.419 406.224 139.863C405.034 138.673 403.661 138.124 401.739 138.124C401.465 138.124 401.19 138.124 400.824 138.124C398.444 138.307 396.522 139.313 394.874 141.327C393.135 143.432 392.22 145.721 392.22 148.284C392.22 150.755 392.952 152.677 394.6 154.325C395.881 155.515 397.254 156.156 399.085 156.156ZM353.41 143.89C354.416 143.707 354.783 143.432 354.874 143.341C354.874 143.249 354.966 143.158 354.966 142.975C354.783 142.975 354.508 142.975 354.142 142.975C353.959 142.975 353.684 142.975 353.41 142.975V143.89ZM263.341 151.762C264.348 151.579 264.714 151.304 264.805 151.213C264.805 151.121 264.897 151.03 264.897 150.847C264.714 150.847 264.439 150.847 264.073 150.847C263.89 150.847 263.616 150.847 263.341 150.847V151.762ZM155.973 139.863L157.529 143.616L175.835 188.101L178.673 194.966L171.259 195.606L159.817 196.613L155.606 196.979L154.142 193.043L152.677 188.924L143.89 189.657L141.968 194.966L140.778 198.261L137.3 198.535L126.041 199.542L117.162 200.458L108.741 201.19L102.792 201.739V182.792L97.6659 183.249V202.197L92.6316 202.654L82.1968 203.57L76.2471 204.119V147.002L81.2815 146.545L91.7162 145.629L97.6659 145.08V162.929L102.792 162.471V144.622L107.826 144.165L118.261 143.249L124.211 142.7V182.151L138.673 144.531L139.863 141.327L143.249 141.053L151.854 140.32L155.973 139.863ZM53.2723 148.833V205.95L48.238 206.407L37.9863 207.323L32.0366 207.872V192.037L22.7002 206.59L21.2357 208.879L18.5812 209.153L9.79405 209.886L3.84439 210.435V153.318L8.87872 152.86L19.3135 151.945L25.2632 151.396V167.14L34.5995 152.769L36.0641 150.481L38.7185 150.206L47.3227 149.474L53.2723 148.833ZM600 0L597.986 0.183066L592.037 0.732265L566.865 2.92906L561.831 3.38673L560.183 3.47826V5.12586V36.3387L551.304 9.88558L549.931 5.76659L549.474 4.39359L548.009 4.57666L543.707 4.94279L531.808 5.94966L528.146 6.22426L526.957 6.40732L526.59 7.59725L525.492 11.0755L519.268 30.7551C517.986 25.0801 515.149 20.1373 510.664 16.2014C505.263 11.3501 498.673 8.87872 491.167 8.87872C490.16 8.87872 489.062 8.97025 488.055 9.06178C479.542 9.79405 472.22 13.4554 466.27 19.7712C465.172 20.9611 464.165 22.151 463.249 23.4325C462.059 21.4188 460.503 19.6796 458.673 18.3066C454.92 15.3776 450.16 13.913 444.485 13.913C443.478 13.913 442.38 14.0046 441.373 14.0961L425.263 15.4691L420.229 15.9268L418.581 16.1098V17.7574V28.3753C417.483 27.0023 416.293 25.6293 414.92 24.4394C409.519 19.5881 402.929 17.1167 395.423 17.1167C394.416 17.1167 393.318 17.2082 392.311 17.2998C385.172 17.9405 378.856 20.5034 373.547 25.0801V21.8764V19.8627L371.533 20.0458L365.583 20.595L341.327 22.7002L336.293 23.1579L334.645 23.341V24.9886V82.1053V84.119L336.659 83.9359L342.609 83.3867L353.043 82.4714L358.078 82.0137L359.725 81.8307V80.1831V45.0343L362.014 44.8513C361.648 46.7735 361.556 48.6957 361.556 50.6178C361.556 59.4966 364.76 66.8192 370.984 72.4943C376.476 77.4371 383.066 80 390.572 80C391.579 80 392.586 80 393.593 79.9085C402.197 79.1762 409.611 75.5149 415.469 69.1076C416.659 67.8261 417.666 66.5446 418.581 65.1716V74.7826V76.7963L420.595 76.6133L426.545 76.0641L436.979 75.1487L442.014 74.6911L443.661 74.508V72.8604V58.9474C449.703 58.1236 454.737 56.1098 458.581 52.9062C458.673 52.8146 458.856 52.7231 458.947 52.6316C460.503 57.0252 463.066 60.8696 466.728 64.1648C472.22 69.1076 478.81 71.6705 486.316 71.6705C487.323 71.6705 488.329 71.6705 489.336 71.5789C497.025 70.9382 503.707 68.0091 509.199 62.8833V75.9725V77.9863L511.213 77.8032L517.162 77.254L526.59 76.4302L531.625 75.9725L533.272 75.7895V74.1419V66.8192L543.707 65.9039V72.8604V74.8741L545.721 74.6911L551.67 74.1419L561.098 73.2265L566.133 72.7689L567.78 72.5858V70.9382V63.6156H568.146L593.318 61.4188L598.352 60.9611L600 60.778V59.1304V38.7185V36.7048H599.725V23.9817H600V22.3341V2.01373V0ZM487.414 47.4142C486.133 47.4142 485.217 47.0481 484.211 46.0412C482.929 44.7597 482.38 43.2952 482.38 41.2815C482.38 39.0847 483.112 37.3455 484.577 35.5149C485.95 33.8673 487.414 33.135 489.336 32.9519C489.611 32.9519 489.794 32.9519 490.069 32.9519C491.442 32.9519 492.357 33.3181 493.181 34.1419C494.371 35.3318 494.92 36.7963 494.92 38.8101C494.92 41.0984 494.279 42.9291 492.815 44.6682C491.442 46.3158 489.977 47.1396 488.055 47.3227C487.872 47.3227 487.597 47.4142 487.414 47.4142ZM391.579 55.7437C390.297 55.7437 389.382 55.3776 388.375 54.3707C387.094 53.0892 386.545 51.6247 386.545 49.611C386.545 47.4142 387.277 45.6751 388.741 43.8444C390.114 42.1968 391.579 41.4645 393.501 41.2815C393.776 41.2815 393.959 41.2815 394.233 41.2815C395.606 41.2815 396.522 41.6476 397.346 42.4714C398.535 43.6613 399.085 45.1259 399.085 47.1396C399.085 49.4279 398.444 51.2586 396.979 52.9977C395.606 54.6453 394.142 55.4691 392.22 55.6522C391.945 55.7437 391.762 55.7437 391.579 55.7437ZM295.194 26.8192C294.188 26.8192 293.181 26.9108 292.174 27.0023L276.888 28.3753L271.854 28.833L270.206 29.016V30.6636V87.7803V89.7025L272.22 89.5194L278.169 88.9702L293.638 87.5973C302.609 86.7735 309.108 83.7529 313.043 78.3524C316.522 73.6842 317.254 68.3753 317.254 64.6224C317.254 59.9542 315.881 56.0183 313.318 52.9062C314.416 50.4348 314.966 47.7803 314.966 44.7597C314.966 36.2471 310.664 31.8535 307.002 29.6568C303.707 27.8261 299.68 26.8192 295.194 26.8192ZM246.865 31.2128L243.204 31.4874L232.311 32.4027L220.32 33.4096L217.391 33.6842L216.384 33.7757L215.927 34.5995L214.554 37.1625L212.082 41.5561L209.977 38.2609L208.146 35.5149L207.506 34.5995L206.407 34.6911L203.112 34.9657L191.304 36.0641L188.65 36.3387L182.7 36.8879L172.265 37.8032L167.231 38.2609L165.584 38.4439V40.0915V58.9474C163.021 57.849 160.092 57.2082 156.705 56.9336V41.0984V39.0847L154.691 39.2677L148.741 39.8169L138.307 40.7323L133.272 41.1899L131.625 41.373V43.0206V74.2334L122.746 47.7803L121.373 43.6613L120.915 42.2883L119.451 42.3799L115.149 42.746L103.249 43.7529L99.5881 44.0275L98.3982 44.119L98.032 45.3089L96.9336 48.7872L94.9199 55.0114V46.4073V44.3936L92.9062 44.5767L86.9565 45.1259L58.2151 47.5973L53.1808 48.0549L51.5332 48.238V49.8856V54.9199C46.4989 51.0755 40.5492 49.1533 33.8673 49.1533C32.8604 49.1533 31.762 49.2449 30.7551 49.3364C22.2426 50.0686 14.9199 53.73 8.97025 60.0458C3.0206 66.3615 0 73.9588 0 82.5629C0 91.4416 3.20366 98.7643 9.42792 104.439C14.9199 109.382 21.5103 111.945 29.016 111.945C30.0229 111.945 31.0297 111.945 32.0366 111.854C40.6407 111.121 48.0549 107.46 53.913 101.053C56.9336 97.7574 59.1304 94.1876 60.6865 90.3432V106.453V108.467L62.7002 108.284L68.6499 107.735L79.0847 106.819L80.5492 106.728V113.684V115.698L82.5629 115.515L88.5126 114.966L97.9405 114.142L102.975 113.684L104.622 113.501V111.854V104.531L115.057 103.616V110.572V112.586L117.071 112.403L123.021 111.854L132.449 111.03L137.483 110.572L139.13 110.389V108.741V101.419H139.497L152.86 100.229C157.712 99.7712 161.922 98.5812 165.492 96.5675V97.1167V99.1304L167.506 98.9474L173.455 98.3982L183.89 97.4828L188.924 97.0252L191.121 96.8421L202.838 95.8352L205.675 95.5606L206.59 95.4691L207.048 94.6453L208.513 92.1739L212.632 84.9428L216.384 90.7094L218.215 93.4554L218.856 94.3707L219.954 94.2792L223.249 94.0046L235.149 92.9977L244.577 92.1739L247.689 91.8993L245.858 89.3364L240.458 81.5561L227.46 62.7918L239.268 43.5698L244.943 34.2334L246.865 31.2128ZM190.664 75.5149V54.1876L197.712 64.1648L190.664 75.5149ZM85.8581 69.2906L88.3295 69.1076L90.6178 68.9245L86.4073 82.1053L85.7666 82.1968V69.2906H85.8581ZM30.2059 87.6888C28.9245 87.6888 28.0092 87.3227 27.0023 86.3158C25.7208 85.0343 25.1716 83.5698 25.1716 81.5561C25.1716 79.3593 25.9039 77.6201 27.3684 75.7895C28.7414 74.1419 30.2059 73.4096 32.1281 73.2265C32.4027 73.2265 32.5858 73.2265 32.8604 73.2265C34.2334 73.2265 35.1487 73.5927 35.9725 74.4165C37.1625 75.6064 37.7117 77.0709 37.7117 79.0847C37.7117 81.373 37.0709 83.2037 35.6064 84.9428C34.2334 86.5904 32.7689 87.4142 30.8467 87.5973C30.6636 87.6888 30.389 87.6888 30.2059 87.6888ZM511.67 106.911L509.657 107.094L503.707 107.643L478.535 109.84L473.501 110.297L471.854 110.481V112.128V143.341L462.975 116.888L461.602 112.769L461.144 111.396L459.68 111.487L455.378 111.854L443.478 112.86L439.817 113.135L438.627 113.227L438.261 114.416L437.162 117.895L430.938 137.574C429.657 131.899 426.819 126.957 422.334 123.021C416.934 118.169 410.343 115.698 402.838 115.698C401.831 115.698 400.732 115.789 399.725 115.881C391.213 116.613 383.89 120.275 377.94 126.59C376.842 127.78 375.835 128.97 374.92 130.252C373.73 128.238 372.174 126.499 370.343 125.126C366.59 122.197 361.831 120.732 356.156 120.732C355.149 120.732 354.05 120.824 353.043 120.915L336.934 122.288L331.899 122.746L326.041 123.295L317.437 124.027L314.783 124.302L313.867 124.394L313.41 125.126L311.945 127.414L305.995 136.659V127.14V125.126L303.982 125.309L298.032 125.858L287.597 126.773L282.563 127.231L280.915 127.414V129.062V133.638C280.732 133.455 280.549 133.364 280.366 133.181C276.613 130.252 271.854 128.787 266.178 128.787C265.172 128.787 264.073 128.879 263.066 128.97L246.956 130.343L242.105 130.801L236.156 131.35L200.092 134.462L195.057 134.92L193.41 135.103V136.751V193.867V195.881L195.423 195.698L201.373 195.149L211.808 194.233L216.842 193.776L218.49 193.593V191.945V156.796L219.039 156.705V191.579V193.593L221.053 193.41L227.002 192.86L237.437 191.945L242.471 191.487L248.329 190.938L258.764 190.023L263.799 189.565L265.446 189.382V187.643V173.822C271.487 172.998 276.522 170.984 280.366 167.78C280.549 167.597 280.824 167.414 281.007 167.231V186.087V188.101L283.021 187.918L288.97 187.368L297.757 186.636L300.412 186.362L301.327 186.27L301.785 185.538L303.249 183.249L309.291 173.913V183.524V185.538L311.304 185.355L317.254 184.805L327.506 183.89L332.54 183.432L338.398 182.883L348.833 181.968L353.867 181.51L355.515 181.327V179.68V165.858C361.556 165.034 366.59 163.021 370.435 159.817C370.526 159.725 370.709 159.634 370.801 159.542C372.357 163.936 374.92 167.78 378.581 170.984C384.073 175.927 390.664 178.49 398.169 178.49C399.176 178.49 400.183 178.49 401.19 178.398C408.879 177.757 415.561 174.828 421.053 169.702V182.792V184.805L423.066 184.622L429.016 184.073L438.444 183.249L443.478 182.792L445.126 182.609V180.961V173.638L455.561 172.723V179.68V181.693L457.574 181.51L463.524 180.961L472.952 180.137L477.986 179.68L479.634 179.497V177.849V170.526H480L505.172 168.33L510.206 167.872L511.854 167.689V166.041V145.629V143.616H511.579V130.892H511.854V129.245V108.924V106.911H511.67ZM399.085 154.325C397.803 154.325 396.888 153.959 395.881 152.952C394.6 151.67 394.05 150.206 394.05 148.192C394.05 145.995 394.783 144.256 396.247 142.426C397.62 140.778 399.085 140.046 401.007 139.863C401.281 139.863 401.465 139.863 401.739 139.863C403.112 139.863 404.027 140.229 404.851 141.053C406.041 142.243 406.59 143.707 406.59 145.721C406.59 148.009 405.95 149.84 404.485 151.579C403.112 153.227 401.648 154.05 399.725 154.233C399.451 154.325 399.268 154.325 399.085 154.325ZM157.162 137.94L155.789 138.032L151.762 138.398L143.158 139.13L139.771 139.405L138.673 139.497L138.307 140.595L137.117 143.799L126.133 172.265V142.609V140.595L124.119 140.778L118.169 141.327L107.735 142.243L102.7 142.7L101.053 142.883V144.531V160.732L99.5881 160.824V144.989V142.975L97.5744 143.158L91.6247 143.707L81.1899 144.622L76.1556 145.08L74.508 145.263V146.911V204.027V206.041L76.5217 205.858L82.4714 205.309L92.9062 204.394L97.9405 203.936L99.5881 203.753V202.105V184.805L101.053 184.714V201.648V203.661L103.066 203.478L109.016 202.929L117.437 202.197L126.224 201.465L137.483 200.458L140.961 200.183L142.151 200.092L142.517 198.993L143.707 195.698L145.172 191.487L151.396 190.938L152.403 193.776L153.867 197.712L154.325 198.993L155.698 198.902L159.908 198.535L171.35 197.529L178.764 196.888L181.236 196.705L180.32 194.416L177.483 187.551L159.176 143.066L157.62 139.313L157.162 137.94ZM55.103 146.819L53.0892 147.002L47.1396 147.551L38.5355 148.284L35.881 148.558L34.9657 148.65L34.508 149.382L33.0435 151.67L27.0938 160.915V151.396V149.382L25.0801 149.565L19.1304 150.114L8.69565 151.03L3.66133 151.396L2.01373 151.579V153.227V210.343V212.357L4.02746 212.174L9.97712 211.625L18.7643 210.892L21.4188 210.618L22.3341 210.526L22.7918 209.794L24.2563 207.506L30.2975 198.169V207.78V209.794L32.3112 209.611L38.2609 209.062L48.5126 208.146L53.5469 207.689L55.1945 207.506V205.858V148.741V146.819H55.103Z" fill="black"/>
<path d="M33.3181 106.27C26.6362 106.819 20.8696 104.989 16.2014 100.778C11.5332 96.5675 9.15332 91.0755 9.15332 84.3936C9.15332 77.7117 11.5332 71.8535 16.2014 66.8192C20.8696 61.7849 26.6362 58.9474 33.3181 58.3982C40.0915 57.849 45.8581 59.5881 50.4348 63.7986C55.103 68.0091 57.3913 73.4096 57.3913 80.2746C57.3913 87.048 55.103 92.9062 50.4348 97.9405C45.8581 102.883 40.0915 105.721 33.3181 106.27ZM33.3181 67.8261C29.4737 68.1922 26.27 69.8398 23.6156 72.9519C21.0526 76.0641 19.6796 79.5423 19.6796 83.3867C19.6796 87.2311 20.9611 90.5263 23.6156 93.2723C26.1785 95.9268 29.4737 97.1167 33.3181 96.7506C37.254 96.3844 40.5492 94.6453 43.1121 91.4416C45.5835 88.4211 46.865 84.9428 46.865 80.9153C46.865 76.9794 45.5835 73.6842 43.0206 71.1213C40.4577 68.6499 37.254 67.4599 33.3181 67.8261Z" fill="#22B4AF"/>
<path d="M89.5194 63.6156L80.3661 64.4394V101.327L69.9313 102.243V65.3547L60.8695 66.1785V56.8421L89.6109 54.3707V63.6156H89.5194Z" fill="#22B4AF"/>
<path d="M133.73 105.538L124.302 106.362V97.3913L99.222 99.5881V108.558L89.7941 109.382V91.1671L93.8215 90.8009L105.812 52.9062L117.712 51.8993L129.703 87.6888L133.822 87.3227V105.538H133.73ZM119.176 88.6041L111.762 64.8055L104.348 89.8856L119.176 88.6041Z" fill="#22B4AF"/>
<path d="M171.167 78.9932C171.167 83.8444 169.519 87.5973 166.133 90.4348C163.112 92.9062 159.176 94.3707 154.142 94.8284L140.778 96.0183V49.8856L151.213 48.9703V66.1785C157.254 65.6293 161.831 66.1785 165.034 67.7346C169.062 69.6568 171.167 73.4096 171.167 78.9932ZM161.098 79.8169C161.098 77.5286 160.366 76.0641 158.993 75.2403C157.895 74.5996 156.156 74.4165 153.684 74.5996L151.213 74.7826V85.7666L153.684 85.5835C158.627 85.2174 161.098 83.2952 161.098 79.8169ZM185.172 92.0824L174.737 92.9977V46.865L185.172 45.9497V92.0824Z" fill="#22B4AF"/>
<path d="M236.339 87.5973L224.439 88.6041L214.096 72.6774L204.027 90.3433L192.311 91.3501L208.238 65.6293L193.776 45.0344L205.767 44.0275L214.462 57.5744L222.883 42.563L234.874 41.5561L220.595 64.8971L236.339 87.5973Z" fill="#22B4AF"/>
<path d="M311.67 66.5446C311.67 75.9725 305.995 81.1899 294.737 82.1968L279.268 83.5698V37.4371L294.554 36.0641C298.856 35.6979 302.334 36.2471 304.897 37.8947C307.918 39.7254 309.382 42.6545 309.382 46.7735C309.382 51.0755 307.643 54.3707 304.073 56.5675C309.108 57.7574 311.67 61.1442 311.67 66.5446ZM299.222 49.1533C299.222 46.3158 297.391 45.1259 293.821 45.4005L289.428 45.7666V54.9199L293.364 54.5538C297.208 54.1876 299.222 52.4485 299.222 49.1533ZM289.428 62.9748V73.3181L295.011 72.8604C299.313 72.4943 301.51 70.5721 301.51 67.0938C301.51 63.6156 299.405 62.0595 295.194 62.4256L289.428 62.9748Z" fill="#22B4AF"/>
<path d="M367.963 38.9016L354.142 40.0915V76.9794L343.707 77.8948V31.762L367.963 29.6568V38.9016Z" fill="#22B4AF"/>
<path d="M394.691 74.3249C388.009 74.8741 382.243 73.0435 377.574 68.833C372.906 64.6224 370.526 59.1304 370.526 52.4485C370.526 45.7666 372.906 39.9085 377.574 34.8741C382.243 29.8398 388.009 27.0023 394.691 26.4531C401.465 25.9039 407.231 27.643 411.808 31.8536C416.476 36.0641 418.764 41.4645 418.764 48.3295C418.764 55.103 416.476 60.9611 411.808 65.9954C407.14 70.9382 401.465 73.7757 394.691 74.3249ZM394.691 35.881C390.847 36.2471 387.643 37.8947 384.989 41.0069C382.426 44.119 381.053 47.5973 381.053 51.4417C381.053 55.286 382.334 58.5812 384.989 61.3272C387.552 63.9817 390.847 65.1716 394.691 64.8055C398.627 64.4394 401.922 62.7002 404.485 59.4966C406.957 56.476 408.238 52.9977 408.238 48.9703C408.238 45.0343 406.957 41.7391 404.394 39.1762C401.831 36.7048 398.627 35.5149 394.691 35.881Z" fill="#22B4AF"/>
<path d="M438.078 69.6568L427.643 70.5721V24.4394L443.753 23.0664C448.97 22.6087 452.998 23.524 456.018 25.8124C459.222 28.1922 460.778 32.0366 460.778 37.1625C460.778 42.2883 459.13 46.3158 455.744 49.2449C452.723 51.8078 448.513 53.3639 443.112 53.8215L438.169 54.2792V69.6568H438.078ZM438.078 32.7689V44.8513L442.746 44.4851C447.963 44.0275 450.526 41.7392 450.526 37.7117C450.526 33.7758 447.963 31.9451 442.746 32.4028L438.078 32.7689Z" fill="#22B4AF"/>
<path d="M490.526 65.9039C483.844 66.4531 478.078 64.6224 473.41 60.4119C468.741 56.2014 466.362 50.7094 466.362 44.0275C466.362 37.3455 468.741 31.4874 473.41 26.4531C478.078 21.4188 483.844 18.5812 490.526 18.032C497.3 17.4828 503.066 19.222 507.643 23.4325C512.311 27.643 514.6 33.0435 514.6 39.9085C514.6 46.6819 512.311 52.5401 507.643 57.5744C502.975 62.5172 497.3 65.3547 490.526 65.9039ZM490.526 27.46C486.682 27.8261 483.478 29.4737 480.824 32.5858C478.261 35.6979 476.888 39.1762 476.888 43.0206C476.888 46.865 478.169 50.1602 480.824 52.9062C483.387 55.5606 486.682 56.7506 490.526 56.3844C494.462 56.0183 497.757 54.2792 500.32 51.0755C502.792 48.0549 504.073 44.5767 504.073 40.5492C504.073 36.6133 502.792 33.3181 500.229 30.7552C497.666 28.2838 494.462 27.1854 490.526 27.46Z" fill="#22B4AF"/>
<path d="M562.288 67.7346L552.86 68.5584V59.5881L527.78 61.7849V70.7552L518.352 71.579V53.3639L522.38 52.9977L534.371 15.103L546.27 14.0961L558.261 49.8856L562.38 49.5195V67.7346H562.288ZM547.735 50.8009L540.32 27.0023L532.906 52.1739L547.735 50.8009Z" fill="#22B4AF"/>
<path d="M594.508 55.9268L569.336 58.1236V11.9909L594.508 9.79407V19.0389L579.771 20.3204V29.016L594.233 27.7346V36.9794L579.771 38.444V47.8719L594.508 46.5904V55.9268Z" fill="#22B4AF"/>
<path d="M49.6109 202.838L39.3592 203.753V175.286L19.8626 205.492L11.0754 206.224V160.092L21.5102 159.176V187.46L41.0068 157.437L49.6109 156.705V202.838Z" fill="#22B4AF"/>
<path d="M120.549 196.613L110.114 197.529V178.581L94.0046 179.954V198.902L83.5698 199.817V153.684L94.0046 152.769V170.618L110.114 169.245V151.396L120.549 150.481V196.613Z" fill="#22B4AF"/>
<path d="M172.632 192.037L161.19 193.043L158.261 184.989L141.693 186.453L138.581 195.057L127.323 196.064L145.721 148.284L154.325 147.552L172.632 192.037ZM155.332 176.659L150.114 160.549L144.622 177.574L155.332 176.659Z" fill="#22B4AF"/>
<path d="M238.444 186.27L228.009 187.185V150.298L212.815 151.67V188.558L202.38 189.474V143.341L238.444 140.229V186.27Z" fill="#22B4AF"/>
<path d="M259.68 184.439L249.245 185.355V139.222L265.355 137.849C270.572 137.391 274.6 138.307 277.62 140.595C280.824 142.975 282.38 146.819 282.38 151.945C282.38 157.071 280.732 161.098 277.346 164.027C274.325 166.59 270.114 168.146 264.714 168.604L259.771 169.062V184.439H259.68ZM259.68 147.643V159.725L264.348 159.359C269.565 158.902 272.128 156.613 272.128 152.586C272.128 148.65 269.565 146.819 264.348 147.277L259.68 147.643Z" fill="#22B4AF"/>
<path d="M328.421 178.398L318.169 179.314V150.847L298.673 181.053L289.886 181.785V135.652L300.32 134.737V163.021L319.817 133.089L328.421 132.357V178.398Z" fill="#22B4AF"/>
<path d="M349.748 176.568L339.313 177.483V131.35L355.423 129.977C360.641 129.519 364.668 130.435 367.689 132.723C370.892 135.103 372.448 138.947 372.448 144.073C372.448 149.199 370.801 153.227 367.414 156.156C364.394 158.719 360.183 160.275 354.783 160.732L349.84 161.19V176.568H349.748ZM349.748 139.68V151.762L354.416 151.396C359.634 150.938 362.197 148.65 362.197 144.622C362.197 140.687 359.634 138.856 354.416 139.313L349.748 139.68Z" fill="#22B4AF"/>
<path d="M402.197 172.906C395.515 173.455 389.748 171.625 385.08 167.414C380.412 163.204 378.032 157.712 378.032 151.03C378.032 144.348 380.412 138.49 385.08 133.455C389.748 128.421 395.515 125.584 402.197 125.034C408.97 124.485 414.737 126.224 419.313 130.435C423.982 134.645 426.27 140.046 426.27 146.911C426.27 153.684 423.982 159.542 419.313 164.577C414.645 169.428 408.97 172.265 402.197 172.906ZM402.197 134.462C398.352 134.828 395.149 136.476 392.494 139.588C389.931 142.7 388.558 146.178 388.558 150.023C388.558 153.867 389.84 157.162 392.494 159.908C395.057 162.563 398.352 163.753 402.197 163.387C406.133 163.021 409.428 161.281 411.991 158.078C414.462 155.057 415.744 151.579 415.744 147.551C415.744 143.616 414.462 140.32 411.899 137.757C409.336 135.195 406.133 134.096 402.197 134.462Z" fill="#22B4AF"/>
<path d="M473.959 174.645L464.531 175.469V166.499L439.451 168.696V177.666L430.023 178.49V160.183L434.05 159.817L446.041 121.922L457.941 120.915L469.931 156.705L474.05 156.339V174.645H473.959ZM459.405 157.712L451.991 133.913L444.577 159.085L459.405 157.712Z" fill="#22B4AF"/>
<path d="M506.178 162.838L481.007 165.034V118.902L506.178 116.705V125.95L491.442 127.231V135.927L505.904 134.645V143.89L491.442 145.172V154.6L506.178 153.318V162.838Z" fill="#22B4AF"/>
<path d="M31.4874 104.439C24.8055 104.989 19.0389 103.158 14.3707 98.9474C9.70249 94.7368 7.32263 89.2449 7.32263 82.5629C7.32263 75.881 9.70249 70.0229 14.3707 64.9886C19.0389 59.9542 24.8055 57.1167 31.4874 56.5675C38.2608 56.0183 44.0274 57.7574 48.6041 61.968C53.2723 66.1785 55.5606 71.5789 55.5606 78.4439C55.5606 85.2174 53.2723 91.0755 48.6041 96.1098C44.0274 101.053 38.2608 103.89 31.4874 104.439ZM31.4874 65.9954C27.643 66.3616 24.4393 68.0092 21.7849 71.1213C19.2219 74.2334 17.8489 77.7117 17.8489 81.5561C17.8489 85.4005 19.1304 88.6957 21.7849 91.4417C24.3478 94.0961 27.643 95.286 31.4874 94.9199C35.4233 94.5538 38.7185 92.8147 41.2814 89.611C43.7528 86.5904 45.0343 83.1121 45.0343 79.0847C45.0343 75.1487 43.7528 71.8535 41.1899 69.2906C38.627 66.8192 35.4233 65.6293 31.4874 65.9954Z" fill="black"/>
<path d="M87.6888 61.7849L78.5355 62.6087V99.4966L68.1007 100.412V63.5241L59.0389 64.3479V55.0115L87.7804 52.5401V61.7849H87.6888Z" fill="black"/>
<path d="M131.899 103.707L122.471 104.531V95.5607L97.3913 97.7575V106.728L87.9634 107.552V89.3364L91.9908 88.9703L103.982 51.0755L115.881 50.0687L127.872 85.8581L131.991 85.492V103.707H131.899ZM117.346 86.7735L109.931 62.9748L102.517 88.0549L117.346 86.7735Z" fill="black"/>
<path d="M169.336 77.1625C169.336 82.0138 167.689 85.7666 164.302 88.6041C161.281 91.0755 157.346 92.5401 152.311 92.9977L138.947 94.1877V48.0549L149.382 47.1396V64.3479C155.423 63.7987 160 64.3479 163.204 65.9039C167.231 67.8261 169.336 71.579 169.336 77.1625ZM159.268 77.9863C159.268 75.698 158.535 74.2334 157.162 73.4096C156.064 72.7689 154.325 72.5858 151.854 72.7689L149.382 72.952V83.9359L151.854 83.7529C156.796 83.3868 159.268 81.4646 159.268 77.9863ZM183.341 90.2517L172.906 91.1671V45.0344L183.341 44.119V90.2517Z" fill="black"/>
<path d="M234.508 85.7666L222.609 86.7735L212.265 70.8467L202.197 88.5126L190.48 89.5195L206.407 63.7987L191.945 43.2037L203.936 42.1968L212.631 55.7437L221.053 40.7323L233.043 39.7254L218.764 63.0664L234.508 85.7666Z" fill="black"/>
<path d="M309.84 64.714C309.84 74.1419 304.165 79.3593 292.906 80.3661L277.437 81.7391V35.6064L292.723 34.2334C297.025 33.8673 300.503 34.4165 303.066 36.0641C306.087 37.8947 307.551 40.8238 307.551 44.9428C307.551 49.2449 305.812 52.5401 302.243 54.7368C307.277 55.9268 309.84 59.3135 309.84 64.714ZM297.391 47.3227C297.391 44.4851 295.561 43.2952 291.991 43.5698L287.597 43.9359V53.0893L291.533 52.7231C295.378 52.357 297.391 50.6179 297.391 47.3227ZM287.597 61.1442V71.4874L293.181 71.0298C297.483 70.6636 299.68 68.7414 299.68 65.2632C299.68 61.7849 297.574 60.2288 293.364 60.595L287.597 61.1442Z" fill="black"/>
<path d="M366.133 37.071L352.311 38.2609V75.1488L341.876 76.0641V29.9314L366.133 27.8261V37.071Z" fill="black"/>
<path d="M392.86 72.4943C386.179 73.0435 380.412 71.2128 375.744 67.0023C371.076 62.7918 368.696 57.2998 368.696 50.6179C368.696 43.9359 371.076 38.0778 375.744 33.0435C380.412 28.0092 386.179 25.1716 392.86 24.6224C399.634 24.0732 405.4 25.8124 409.977 30.0229C414.645 34.2334 416.934 39.6339 416.934 46.4989C416.934 53.2723 414.645 59.1304 409.977 64.1648C405.309 69.1076 399.634 71.9451 392.86 72.4943ZM392.86 34.0504C389.016 34.4165 385.812 36.0641 383.158 39.1762C380.595 42.2883 379.222 45.7666 379.222 49.611C379.222 53.4554 380.503 56.7506 383.158 59.4966C385.721 62.151 389.016 63.341 392.86 62.9748C396.796 62.6087 400.092 60.8696 402.654 57.6659C405.126 54.6453 406.407 51.1671 406.407 47.1396C406.407 43.2037 405.126 39.9085 402.563 37.3455C400 34.8742 396.796 33.6842 392.86 34.0504Z" fill="black"/>
<path d="M436.247 67.8261L425.812 68.7414V22.6087L441.922 21.2357C447.139 20.7781 451.167 21.6934 454.188 23.9817C457.391 26.3616 458.947 30.206 458.947 35.3318C458.947 40.4577 457.3 44.4852 453.913 47.4142C450.892 49.9771 446.682 51.5332 441.281 51.9909L436.339 52.4485V67.8261H436.247ZM436.247 30.9382V43.0206L440.915 42.6545C446.133 42.1968 448.696 39.9085 448.696 35.881C448.696 31.9451 446.133 30.1144 440.915 30.5721L436.247 30.9382Z" fill="black"/>
<path d="M488.696 64.0732C482.014 64.6224 476.247 62.7918 471.579 58.5812C466.911 54.3707 464.531 48.8787 464.531 42.1968C464.531 35.5149 466.911 29.6568 471.579 24.6224C476.247 19.5881 482.014 16.7506 488.696 16.2014C495.469 15.6522 501.236 17.3913 505.812 21.6018C510.481 25.8124 512.769 31.2128 512.769 38.0778C512.769 44.8513 510.481 50.7094 505.812 55.7437C501.144 60.6865 495.469 63.524 488.696 64.0732ZM488.696 25.6293C484.851 25.9954 481.648 27.643 478.993 30.7552C476.43 33.8673 475.057 37.3456 475.057 41.1899C475.057 45.0343 476.339 48.3295 478.993 51.0755C481.556 53.73 484.851 54.9199 488.696 54.5538C492.632 54.1877 495.927 52.4485 498.49 49.2449C500.961 46.2243 502.243 42.746 502.243 38.7185C502.243 34.7826 500.961 31.4874 498.398 28.9245C495.835 26.4531 492.632 25.3547 488.696 25.6293Z" fill="black"/>
<path d="M560.458 65.9039L551.03 66.7277V57.7575L525.95 59.9543V68.9245L516.522 69.7483V51.5332L520.549 51.1671L532.54 13.2723L544.439 12.2655L556.43 48.0549L560.549 47.6888V65.9039H560.458ZM545.904 48.9703L538.49 25.1717L531.076 50.3433L545.904 48.9703Z" fill="black"/>
<path d="M592.677 54.0961L567.506 56.2929V10.1602L592.677 7.96341V17.2083L577.941 18.4897V27.1854L592.403 25.9039V35.1488L577.941 36.6133V46.0412L592.677 44.7597V54.0961Z" fill="black"/>
<path d="M47.7803 201.007L37.5286 201.922V173.455L18.0321 203.661L9.24487 204.394V158.261L19.6797 157.346V185.629L39.1762 155.606L47.7803 154.874V201.007Z" fill="black"/>
<path d="M118.719 194.783L108.284 195.698V176.751L92.1739 178.124V197.071L81.7391 197.986V151.854L92.1739 150.938V168.787L108.284 167.414V149.565L118.719 148.65V194.783Z" fill="black"/>
<path d="M170.801 190.206L159.359 191.213L156.43 183.158L139.863 184.622L136.751 193.227L125.492 194.233L143.89 146.453L152.494 145.721L170.801 190.206ZM153.501 174.828L148.284 158.719L142.792 175.744L153.501 174.828Z" fill="black"/>
<path d="M236.613 184.439L226.178 185.355V148.467L210.984 149.84V186.728L200.549 187.643V141.51L236.613 138.398V184.439Z" fill="black"/>
<path d="M257.849 182.609L247.414 183.524V137.391L263.524 136.018C268.741 135.561 272.769 136.476 275.789 138.764C278.993 141.144 280.549 144.989 280.549 150.114C280.549 155.24 278.902 159.268 275.515 162.197C272.494 164.76 268.284 166.316 262.883 166.773L257.941 167.231V182.609H257.849ZM257.849 145.812V157.895L262.517 157.529C267.735 157.071 270.297 154.783 270.297 150.755C270.297 146.819 267.735 144.989 262.517 145.446L257.849 145.812Z" fill="black"/>
<path d="M326.59 176.568L316.339 177.483V149.016L296.842 179.222L288.055 179.954V133.822L298.49 132.906V161.19L317.986 131.259L326.59 130.526V176.568Z" fill="black"/>
<path d="M347.918 174.737L337.483 175.652V129.519L353.593 128.146C358.81 127.689 362.838 128.604 365.858 130.892C369.062 133.272 370.618 137.117 370.618 142.243C370.618 147.368 368.97 151.396 365.584 154.325C362.563 156.888 358.352 158.444 352.952 158.902L348.009 159.359V174.737H347.918ZM347.918 137.849V149.931L352.586 149.565C357.803 149.108 360.366 146.819 360.366 142.792C360.366 138.856 357.803 137.025 352.586 137.483L347.918 137.849Z" fill="black"/>
<path d="M400.366 171.076C393.684 171.625 387.918 169.794 383.249 165.584C378.581 161.373 376.201 155.881 376.201 149.199C376.201 142.517 378.581 136.659 383.249 131.625C387.918 126.59 393.684 123.753 400.366 123.204C407.14 122.655 412.906 124.394 417.483 128.604C422.151 132.815 424.439 138.215 424.439 145.08C424.439 151.854 422.151 157.712 417.483 162.746C412.815 167.597 407.14 170.435 400.366 171.076ZM400.366 132.632C396.522 132.998 393.318 134.645 390.664 137.757C388.101 140.87 386.728 144.348 386.728 148.192C386.728 152.037 388.009 155.332 390.664 158.078C393.227 160.732 396.522 161.922 400.366 161.556C404.302 161.19 407.597 159.451 410.16 156.247C412.632 153.227 413.913 149.748 413.913 145.721C413.913 141.785 412.632 138.49 410.069 135.927C407.506 133.364 404.302 132.265 400.366 132.632Z" fill="black"/>
<path d="M472.128 172.815L462.7 173.638V164.668L437.62 166.865V175.835L428.192 176.659V158.352L432.22 157.986L444.211 120.092L456.11 119.085L468.101 154.874L472.22 154.508V172.815H472.128ZM457.574 155.881L450.16 132.082L442.746 157.254L457.574 155.881Z" fill="black"/>
<path d="M504.348 161.007L479.176 163.204V117.071L504.348 114.874V124.119L489.611 125.4V134.096L504.073 132.815V142.059L489.611 143.341V152.769L504.348 151.487V161.007Z" fill="black"/>
</svg>
