<svg width="290" height="202" viewBox="0 0 290 202" fill="none" xmlns="http://www.w3.org/2000/svg">
<path d="M1.65951 99.7264L14.8319 98.5855V106.313L20.1216 98.1187L30.701 97.1853V130.635L17.6323 131.776V123.997L12.3426 132.242L1.65951 133.176V99.7264ZM42.6806 96.1481L55.853 95.0071V105.12L57.72 104.964V94.8516L70.8923 93.7106V113.832L78.9306 92.9846L88.7321 92.103L102.008 124.36L87.7986 125.604L86.1391 121.041L81.8866 121.404L80.1234 126.279L57.72 128.249V117.514L55.853 117.67V128.405L42.6806 129.546V96.1481ZM109.943 90.2879L148.941 86.8652C149.512 86.8133 150.134 86.8133 150.653 86.8133C153.764 86.8133 156.357 87.6431 158.38 89.1988C158.795 89.51 159.158 89.873 159.521 90.236V85.9317L172.693 84.7908V92.5179L177.983 84.324L199.92 82.4052C200.49 82.3533 201.112 82.3015 201.631 82.3015C204.742 82.3015 207.335 83.1313 209.358 84.687C210.551 85.6205 211.536 86.8133 212.21 88.1617C212.833 87.2282 213.559 86.2947 214.337 85.4131C217.604 81.8866 221.649 79.9159 226.368 79.5011C226.938 79.4492 227.509 79.4492 228.079 79.4492C232.228 79.4492 235.807 80.7976 238.814 83.4943C241.77 86.1391 243.482 89.5619 243.845 93.6069L248.771 78.1009L260.751 77.0637L267.545 97.3408H267.7V76.4932L289.222 74.6262V87.1245H289.067V95.3702H289.222V107.972L270.967 109.58V114.662L258.366 115.751V110.669L251.416 111.291V116.373L238.814 117.462V108.231C235.599 111.602 231.658 113.521 226.99 113.884C226.42 113.936 225.849 113.936 225.331 113.936C221.182 113.936 217.604 112.536 214.544 109.839C212.366 107.868 210.862 105.483 210.032 102.786C209.773 103.045 209.514 103.305 209.254 103.512C207.076 105.379 204.172 106.52 200.594 106.883V115.699L175.442 117.877V110.098L170.1 118.344L159.417 119.278V106.831C159.054 107.246 158.639 107.661 158.172 108.024C155.994 109.891 153.09 111.032 149.512 111.395V120.211L124.308 122.441V101.541L122.96 101.645V122.493L109.787 123.634V90.2879H109.943ZM227.613 92.1549C227.457 92.1549 227.302 92.1549 227.146 92.1549C225.901 92.2586 224.968 92.7772 224.138 93.8144C223.205 94.9034 222.79 96.0962 222.79 97.3927C222.79 98.6373 223.153 99.6227 223.982 100.452C224.605 101.075 225.279 101.386 226.161 101.386C226.264 101.386 226.42 101.386 226.575 101.386C227.82 101.282 228.805 100.764 229.635 99.7264C230.517 98.6892 230.932 97.4446 230.932 96.0443C230.932 94.7478 230.569 93.8144 229.843 93.0365C229.168 92.4142 228.494 92.1549 227.613 92.1549ZM1.65951 56.1642L13.6391 55.127C14.2096 55.0751 14.78 55.0751 15.2986 55.0751C17.7879 55.0751 19.9142 55.5937 21.6774 56.6828C23.6481 57.8755 25.9299 60.2611 25.9299 64.8247C25.9299 66.5361 25.5669 68.0919 24.8927 69.4921C26.4485 71.1516 27.2264 73.3816 27.2264 76.0265C27.2264 80.279 25.5669 87.5393 14.3133 88.5247L1.60765 89.6137V56.1642H1.65951ZM38.0651 53.0007L59.0683 51.1856V54.7639C62.1799 51.7561 65.9657 50.0966 70.27 49.6817C70.8405 49.6298 71.4109 49.6298 71.9814 49.6298C76.1302 49.6298 79.7085 50.9782 82.7164 53.6749C83.9092 54.7121 84.8426 55.9049 85.6205 57.2014V48.9038L98.0669 47.8147C98.6373 47.7629 99.2597 47.7629 99.7783 47.7629C102.89 47.7629 105.483 48.5926 107.505 50.1484C108.698 51.0819 109.683 52.2747 110.358 53.623C110.98 52.6896 111.706 51.7561 112.484 50.8745C115.751 47.348 119.796 45.3773 124.515 44.9624C125.086 44.9106 125.656 44.9106 126.227 44.9106C130.376 44.9106 133.954 46.2589 136.962 48.9556C139.918 51.6005 141.629 55.0232 141.992 59.0683L146.919 43.5622L158.898 42.525L165.692 62.8022H165.848V41.799L187.369 39.932V52.4821H187.214V60.7278H187.369V73.3297L169.115 74.9374V80.0197L156.513 81.1087V76.0265L149.564 76.6488V81.731L136.962 82.8201V73.6409C133.746 77.0118 129.805 78.9306 125.138 79.2936C124.567 79.3455 123.997 79.3455 123.478 79.3455C119.329 79.3455 115.751 77.9453 112.691 75.2486C110.513 73.2779 109.009 70.8923 108.18 68.1956C107.92 68.4549 107.661 68.7142 107.402 68.9217C105.224 70.7886 102.319 71.9295 98.7411 72.2925V81.1087L85.5687 82.2496V74.4188C84.8426 75.7153 83.961 76.9599 82.872 78.1009C79.6048 81.6273 75.5597 83.6498 70.7886 84.0647C70.2182 84.1166 69.6477 84.1166 69.1291 84.1166C64.9803 84.1166 61.402 82.7164 58.3423 80.0197C54.9195 76.9081 53.1563 72.863 53.1563 68.04C53.1563 66.7436 53.3119 65.4471 53.5712 64.2024L51.1338 64.4099V85.3094L37.9614 86.4503V53.0007H38.0651ZM71.4109 62.2318C71.2554 62.2318 71.0998 62.2318 70.9442 62.2318C69.6996 62.3355 68.7661 62.8541 67.9363 63.8913C67.0029 64.9803 66.588 66.1731 66.588 67.4696C66.588 68.7142 66.951 69.6996 67.7808 70.5293C68.4031 71.1516 69.0773 71.4628 69.9589 71.4628C70.0626 71.4628 70.2182 71.4628 70.3737 71.4628C71.6184 71.3591 72.6037 70.8405 73.4335 69.8033C74.3151 68.7661 74.73 67.5215 74.73 66.1212C74.73 64.8247 74.367 63.8913 73.6409 63.1134C72.9667 62.4911 72.2926 62.2318 71.4109 62.2318ZM125.708 57.5125C125.553 57.5125 125.397 57.5125 125.241 57.5125C123.997 57.6162 123.063 58.1348 122.234 59.172C121.3 60.2611 120.885 61.4539 120.885 62.7504C120.885 63.995 121.248 64.9803 122.078 65.8101C122.7 66.4324 123.374 66.7436 124.256 66.7436C124.36 66.7436 124.515 66.7436 124.671 66.7436C125.916 66.6398 126.901 66.1212 127.731 65.084C128.612 64.0468 129.027 62.8022 129.027 61.402C129.027 60.1055 128.664 59.172 127.938 58.3941C127.264 57.7718 126.59 57.5125 125.708 57.5125ZM46.2071 42.162L34.9535 43.1473V29.3526C34.4349 33.0347 32.8791 36.3019 30.2343 39.1541C26.9671 42.6806 22.922 44.7031 18.1509 45.118C17.5805 45.1699 17.01 45.1699 16.4914 45.1699C12.3426 45.1699 8.76431 43.7697 5.70458 41.073C2.28183 37.9614 0.518598 33.9163 0.518598 29.0933C0.518598 24.3741 2.17811 20.1735 5.49714 16.647C8.76431 13.1205 12.8094 11.1498 17.5286 10.735C18.0991 10.6831 18.6695 10.6831 19.24 10.6831C23.2851 10.6831 26.8115 11.9796 29.7675 14.5207V10.1645L53.3119 8.09012V16.9063L56.1642 7.88268L68.1438 6.84549L74.9374 27.1227H75.093V6.17131L88.2654 5.03039V14.9875C90.5472 15.0912 92.466 15.5579 94.0737 16.3358C94.1774 16.3877 94.2293 16.4395 94.333 16.4914V4.51179L117.411 2.48926L120.263 6.89735L123.011 1.97066L138.881 0.57045L128.249 17.8916L139.399 33.9682L124.256 35.3165L120.47 29.5082L116.788 35.9907L94.333 37.9614V36.1463C92.2586 37.5465 89.6656 38.3762 86.6059 38.6355L78.3602 39.3616V44.4438L65.7582 45.5329V40.4506L58.809 41.073V46.1552L46.2071 47.2443V42.162ZM18.6177 23.285C18.4621 23.285 18.3065 23.285 18.1509 23.285C16.9063 23.3888 15.9728 23.9074 15.1431 24.9446C14.2096 26.0336 13.7947 27.2264 13.7947 28.5229C13.7947 29.7675 14.1577 30.7529 14.9875 31.5826C15.6098 32.2049 16.284 32.5161 17.1656 32.5161C17.2693 32.5161 17.4249 32.5161 17.5805 32.5161C18.8251 32.4124 19.8104 31.8938 20.6402 30.8566C21.5218 29.8194 21.9367 28.5747 21.9367 27.1745C21.9367 25.878 21.5737 24.9446 20.8476 24.1667C20.1735 23.5443 19.4993 23.285 18.6177 23.285ZM48.1259 29.4045L49.3705 29.3008L52.0672 20.7439L48.074 21.1069V29.4045H48.1259ZM107.505 26.9152L112.639 18.6695L107.505 11.4091V26.9152ZM34.5905 22.2997C34.7461 22.8702 34.8498 23.4406 34.9535 24.0629V22.2997H34.5905Z" fill="white"/>
<path d="M137.947 1.19278L134.732 6.48248L127.679 17.9435L135.458 29.1452L138.518 33.5533L133.176 34.02L126.434 34.5905L124.567 34.7461L123.53 33.1903L120.47 28.471L117.307 34.02L116.477 35.4202L114.869 35.5758L108.231 36.1463L106.987 36.25L104.134 36.5093L98.2225 37.0279L94.8516 37.3391V35.0572C92.7253 36.7686 89.9249 37.7539 86.6059 38.0651L79.0343 38.7393L77.8934 38.843V43.9253L75.0411 44.1846L69.6996 44.6513L66.3287 44.9624V39.8802L58.3423 40.6062V45.6366L55.49 45.8959L50.1484 46.3627L46.7257 46.6738V41.5916L44.755 41.7471L38.843 42.2657L35.4721 42.5769V21.6774L33.9682 21.833C34.4349 23.3369 34.6423 24.9446 34.6423 26.7078C34.6423 31.3233 33.0347 35.4202 29.8712 38.843C26.6559 42.2139 22.7146 44.1846 18.0991 44.5994C17.5286 44.6513 17.01 44.6513 16.4914 44.6513C12.4982 44.6513 8.97174 43.3029 6.0676 40.6581C2.74857 37.7021 1.0372 33.7607 1.0372 29.0933C1.0372 24.4778 2.64485 20.4328 5.86016 17.01C9.07546 13.5873 12.9649 11.6685 17.5286 11.2536C18.0991 11.2017 18.6695 11.2017 19.1881 11.2017C23.1813 11.2017 26.7078 12.4982 29.5601 15.0912C29.7675 15.2986 30.0268 15.5061 30.2343 15.7135V10.6313L33.0865 10.372L49.3705 8.97175L52.7414 8.66059V20.1735L49.8891 20.4328L47.5554 20.6402V30.0268L49.5261 29.8712H49.7335L55.9049 10.372L56.5272 8.40129L58.6016 8.24571L65.3433 7.67525L67.7808 7.46781L68.5586 9.8015L74.5744 27.745L75.6116 27.6413V6.68991L78.4639 6.43062L84.3759 5.91202L87.7468 5.60086V15.5061C90.1842 15.5579 92.2067 15.9728 93.8144 16.8026C94.1255 16.9582 94.4885 17.1656 94.8516 17.373V4.97854L97.7038 4.71924L103.616 4.20064L106.987 3.88949L108.491 3.73391L115.284 3.16345L117.151 3.00787L118.188 4.56366L120.315 7.88269L122.545 3.88949L123.323 2.43741L124.982 2.28183L131.776 1.71137L137.947 1.19278ZM106.987 28.7303L113.262 18.6695L106.987 9.74964V28.7303ZM17.1137 33.0347C17.2693 33.0347 17.4249 33.0347 17.5805 33.0347C18.9807 32.931 20.0697 32.3087 21.0032 31.1677C21.9367 30.0268 22.4034 28.6785 22.4034 27.1745C22.4034 25.7225 21.9886 24.6853 21.1588 23.8036C20.4846 23.1295 19.7067 22.8183 18.6177 22.8183C18.4621 22.8183 18.3065 22.8183 18.0991 22.8183C16.7507 22.922 15.6617 23.4925 14.7282 24.6334C13.7428 25.8262 13.2242 27.1227 13.2242 28.5748C13.2242 29.975 13.6391 31.064 14.5726 31.9975C15.2986 32.7235 16.0765 33.0347 17.1137 33.0347ZM186.955 40.5025V52.0154H186.799V61.2983H186.955V72.863L184.102 73.1223L169.841 74.367L168.7 74.4707V79.5529L165.848 79.8122L160.506 80.279L157.135 80.5901V75.5079L149.149 76.2339V81.3162L146.296 81.5755L140.955 82.0422L137.584 82.3534V72.3444C137.377 72.6037 137.169 72.863 136.962 73.0705C133.798 76.4932 129.857 78.4639 125.241 78.8269C124.671 78.8788 124.152 78.8788 123.634 78.8788C119.641 78.8788 116.114 77.5304 113.21 74.8856C110.824 72.7593 109.32 70.1663 108.594 67.1584C108.18 67.6252 107.713 68.0919 107.194 68.5587C104.964 70.4256 102.008 71.5147 98.378 71.8777V80.642L95.5257 80.9013L89.6137 81.4199L86.2428 81.731V72.0851C85.4649 74.1077 84.2722 76.0265 82.6645 77.7378C79.5011 81.1606 75.5597 83.1313 70.9442 83.4943C70.3737 83.5461 69.8551 83.5461 69.3365 83.5461C65.3433 83.5461 61.8169 82.1978 58.9127 79.5529C55.5937 76.5451 53.8823 72.6556 53.8823 67.9363C53.8823 66.3805 54.0898 64.9285 54.4528 63.5283L50.8226 63.8394V84.7389L47.9703 84.9982L42.0064 85.5687L38.6355 85.8798V53.5193L41.4878 53.26L55.2307 52.0672L58.6016 51.7561V56.0086L58.6534 55.9567C61.8687 52.534 65.7582 50.6152 70.3219 50.2003C70.8923 50.1484 71.4628 50.1484 71.9814 50.1484C75.9746 50.1484 79.5011 51.4449 82.3534 54.0379C84.0647 55.5418 85.3094 57.3569 86.1391 59.3795V49.3187L88.9914 49.0594L98.1187 48.2815C98.6892 48.2296 99.2596 48.2296 99.7782 48.2296C102.734 48.2296 105.275 49.0075 107.194 50.5114C108.283 51.3412 109.528 52.6896 110.306 54.7121C111.032 53.4675 111.862 52.3265 112.899 51.1856C116.114 47.7629 120.004 45.8441 124.567 45.4292C125.138 45.3773 125.708 45.3773 126.227 45.3773C130.22 45.3773 133.746 46.6738 136.599 49.2668C139.918 52.2228 141.577 56.1642 141.577 60.8834C141.577 61.3501 141.577 61.765 141.525 62.2318L146.66 45.9478L147.282 43.9771L149.356 43.8215L156.098 43.2511L158.535 43.0436L159.313 45.3773L165.329 63.3208L166.366 63.2171V42.2657L169.219 42.0064L183.48 40.7618L186.955 40.5025ZM124.204 67.2103C124.36 67.2103 124.515 67.2103 124.671 67.2103C126.071 67.1066 127.16 66.4843 128.094 65.3434C129.027 64.2024 129.494 62.8541 129.494 61.3501C129.494 59.8981 129.079 58.8609 128.249 57.9793C127.575 57.3051 126.797 56.9939 125.708 56.9939C125.553 56.9939 125.397 56.9939 125.19 56.9939C123.841 57.0976 122.752 57.6681 121.819 58.809C120.833 60.0018 120.315 61.2983 120.315 62.7504C120.315 64.1506 120.73 65.2396 121.663 66.1731C122.389 66.8991 123.167 67.2103 124.204 67.2103ZM98.3262 60.313C98.8966 60.2092 99.1041 60.0536 99.1559 60.0018C99.1559 59.9499 99.2078 59.8981 99.2078 59.7944C99.1041 59.7944 98.9485 59.7944 98.7411 59.7944C98.6373 59.7944 98.4818 59.7944 98.3262 59.7944V60.313ZM69.907 71.9814C70.0626 71.9814 70.2182 71.9814 70.3737 71.9814C71.774 71.8777 72.863 71.2554 73.7965 70.1144C74.73 68.9735 75.1967 67.6252 75.1967 66.1212C75.1967 64.6692 74.7818 63.632 73.9521 62.7504C73.2779 62.0762 72.5 61.765 71.4109 61.765C71.2554 61.765 71.0998 61.765 70.8923 61.765C69.544 61.8687 68.4549 62.4392 67.5215 63.5801C66.5361 64.7729 66.0175 66.0694 66.0175 67.5215C66.0175 68.9217 66.4324 70.0107 67.3659 70.9442C68.0919 71.6702 68.8698 71.9814 69.907 71.9814ZM15.2986 55.5937C17.6842 55.5937 19.7586 56.1123 21.4181 57.1495C23.2332 58.2904 25.4632 60.5204 25.4632 64.8248C25.4632 66.588 25.0483 68.1956 24.3222 69.5959C25.9299 71.1516 26.8115 73.3816 26.8115 76.0265C26.8115 80.0715 25.2039 87.0207 14.3652 88.0061L5.60086 88.784L2.22997 89.0951V56.7346L5.08226 56.4753L13.7428 55.6974C14.2096 55.5937 14.78 55.5937 15.2986 55.5937ZM288.859 75.1449V86.6577H288.703V95.9406H288.859V107.505L286.007 107.765L271.745 109.009L270.604 109.113V114.195L267.752 114.455L262.411 114.921L259.04 115.232V110.15L251.053 110.876V115.959L248.201 116.218L242.859 116.685L239.489 116.996V106.987C239.281 107.246 239.074 107.505 238.866 107.713C235.703 111.136 231.761 113.106 227.146 113.469C226.575 113.521 226.057 113.521 225.538 113.521C221.545 113.521 218.019 112.173 215.114 109.528C212.729 107.402 211.225 104.809 210.499 101.801C210.084 102.268 209.617 102.734 209.099 103.201C206.869 105.068 203.913 106.157 200.283 106.52V115.284L197.43 115.544L191.518 116.062L188.199 116.373L185.347 116.633L179.539 117.151L176.168 117.462V108.387L170.878 116.633L170.048 117.929L168.544 118.085L163.566 118.5L160.195 118.811V105.379C159.624 106.209 158.95 106.987 158.121 107.713C155.891 109.58 152.935 110.669 149.304 111.032V119.796L146.452 120.055L140.54 120.574L137.221 120.885L134.369 121.145L128.457 121.663L124.982 121.871V100.971L122.597 101.178V122.078L119.744 122.337L113.832 122.856L110.461 123.167V90.7547L113.314 90.4954L133.746 88.7321L137.117 88.421L139.866 88.1617L148.993 87.3838C149.564 87.3319 150.134 87.3319 150.653 87.3319C153.609 87.3319 156.15 88.1098 158.069 89.6137C158.743 90.1323 159.417 90.8065 160.039 91.6881V86.3984L162.892 86.1391L168.804 85.6205L172.175 85.3094V94.2293L177.464 86.0873L178.294 84.7908L179.798 84.6352L184.673 84.2203L187.992 83.9092L190.844 83.6499L199.971 82.872C200.542 82.8201 201.112 82.8201 201.631 82.8201C204.587 82.8201 207.128 83.598 209.047 85.1019C210.136 85.9317 211.381 87.28 212.158 89.3026C212.884 88.0579 213.714 86.917 214.751 85.7761C217.967 82.3534 221.856 80.4346 226.42 80.0197C226.99 79.9678 227.561 79.9678 228.079 79.9678C232.073 79.9678 235.599 81.2643 238.451 83.8573C241.77 86.8133 243.43 90.7547 243.43 95.4739C243.43 95.9406 243.43 96.3555 243.378 96.8223L248.512 80.5383L249.134 78.5676L251.209 78.412L257.951 77.8416L260.388 77.6341L261.166 79.9678L267.182 97.9113L268.219 97.8076V76.9599L271.071 76.7006L285.333 75.456L288.859 75.1449ZM226.109 101.853C226.264 101.853 226.42 101.853 226.575 101.853C227.976 101.749 229.065 101.127 229.998 99.9857C230.932 98.8448 231.398 97.4964 231.398 95.9925C231.398 94.5404 230.984 93.5032 230.154 92.6216C229.48 91.9474 228.702 91.6363 227.613 91.6363C227.457 91.6363 227.301 91.6363 227.094 91.6363C225.746 91.74 224.657 92.3104 223.723 93.4514C222.738 94.6441 222.219 95.9406 222.219 97.3927C222.219 98.7929 222.634 99.882 223.568 100.815C224.294 101.541 225.072 101.853 226.109 101.853ZM200.231 94.9553C200.801 94.8516 201.009 94.696 201.06 94.6441C201.06 94.5923 201.112 94.5404 201.112 94.4367C201.009 94.4367 200.853 94.4367 200.646 94.4367C200.542 94.4367 200.386 94.4367 200.231 94.4367V94.9553ZM149.201 99.4152C149.771 99.3115 149.979 99.1559 150.03 99.1041C150.03 99.0522 150.082 99.0004 150.082 98.8966C149.979 98.8966 149.823 98.8966 149.616 98.8966C149.512 98.8966 149.356 98.8966 149.201 98.8966V99.4152ZM88.3691 92.6735L89.2507 94.7997L99.6227 120.004L101.23 123.893L97.0297 124.256L90.5472 124.827L88.1617 125.034L87.3319 122.804L86.5021 120.47L81.5236 120.885L80.3827 123.945L79.7085 125.812L77.7378 125.967L71.3591 126.538L66.3805 126.953L61.6094 127.368L58.2386 127.679V116.944L55.3344 117.203V127.938L52.4821 128.197L46.5701 128.716L43.1992 129.027V96.6667L46.0515 96.4074L51.9635 95.8888L55.3344 95.5776V105.69L58.2386 105.431V95.3183L61.0908 95.059L67.0029 94.5404L70.3737 94.2293V116.581L78.5676 95.2665L79.2418 93.4514L81.1606 93.2958L86.0354 92.8809L88.3691 92.6735ZM30.1824 97.7557V130.168L27.3301 130.427L21.5218 130.946L18.1509 131.205V122.234L12.8612 130.479L12.0315 131.776L10.5275 131.931L5.549 132.346L2.17811 132.657V100.297L5.0304 100.038L10.9424 99.519L14.3133 99.2078V108.128L19.603 99.9857L20.4328 98.6892L21.9367 98.5336L26.8115 98.1187L30.1824 97.7557ZM139.866 0L137.791 0.155579L131.62 0.674177L124.827 1.24464L123.167 1.40021L122.597 1.45207L122.337 1.91881L121.559 3.37089L120.159 5.86016L118.966 3.9932L117.929 2.43741L117.566 1.91881L116.944 1.97067L115.077 2.12625L108.387 2.74857L106.883 2.90415L103.512 3.21531L97.6001 3.73391L94.7478 3.9932L93.8144 4.09692V5.0304V15.7135C92.3623 15.0912 90.7028 14.7282 88.784 14.5726V5.60086V4.45994L87.6431 4.56366L84.2722 4.87482L78.3602 5.39342L75.5079 5.65272L74.5744 5.75644V6.68991V24.3741L69.544 9.33476L68.7661 7.00107L68.5068 6.22318L67.677 6.27504L65.2396 6.48248L58.4979 7.05293L56.4235 7.20851L55.7493 7.26037L55.5418 7.93455L54.9195 9.90522L53.7786 13.4317V8.55687V7.41595L52.6377 7.51967L49.2668 7.83083L33.0347 9.33476L30.1824 9.59406L29.2489 9.69778V10.6313V13.4317C26.3966 11.2536 23.0257 10.1645 19.24 10.1645C18.6695 10.1645 18.0472 10.2164 17.4768 10.2682C12.6538 10.6831 8.50501 12.7575 5.13412 16.3358C1.71137 19.9142 0 24.2185 0 29.0933C0 34.1237 1.81509 38.2725 5.34156 41.4878C8.45315 44.2883 12.1871 45.7403 16.4396 45.7403C17.01 45.7403 17.5805 45.7403 18.1509 45.6885C23.0257 45.2736 27.2264 43.1992 30.5454 39.569C32.2568 37.7021 33.5014 35.6795 34.383 33.5014V42.6288V43.7697L35.524 43.666L38.8948 43.3548L44.8069 42.8362L45.6366 42.7843V46.6738V47.8147L46.7775 47.711L50.1484 47.3999L55.49 46.9331L58.3423 46.6738L59.2757 46.5701V45.6366V41.4878L65.1878 40.9692V44.9106V46.0515L66.3287 45.9478L69.6996 45.6366L75.0411 45.1699L77.8934 44.9106L78.8269 44.8069V43.8734V39.7246H79.0343L86.6059 39.0504C89.3544 38.7911 91.74 38.117 93.7625 36.976V37.2872V38.4281L94.9034 38.3244L98.2743 38.0132L104.186 37.4946L107.039 37.2353L108.283 37.1316L114.921 36.5612L116.529 36.4056L117.048 36.3537L117.307 35.887L118.137 34.4868L120.47 30.3898L122.597 33.657L123.634 35.2128L123.997 35.7314L124.619 35.6795L126.486 35.524L133.228 34.9535L138.569 34.4868L140.333 34.3312L139.295 32.8791L136.236 28.471L128.872 17.8398L135.562 6.94921L138.777 1.65951L139.866 0ZM108.024 25.1001V13.0168L112.017 18.6695L108.024 25.1001ZM48.6445 21.5737L50.0447 21.47L51.3412 21.3662L48.9556 28.834L48.5926 28.8859V21.5737H48.6445ZM17.1137 31.9975C16.3877 31.9975 15.8691 31.7901 15.2986 31.2196C14.5726 30.4936 14.2614 29.6638 14.2614 28.5229C14.2614 27.2783 14.6763 26.2929 15.5061 25.2557C16.284 24.3222 17.1137 23.9074 18.2028 23.8036C18.3584 23.8036 18.4621 23.8036 18.6177 23.8036C19.3956 23.8036 19.9142 24.0111 20.3809 24.4778C21.0551 25.152 21.3662 25.9818 21.3662 27.1227C21.3662 28.4192 21.0032 29.4564 20.1735 30.4417C19.3956 31.3752 18.5658 31.8419 17.4768 31.9456C17.373 31.9975 17.2175 31.9975 17.1137 31.9975ZM187.992 39.3616L186.851 39.4653L183.48 39.7765L169.219 41.0211L166.366 41.2804L165.433 41.3841V42.3176V60.0018L160.402 45.0143L159.624 42.6806L159.365 41.9027L158.535 41.9546L156.098 42.162L149.356 42.7325L147.282 42.8881L146.608 42.9399L146.4 43.6141L145.778 45.5848L142.251 56.7346C141.525 53.5193 139.918 50.7189 137.377 48.4889C134.317 45.7403 130.583 44.3401 126.33 44.3401C125.76 44.3401 125.138 44.392 124.567 44.4438C119.744 44.8587 115.595 46.9331 112.225 50.5114C111.602 51.1856 111.032 51.8598 110.513 52.5858C109.839 51.4449 108.957 50.4596 107.92 49.6817C105.794 48.0222 103.097 47.1924 99.882 47.1924C99.3115 47.1924 98.7411 47.2443 98.1187 47.2961L88.9914 48.074L86.1391 48.3333L85.2056 48.4371V49.3705V55.5418C84.5833 54.764 83.9091 53.9861 83.1313 53.3119C80.0715 50.5633 76.3376 49.1631 72.0851 49.1631C71.5147 49.1631 70.8923 49.215 70.3219 49.2668C66.2768 49.6298 62.6985 51.0819 59.6906 53.6749V51.8598V50.7189L58.5497 50.8226L55.1788 51.1338L41.436 52.3265L38.5837 52.5858L37.6502 52.6896V53.623V85.9836V87.1245L38.7911 87.0208L42.162 86.7096L48.074 86.191L50.9263 85.9317L51.8598 85.828V84.8945V64.9803L53.1563 64.8766C52.9489 65.9657 52.897 67.0547 52.897 68.1438C52.897 73.1742 54.7121 77.323 58.2386 80.5383C61.3501 83.3387 65.084 84.7908 69.3365 84.7908C69.907 84.7908 70.4775 84.7908 71.0479 84.7389C75.9227 84.324 80.1234 82.2496 83.4424 78.6195C84.1166 77.8934 84.687 77.1674 85.2056 76.3895V81.8348V82.9757L86.3466 82.872L89.7174 82.5608L95.6295 82.0422L98.4818 81.7829L99.4152 81.6792V80.7457V72.9149C102.838 72.4481 105.69 71.3072 107.868 69.4921C107.92 69.4403 108.024 69.3884 108.076 69.3366C108.957 71.8258 110.41 74.0039 112.484 75.8709C115.595 78.6713 119.329 80.1234 123.582 80.1234C124.152 80.1234 124.723 80.1234 125.293 80.0715C129.649 79.7085 133.435 78.049 136.547 75.1449V82.5608V83.7017L137.688 83.598L141.059 83.2868L146.4 82.8201L149.252 82.5608L150.186 82.4571V81.5236V77.3748L156.098 76.8562V80.7976V81.9385L157.239 81.8348L160.61 81.5236L165.951 81.0569L168.804 80.7976L169.737 80.6939V79.7604V75.6116H169.945L184.206 74.367L187.058 74.1077L187.992 74.0039V73.0705V61.5057V60.1574H187.836V52.9489H187.992V52.0154V40.5025V39.3616ZM124.204 66.1731C123.478 66.1731 122.96 65.9657 122.389 65.3952C121.663 64.6692 121.352 63.8394 121.352 62.6985C121.352 61.4539 121.767 60.4685 122.597 59.4313C123.374 58.4979 124.204 58.083 125.293 57.9793C125.449 57.9793 125.553 57.9793 125.708 57.9793C126.486 57.9793 127.005 58.1867 127.471 58.6534C128.146 59.3276 128.457 60.1574 128.457 61.2983C128.457 62.5948 128.094 63.632 127.264 64.6173C126.486 65.5508 125.656 66.0175 124.567 66.1212C124.464 66.1731 124.308 66.1731 124.204 66.1731ZM69.907 70.9442C69.181 70.9442 68.6624 70.7368 68.0919 70.1663C67.3659 69.4403 67.0547 68.6105 67.0547 67.4696C67.0547 66.225 67.4696 65.2396 68.2993 64.2024C69.0772 63.269 69.907 62.8541 70.9961 62.7504C71.1516 62.7504 71.2554 62.7504 71.4109 62.7504C72.1888 62.7504 72.7074 62.9578 73.1742 63.4245C73.8484 64.0987 74.1595 64.9285 74.1595 66.0694C74.1595 67.3659 73.7965 68.4031 72.9667 69.3884C72.1888 70.3219 71.3591 70.7886 70.27 70.8923C70.1144 70.9442 70.0107 70.9442 69.907 70.9442ZM15.2986 54.5565C14.7282 54.5565 14.1577 54.6084 13.5873 54.6602L4.92668 55.4381L2.07439 55.5937L1.14092 55.6974V56.6309V88.9914V90.1323L2.28183 90.0286L5.65272 89.7175L14.417 88.9396C19.4993 88.4728 23.1813 86.7614 25.4113 83.7017C27.382 81.0569 27.7969 78.049 27.7969 75.9227C27.7969 73.2779 27.019 71.0479 25.5669 69.2847C26.1892 67.8845 26.5004 66.3805 26.5004 64.6692C26.5004 59.8462 24.0629 57.3569 21.9886 56.1123C20.1216 55.127 17.8398 54.5565 15.2986 54.5565ZM289.896 74.0039L288.755 74.1077L285.384 74.4188L271.123 75.6634L268.271 75.9227L267.337 76.0265V76.9599V94.6441L262.307 79.6567L261.529 77.323L261.27 76.5451L260.44 76.5969L258.002 76.8044L251.261 77.3748L249.186 77.5304L248.512 77.5823L248.305 78.2564L247.682 80.2271L244.156 91.377C243.43 88.1617 241.822 85.3612 239.281 83.1313C236.221 80.3827 232.487 78.9825 228.235 78.9825C227.665 78.9825 227.042 79.0343 226.472 79.0862C221.649 79.5011 217.5 81.5755 214.129 85.1538C213.507 85.828 212.936 86.5022 212.418 87.2282C211.744 86.0873 210.862 85.1019 209.825 84.324C207.698 82.6645 205.002 81.8348 201.786 81.8348C201.216 81.8348 200.594 81.8866 200.023 81.9385L190.896 82.7164L188.044 82.9757L184.725 83.2868L179.85 83.7017L178.346 83.8573L177.827 83.9092L177.568 84.324L176.738 85.6205L173.367 90.8584V85.465V84.324L172.226 84.4278L168.855 84.7389L162.943 85.2575L160.091 85.5168L159.158 85.6205V86.554V89.147C159.054 89.0433 158.95 88.9914 158.847 88.8877C156.72 87.2282 154.024 86.3984 150.808 86.3984C150.238 86.3984 149.616 86.4503 149.045 86.5022L139.918 87.28L137.169 87.5393L133.798 87.8505L113.366 89.6137L110.513 89.873L109.58 89.9768V90.9102V123.271V124.412L110.721 124.308L114.092 123.997L120.004 123.478L122.856 123.219L123.789 123.115V122.182V102.268L124.1 102.216V121.871V123.011L125.241 122.908L128.612 122.597L134.524 122.078L137.377 121.819L140.696 121.508L146.608 120.989L149.46 120.73L150.393 120.626V119.692V111.862C153.816 111.395 156.668 110.254 158.847 108.439C158.95 108.335 159.106 108.231 159.21 108.128V118.759V119.9L160.35 119.796L163.721 119.485L168.7 119.07L170.204 118.915L170.722 118.863L170.982 118.448L171.811 117.151L175.234 111.862V117.307V118.448L176.375 118.344L179.746 118.033L185.554 117.514L188.407 117.255L191.726 116.944L197.638 116.425L200.49 116.166L201.423 116.062V115.129V107.298C204.846 106.831 207.698 105.69 209.877 103.875C209.928 103.823 210.032 103.771 210.084 103.72C210.966 106.209 212.418 108.387 214.492 110.202C217.604 113.003 221.338 114.455 225.59 114.455C226.161 114.455 226.731 114.455 227.301 114.403C231.658 114.04 235.443 112.38 238.555 109.476V116.892V118.033L239.696 117.929L243.067 117.618L248.408 117.151L251.261 116.892L252.194 116.788V115.855V111.706L258.106 111.187V115.129V116.27L259.247 116.166L262.618 115.855L267.96 115.388L270.812 115.129L271.745 115.025V114.092V109.943H271.953L286.214 108.698L289.067 108.439L290 108.335V107.402V95.9406V94.7997H289.844V87.5912H290V86.6577V75.1449V74.0039H289.896ZM226.109 100.815C225.383 100.815 224.864 100.608 224.294 100.038C223.568 99.3115 223.256 98.4818 223.256 97.3408C223.256 96.0962 223.671 95.1109 224.501 94.0737C225.279 93.1402 226.109 92.7253 227.198 92.6216C227.353 92.6216 227.457 92.6216 227.613 92.6216C228.391 92.6216 228.909 92.829 229.376 93.2958C230.05 93.97 230.361 94.7997 230.361 95.9406C230.361 97.2371 229.998 98.2743 229.168 99.2597C228.391 100.193 227.561 100.66 226.472 100.764C226.316 100.815 226.212 100.815 226.109 100.815ZM89.0433 91.5844L88.2654 91.6363L85.9835 91.8437L81.1087 92.2586L79.1899 92.4142L78.5676 92.466L78.3602 93.0883L77.686 94.9034L71.4628 111.032V94.2293V93.0883L70.3219 93.1921L66.951 93.5032L61.039 94.0218L58.1867 94.2811L57.2532 94.3848V95.3183V104.497L56.4235 104.549V95.5776V94.4367L55.2825 94.5404L51.9117 94.8516L45.9996 95.3702L43.1474 95.6295L42.2139 95.7332V96.6667V129.027V130.168L43.3548 130.064L46.7257 129.753L52.6377 129.235L55.49 128.975L56.4235 128.872V127.938V118.137L57.2532 118.085V127.679V128.82L58.3941 128.716L61.765 128.405L66.5361 127.99L71.5147 127.575L77.8934 127.005L79.8641 126.849L80.5383 126.797L80.7457 126.175L81.4199 124.308L82.2496 121.922L85.7761 121.611L86.3466 123.219L87.1763 125.449L87.4356 126.175L88.2135 126.123L90.5991 125.916L97.0815 125.345L101.282 124.982L102.682 124.878L102.164 123.582L100.556 119.692L90.1842 94.4886L89.3026 92.3623L89.0433 91.5844ZM31.2196 96.6148L30.0787 96.7185L26.7078 97.0297L21.833 97.4446L20.329 97.6001L19.8104 97.652L19.5511 98.0669L18.7214 99.3634L15.3505 104.601V99.2078V98.015L14.2096 98.1187L10.8387 98.4299L4.92668 98.9485L2.07439 99.1559L1.14092 99.2597V100.193V132.554V133.695L2.28183 133.591L5.65272 133.28L10.6313 132.865L12.1352 132.709L12.6538 132.657L12.9131 132.242L13.7428 130.946L17.1656 125.656V131.205V132.346L18.3065 132.242L21.6774 131.931L27.4857 131.413L30.338 131.153L31.2715 131.05V130.168V97.8076V96.6148H31.2196Z" fill="black"/>
<path d="M18.877 42.525C15.0912 42.8362 11.824 41.799 9.17919 39.4134C6.53434 37.0279 5.18598 33.9163 5.18598 30.1305C5.18598 26.3448 6.53434 23.0257 9.17919 20.1735C11.824 17.3212 15.0912 15.7135 18.877 15.4024C22.7146 15.0912 25.9818 16.0765 28.5748 18.4621C31.2196 20.8476 32.5161 23.9074 32.5161 27.7968C32.5161 31.6345 31.2196 34.9535 28.5748 37.8058C25.9818 40.6062 22.7146 42.2139 18.877 42.525ZM18.877 20.7439C16.6989 20.9514 14.8838 21.8848 13.3798 23.6481C11.9278 25.4113 11.2017 27.382 11.2017 29.5601C11.2017 31.7382 11.9278 33.6051 13.4317 35.1609C14.8838 36.6649 16.7507 37.3391 18.9288 37.1316C21.1588 36.9242 23.0258 35.9388 24.4778 34.1237C25.878 32.4124 26.6041 30.4417 26.6041 28.1599C26.6041 25.9299 25.878 24.0629 24.426 22.6109C22.922 21.1588 21.1069 20.5365 18.877 20.7439Z" fill="#22B4AF"/>
<path d="M50.7189 18.3584L45.5329 18.8251V39.7246L39.6209 40.2432V19.3437L34.4868 19.8105V14.5208L50.7707 13.1205V18.3584H50.7189Z" fill="#22B4AF"/>
<path d="M75.7672 42.1102L70.4256 42.5769V37.4946L56.216 38.7393V43.8215L50.8745 44.2883V33.9682L53.1563 33.7607L59.9499 12.2908L66.6917 11.7203L73.4853 31.9975L75.819 31.7901V42.1102H75.7672ZM67.5215 32.5161L63.3208 19.0326L59.1202 33.2421L67.5215 32.5161Z" fill="#22B4AF"/>
<path d="M96.9778 27.0708C96.9778 29.8194 96.0443 31.9456 94.1255 33.5533C92.4142 34.9535 90.1842 35.7833 87.3319 36.0426L79.7604 36.7167V10.5794L85.6724 10.0608V19.8104C89.0951 19.4993 91.6881 19.8104 93.5032 20.6921C95.785 21.7811 96.9778 23.9074 96.9778 27.0708ZM91.2732 27.5375C91.2732 26.2411 90.8584 25.4113 90.0805 24.9446C89.4581 24.5815 88.4728 24.4778 87.0726 24.5815L85.6724 24.6853V30.9084L87.0726 30.8047C89.873 30.5973 91.2732 29.5082 91.2732 27.5375ZM104.912 34.4868L99.0004 35.0054V8.86802L104.912 8.34943V34.4868Z" fill="#22B4AF"/>
<path d="M133.902 31.9456L127.16 32.5161L121.3 23.4925L115.595 33.5014L108.957 34.0719L117.981 19.4993L109.787 7.83081L116.581 7.26035L121.508 14.9356L126.279 6.4306L133.072 5.86014L124.982 19.0844L133.902 31.9456Z" fill="#22B4AF"/>
<path d="M24.6334 77.0637C24.6334 82.4052 21.4181 85.3612 15.0393 85.9317L6.27504 86.7096V60.5722L14.9356 59.7944C17.373 59.5869 19.3437 59.8981 20.7958 60.8315C22.5072 61.8687 23.3369 63.5283 23.3369 65.8619C23.3369 68.2994 22.3516 70.1663 20.329 71.4109C23.1813 72.0851 24.6334 74.0039 24.6334 77.0637ZM17.5805 67.2103C17.5805 65.6027 16.5433 64.9285 14.5207 65.084L12.0315 65.2915V70.4256L14.2614 70.2182C16.4396 70.0626 17.5805 69.0773 17.5805 67.2103ZM12.0315 75.0411V80.9013L15.1949 80.642C17.6323 80.4346 18.877 79.3455 18.877 77.3748C18.877 75.4041 17.6842 74.5225 15.2986 74.73L12.0315 75.0411Z" fill="#22B4AF"/>
<path d="M56.5272 61.402L48.6964 62.0762V82.9757L42.7843 83.4943V57.3569L56.5272 56.1642V61.402Z" fill="#22B4AF"/>
<path d="M71.6702 81.4717C67.8845 81.7829 64.6173 80.7457 61.9725 78.3601C59.3276 75.9746 57.9793 72.863 57.9793 69.0772C57.9793 65.2915 59.3276 61.9724 61.9725 59.1201C64.6173 56.2679 67.8845 54.6602 71.6702 54.349C75.5079 54.0379 78.775 55.0232 81.368 57.4088C84.0129 59.7943 85.3094 62.854 85.3094 66.7435C85.3094 70.5812 84.0129 73.9002 81.368 76.7525C78.7232 79.5529 75.5079 81.1087 71.6702 81.4717ZM71.6702 59.6906C69.4921 59.898 67.677 60.8315 66.1731 62.5947C64.721 64.358 63.9431 66.3287 63.9431 68.5068C63.9431 70.6849 64.6692 72.5518 66.1731 74.1076C67.6252 75.6116 69.4921 76.2857 71.6702 76.0783C73.9002 75.8709 75.7672 74.8855 77.2192 73.0704C78.6195 71.3591 79.3455 69.3884 79.3455 67.1065C79.3455 64.8766 78.6195 63.0096 77.1674 61.5576C75.7153 60.1055 73.9002 59.4832 71.6702 59.6906Z" fill="#22B4AF"/>
<path d="M96.2518 78.8269L90.3398 79.3455V53.2082L99.4671 52.4303C102.423 52.171 104.705 52.6896 106.416 53.9861C108.231 55.3344 109.113 57.5125 109.113 60.4167C109.113 63.3208 108.18 65.6027 106.261 67.2622C104.549 68.7142 102.164 69.5959 99.1041 69.8552L96.3036 70.1145V78.8269H96.2518ZM96.2518 57.9274V64.7729L98.8966 64.5655C101.853 64.3062 103.305 63.0097 103.305 60.7278C103.305 58.4979 101.853 57.4607 98.8966 57.72L96.2518 57.9274Z" fill="#22B4AF"/>
<path d="M125.967 76.7006C122.182 77.0118 118.915 75.9746 116.27 73.589C113.625 71.2035 112.276 68.0919 112.276 64.3061C112.276 60.5204 113.625 57.2013 116.27 54.3491C118.915 51.4968 122.182 49.8891 125.967 49.578C129.805 49.2668 133.072 50.2521 135.665 52.6377C138.31 55.0232 139.607 58.083 139.607 61.9724C139.607 65.8101 138.31 69.1291 135.665 71.9814C133.02 74.7818 129.805 76.3895 125.967 76.7006ZM125.967 54.9195C123.789 55.127 121.974 56.0604 120.47 57.8237C119.018 59.5869 118.24 61.5576 118.24 63.7357C118.24 65.9138 118.966 67.7807 120.47 69.3365C121.922 70.8405 123.789 71.5147 125.967 71.3072C128.197 71.0998 130.064 70.1144 131.516 68.2993C132.917 66.588 133.643 64.6173 133.643 62.3355C133.643 60.1055 132.917 58.2385 131.465 56.7865C130.013 55.3863 128.197 54.7639 125.967 54.9195Z" fill="#22B4AF"/>
<path d="M166.626 77.7378L161.284 78.2046V73.1223L147.074 74.367V79.4492L141.733 79.916V69.5959L144.015 69.3884L150.808 47.9185L157.55 47.348L164.344 67.6252L166.677 67.4177V77.7378H166.626ZM158.38 68.0919L154.179 54.6084L149.979 68.8698L158.38 68.0919Z" fill="#22B4AF"/>
<path d="M184.88 71.0479L170.619 72.2925V46.1552L184.88 44.9106V50.1484L176.531 50.8744V55.8011L184.725 55.0751V60.3129L176.531 61.039V66.3805L184.88 65.6545V71.0479Z" fill="#22B4AF"/>
<path d="M28.108 128.353L22.2997 128.872V112.743L11.2536 129.857L6.27504 130.272V104.134L12.1871 103.616V119.641L23.2332 102.682L28.108 102.268V128.353Z" fill="#22B4AF"/>
<path d="M68.2994 124.827L62.3873 125.345V114.61L53.26 115.388V126.123L47.348 126.642V100.504L53.26 99.9857V110.098L62.3873 109.32V99.2078L68.2994 98.6892V124.827Z" fill="#22B4AF"/>
<path d="M97.8076 122.234L91.3251 122.804L89.6656 118.24L80.279 119.07L78.5157 123.945L72.137 124.515L82.5608 97.4446L87.4356 97.0297L97.8076 122.234ZM88.0061 113.521L85.0501 104.394L81.9903 114.04L88.0061 113.521Z" fill="#22B4AF"/>
<path d="M135.095 118.966L129.183 119.485V98.5855L120.574 99.3634V120.263L114.662 120.781V94.6441L135.095 92.8809V118.966Z" fill="#22B4AF"/>
<path d="M147.126 117.929L141.214 118.448V92.3105L150.342 91.5326C153.298 91.2733 155.579 91.7919 157.291 93.0884C159.106 94.4367 159.987 96.6148 159.987 99.519C159.987 102.423 159.054 104.705 157.135 106.364C155.424 107.817 153.038 108.698 149.979 108.957L147.178 109.217V117.929H147.126ZM147.126 97.0297V103.875L149.771 103.668C152.727 103.408 154.179 102.112 154.179 99.8301C154.179 97.6002 152.727 96.563 149.771 96.8223L147.126 97.0297Z" fill="#22B4AF"/>
<path d="M186.073 114.506L180.265 115.025V98.8967L169.219 116.01L164.24 116.425V90.2879L170.152 89.7693V105.794L181.198 88.8359L186.073 88.421V114.506Z" fill="#22B4AF"/>
<path d="M198.156 113.469L192.244 113.988V87.8505L201.372 87.0726C204.328 86.8133 206.609 87.3319 208.321 88.6284C210.136 89.9767 211.018 92.1548 211.018 95.059C211.018 97.9631 210.084 100.245 208.165 101.904C206.454 103.357 204.068 104.238 201.009 104.497L198.208 104.757V113.469H198.156ZM198.156 92.5697V99.4152L200.801 99.2078C203.757 98.9485 205.209 97.652 205.209 95.3701C205.209 93.1402 203.757 92.103 200.801 92.3623L198.156 92.5697Z" fill="#22B4AF"/>
<path d="M227.872 111.343C224.086 111.654 220.819 110.617 218.174 108.231C215.529 105.846 214.181 102.734 214.181 98.9485C214.181 95.1628 215.529 91.8437 218.174 88.9914C220.819 86.1392 224.086 84.5315 227.872 84.2203C231.71 83.9092 234.977 84.8945 237.57 87.2801C240.215 89.6656 241.511 92.7253 241.511 96.6148C241.511 100.452 240.215 103.771 237.57 106.624C234.925 109.424 231.71 111.032 227.872 111.343ZM227.872 89.5619C225.694 89.7693 223.879 90.7028 222.375 92.466C220.923 94.2293 220.145 96.2 220.145 98.3781C220.145 100.556 220.871 102.423 222.375 103.979C223.827 105.483 225.694 106.157 227.872 105.95C230.102 105.742 231.969 104.757 233.421 102.942C234.821 101.23 235.547 99.2597 235.547 96.9778C235.547 94.7479 234.821 92.8809 233.369 91.4289C231.917 90.0286 230.102 89.4063 227.872 89.5619Z" fill="#22B4AF"/>
<path d="M268.53 112.38L263.189 112.847V107.765L248.979 109.009V114.092L243.637 114.558V104.186L245.919 103.979L252.713 82.509L259.455 81.9385L266.248 102.216L268.582 102.008V112.38H268.53ZM260.284 102.734L256.084 89.2507L251.883 103.512L260.284 102.734Z" fill="#22B4AF"/>
<path d="M286.785 105.69L272.523 106.935V80.7976L286.785 79.5529V84.7908L278.435 85.5168V90.4435L286.629 89.7175V94.9553L278.435 95.6813V101.023L286.785 100.297V105.69Z" fill="#22B4AF"/>
<path d="M17.8398 41.4878C14.054 41.799 10.7868 40.7618 8.14199 38.3762C5.49714 35.9907 4.14878 32.8791 4.14878 29.0933C4.14878 25.3076 5.49714 21.9885 8.14199 19.1363C10.7868 16.284 14.054 14.6763 17.8398 14.3652C21.6774 14.054 24.9446 15.0393 27.5375 17.4249C30.1824 19.8104 31.4789 22.8702 31.4789 26.7596C31.4789 30.5973 30.1824 33.9163 27.5375 36.7686C24.9446 39.569 21.6774 41.1767 17.8398 41.4878ZM17.8398 19.7067C15.6617 19.9142 13.8466 20.8476 12.3426 22.6109C10.8906 24.3741 10.1645 26.3448 10.1645 28.5229C10.1645 30.701 10.8906 32.5679 12.3945 34.1237C13.8466 35.6277 15.7135 36.3018 17.8916 36.0944C20.1216 35.887 21.9886 34.9016 23.4406 33.0865C24.8408 31.3752 25.5669 29.4045 25.5669 27.1227C25.5669 24.8927 24.8408 23.0257 23.3888 21.5737C21.8848 20.1216 20.0697 19.4993 17.8398 19.7067Z" fill="black"/>
<path d="M49.6817 17.3212L44.4957 17.7879V38.6874L38.5837 39.206V18.3065L33.4496 18.7733V13.4836L49.7335 12.0833V17.3212H49.6817Z" fill="black"/>
<path d="M74.73 41.073L69.3884 41.5397V36.4575L55.1788 37.7021V42.7844L49.8373 43.2511V32.931L52.1191 32.7236L58.9127 11.2536L65.6545 10.6832L72.4481 30.9603L74.7818 30.7529V41.073H74.73ZM66.4843 31.4789L62.2836 17.9954L58.083 32.205L66.4843 31.4789Z" fill="black"/>
<path d="M95.9406 26.0336C95.9406 28.7822 95.0072 30.9085 93.0883 32.5161C91.377 33.9163 89.147 34.7461 86.2947 35.0054L78.7232 35.6796V9.54223L84.6352 9.02363V18.7733C88.0579 18.4621 90.6509 18.7733 92.466 19.6549C94.7479 20.7439 95.9406 22.8702 95.9406 26.0336ZM90.236 26.5004C90.236 25.2039 89.8212 24.3741 89.0433 23.9074C88.421 23.5444 87.4356 23.4407 86.0354 23.5444L84.6352 23.6481V29.8713L86.0354 29.7675C88.8358 29.5601 90.236 28.4711 90.236 26.5004ZM103.875 33.4496L97.9632 33.9682V7.83085L103.875 7.31226V33.4496Z" fill="black"/>
<path d="M132.865 30.9084L126.123 31.4789L120.263 22.4553L114.558 32.4642L107.92 33.0347L116.944 18.4621L108.75 6.79361L115.544 6.22315L120.47 13.8984L125.241 5.39339L132.035 4.82294L123.945 18.0472L132.865 30.9084Z" fill="black"/>
<path d="M23.5962 76.0265C23.5962 81.368 20.3809 84.324 14.0021 84.8945L5.23784 85.6724V59.535L13.8984 58.7572C16.3358 58.5497 18.3065 58.8609 19.7586 59.7943C21.47 60.8315 22.2997 62.4911 22.2997 64.8247C22.2997 67.2622 21.3144 69.1291 19.2918 70.3737C22.1441 71.0479 23.5962 72.9667 23.5962 76.0265ZM16.5433 66.1731C16.5433 64.5654 15.5061 63.8913 13.4835 64.0468L10.9943 64.2543V69.3884L13.2242 69.181C15.4024 69.0254 16.5433 68.0401 16.5433 66.1731ZM10.9943 74.0039V79.8641L14.1577 79.6048C16.5951 79.3974 17.8398 78.3083 17.8398 76.3376C17.8398 74.3669 16.647 73.4853 14.2614 73.6928L10.9943 74.0039Z" fill="black"/>
<path d="M55.49 60.3648L47.6592 61.039V81.9385L41.7471 82.4571V56.3197L55.49 55.127V60.3648Z" fill="black"/>
<path d="M70.633 80.4345C66.8473 80.7457 63.5801 79.7085 60.9353 77.3229C58.2904 74.9374 56.9421 71.8258 56.9421 68.04C56.9421 64.2543 58.2904 60.9352 60.9353 58.0829C63.5801 55.2307 66.8473 53.623 70.633 53.3118C74.4707 53.0007 77.7378 53.986 80.3308 56.3716C82.9757 58.7571 84.2722 61.8168 84.2722 65.7063C84.2722 69.544 82.9757 72.863 80.3308 75.7153C77.686 78.5157 74.4707 80.0715 70.633 80.4345ZM70.633 58.6534C68.4549 58.8608 66.6398 59.7943 65.1359 61.5575C63.6838 63.3208 62.9059 65.2915 62.9059 67.4696C62.9059 69.6477 63.632 71.5146 65.1359 73.0704C66.588 74.5744 68.4549 75.2485 70.633 75.0411C72.863 74.8337 74.73 73.8483 76.182 72.0332C77.5823 70.3219 78.3083 68.3512 78.3083 66.0694C78.3083 63.8394 77.5823 61.9724 76.1302 60.5204C74.6781 59.0683 72.863 58.446 70.633 58.6534Z" fill="black"/>
<path d="M95.2146 77.7897L89.3026 78.3083V52.171L98.4299 51.3931C101.386 51.1338 103.668 51.6524 105.379 52.9489C107.194 54.2972 108.076 56.4753 108.076 59.3795C108.076 62.2836 107.142 64.5655 105.224 66.225C103.512 67.677 101.127 68.5587 98.0669 68.818L95.2665 69.0773V77.7897H95.2146ZM95.2146 56.8902V63.7357L97.8594 63.5283C100.815 63.269 102.268 61.9725 102.268 59.6906C102.268 57.4607 100.815 56.4235 97.8594 56.6828L95.2146 56.8902Z" fill="black"/>
<path d="M124.93 75.6634C121.144 75.9746 117.877 74.9374 115.232 72.5518C112.588 70.1663 111.239 67.0547 111.239 63.2689C111.239 59.4832 112.588 56.1641 115.232 53.3119C117.877 50.4596 121.144 48.8519 124.93 48.5408C128.768 48.2296 132.035 49.2149 134.628 51.6005C137.273 53.986 138.569 57.0458 138.569 60.9352C138.569 64.7729 137.273 68.0919 134.628 70.9442C131.983 73.7446 128.768 75.3523 124.93 75.6634ZM124.93 53.8823C122.752 54.0898 120.937 55.0232 119.433 56.7865C117.981 58.5497 117.203 60.5204 117.203 62.6985C117.203 64.8766 117.929 66.7435 119.433 68.2993C120.885 69.8033 122.752 70.4774 124.93 70.27C127.16 70.0626 129.027 69.0772 130.479 67.2621C131.879 65.5508 132.606 63.5801 132.606 61.2983C132.606 59.0683 131.879 57.2013 130.427 55.7493C128.975 54.3491 127.16 53.7267 124.93 53.8823Z" fill="black"/>
<path d="M165.588 76.7006L160.247 77.1674V72.0851L146.037 73.3298V78.412L140.696 78.8788V68.5587L142.977 68.3512L149.771 46.8813L156.513 46.3108L163.307 66.588L165.64 66.3805V76.7006H165.588ZM157.343 67.0547L153.142 53.5712L148.941 67.8326L157.343 67.0547Z" fill="black"/>
<path d="M183.843 70.0107L169.582 71.2553V45.118L183.843 43.8734V49.1112L175.494 49.8372V54.7639L183.687 54.0379V59.2757L175.494 60.0018V65.3433L183.843 64.6173V70.0107Z" fill="black"/>
<path d="M27.0708 127.316L21.2625 127.834V111.706L10.2164 128.82L5.23784 129.235V103.097L11.1499 102.579V118.603L22.196 101.645L27.0708 101.23V127.316Z" fill="black"/>
<path d="M67.2622 123.789L61.3501 124.308V113.573L52.2228 114.351V125.086L46.3108 125.604V99.4671L52.2228 98.9485V109.061L61.3501 108.283V98.1706L67.2622 97.652V123.789Z" fill="black"/>
<path d="M96.7704 121.196L90.2879 121.767L88.6284 117.203L79.2418 118.033L77.4785 122.908L71.0998 123.478L81.5236 96.4074L86.3984 95.9925L96.7704 121.196ZM86.9689 112.484L84.0129 103.357L80.9532 113.002L86.9689 112.484Z" fill="black"/>
<path d="M134.058 117.929L128.146 118.448V97.5483L119.537 98.3262V119.226L113.625 119.744V93.6069L134.058 91.8437V117.929Z" fill="black"/>
<path d="M146.089 116.892L140.177 117.411V91.2733L149.304 90.4954C152.26 90.2361 154.542 90.7547 156.254 92.0512C158.069 93.3995 158.95 95.5776 158.95 98.4818C158.95 101.386 158.017 103.668 156.098 105.327C154.387 106.779 152.001 107.661 148.941 107.92L146.141 108.18V116.892H146.089ZM146.089 95.9925V102.838L148.734 102.631C151.69 102.371 153.142 101.075 153.142 98.7929C153.142 96.563 151.69 95.5258 148.734 95.7851L146.089 95.9925Z" fill="black"/>
<path d="M185.036 113.469L179.227 113.988V97.8594L168.181 114.973L163.203 115.388V89.2507L169.115 88.7321V104.757L180.161 87.7986L185.036 87.3838V113.469Z" fill="black"/>
<path d="M197.119 112.432L191.207 112.951V86.8133L200.334 86.0354C203.29 85.7761 205.572 86.2947 207.284 87.5912C209.099 88.9396 209.98 91.1177 209.98 94.0218C209.98 96.926 209.047 99.2078 207.128 100.867C205.417 102.319 203.031 103.201 199.971 103.46L197.171 103.72V112.432H197.119ZM197.119 91.5325V98.378L199.764 98.1706C202.72 97.9113 204.172 96.6148 204.172 94.333C204.172 92.103 202.72 91.0658 199.764 91.3251L197.119 91.5325Z" fill="black"/>
<path d="M226.835 110.306C223.049 110.617 219.782 109.58 217.137 107.194C214.492 104.809 213.144 101.697 213.144 97.9113C213.144 94.1256 214.492 90.8065 217.137 87.9543C219.782 85.102 223.049 83.4943 226.835 83.1831C230.672 82.872 233.94 83.8573 236.533 86.2429C239.177 88.6284 240.474 91.6882 240.474 95.5776C240.474 99.4153 239.177 102.734 236.533 105.587C233.888 108.387 230.672 109.995 226.835 110.306ZM226.835 88.5247C224.657 88.7321 222.842 89.6656 221.338 91.4289C219.886 93.1921 219.108 95.1628 219.108 97.3409C219.108 99.519 219.834 101.386 221.338 102.942C222.79 104.446 224.657 105.12 226.835 104.912C229.065 104.705 230.932 103.72 232.384 101.905C233.784 100.193 234.51 98.2225 234.51 95.9407C234.51 93.7107 233.784 91.8437 232.332 90.3917C230.88 88.9915 229.065 88.3691 226.835 88.5247Z" fill="black"/>
<path d="M267.493 111.343L262.151 111.81V106.727L247.942 107.972V113.054L242.6 113.521V103.149L244.882 102.942L251.676 81.4718L258.417 80.9013L265.211 101.178L267.545 100.971V111.343H267.493ZM259.247 101.697L255.046 88.2135L250.846 102.475L259.247 101.697Z" fill="black"/>
<path d="M285.747 104.653L271.486 105.898V79.7604L285.747 78.5157V83.7536L277.398 84.4796V89.4063L285.592 88.6803V93.9181L277.398 94.6441V99.9857L285.747 99.2597V104.653Z" fill="black"/>
<path d="M239 180.559L1 201.363V153.197L239 132.392V180.559Z" fill="#E84C0A"/>
<path d="M38.9649 174.646C38.9649 177.723 37.953 180.354 35.8887 182.539C33.8244 184.765 31.2744 185.98 28.1982 186.263C26.0935 186.465 24.1506 186.02 22.4506 184.968C20.7506 183.915 19.4554 182.458 18.6458 180.556L23.8268 180.111C24.9601 181.568 26.4577 182.215 28.3601 182.054C29.7768 181.932 30.9911 181.406 32.003 180.475C33.0554 179.544 33.703 178.411 34.0268 176.994L26.2149 177.682V173.877L34.0673 173.189C33.7839 171.854 33.0958 170.842 32.0435 170.113C30.9911 169.384 29.7768 169.101 28.3601 169.223C26.4173 169.384 24.8792 170.315 23.7863 172.015L18.6054 172.461C19.4149 170.315 20.6696 168.615 22.4101 167.28C24.1506 165.984 26.1339 165.215 28.3601 165.013C31.3554 164.77 33.8649 165.539 35.9292 167.361C37.953 169.263 38.9649 171.651 38.9649 174.646Z" fill="black"/>
<path d="M49.2863 184.037L45.0363 184.401V173.027L41.3934 173.351V169.992L52.8887 168.98V172.339L49.2458 172.663V184.037H49.2863Z" fill="black"/>
<path d="M63.1291 167.644C65.3958 167.442 67.2982 168.008 68.8363 169.344C70.3339 170.68 71.103 172.461 71.103 174.727C71.103 176.994 70.3339 178.937 68.8363 180.515C67.3387 182.134 65.4363 183.025 63.1291 183.227C60.8625 183.43 59.0006 182.863 57.4625 181.487C55.9244 180.151 55.1958 178.33 55.1958 176.103C55.1958 173.837 55.9649 171.934 57.4625 170.356C59.0006 168.737 60.903 167.846 63.1291 167.644ZM67.0149 175.132C67.0149 173.958 66.6506 173.027 65.9625 172.299C65.2339 171.57 64.3434 171.287 63.1696 171.368C62.0363 171.449 61.1053 171.934 60.4172 172.784C59.6887 173.634 59.3649 174.646 59.3649 175.78C59.3649 176.913 59.7291 177.844 60.4577 178.532C61.1863 179.261 62.0768 179.544 63.2101 179.463C64.3434 179.382 65.2744 178.896 66.0029 178.087C66.6506 177.237 67.0149 176.265 67.0149 175.132Z" fill="black"/>
<path d="M91.4625 180.354L87.2125 180.718V169.304L83.5696 169.627V166.308L95.0649 165.296V168.656L91.422 168.98V180.354H91.4625Z" fill="black"/>
<path d="M110.648 174.403C110.648 177.237 108.584 178.815 104.496 179.18L98.1815 179.746V165.013L104.617 164.446C108.139 164.123 109.92 165.296 109.92 167.887C109.92 169.223 109.312 170.234 108.098 171.003V171.044C109.798 171.611 110.648 172.744 110.648 174.403ZM105.629 168.696C105.629 167.806 105.103 167.401 104.051 167.482L102.31 167.644V170.518L103.929 170.396C105.062 170.234 105.629 169.708 105.629 168.696ZM106.115 174.565C106.115 173.432 105.427 172.946 104.091 173.068L102.31 173.23V176.306L104.334 176.144C105.548 176.023 106.115 175.496 106.115 174.565Z" fill="black"/>
<path d="M121.496 162.544C123.762 162.342 125.665 162.908 127.203 164.244C128.701 165.58 129.47 167.361 129.47 169.627C129.47 171.894 128.701 173.837 127.203 175.415C125.705 177.034 123.803 177.925 121.496 178.127C119.229 178.33 117.367 177.763 115.829 176.387C114.291 175.051 113.562 173.23 113.562 171.003C113.562 168.737 114.332 166.834 115.829 165.256C117.367 163.637 119.27 162.706 121.496 162.544ZM125.382 169.992C125.382 168.818 125.017 167.887 124.329 167.158C123.601 166.43 122.71 166.146 121.536 166.227C120.403 166.308 119.472 166.794 118.784 167.644C118.055 168.494 117.732 169.506 117.732 170.639C117.732 171.773 118.096 172.703 118.824 173.392C119.553 174.12 120.443 174.403 121.577 174.323C122.71 174.242 123.641 173.756 124.37 172.946C125.017 172.137 125.382 171.165 125.382 169.992Z" fill="black"/>
<path d="M139.913 160.884C141.653 160.723 143.191 161.087 144.486 161.896C145.782 162.746 146.672 163.961 147.198 165.58C147.482 166.47 147.643 167.523 147.643 168.777C147.643 168.899 147.643 169.101 147.603 169.304L136.229 170.315C136.593 172.38 137.848 173.311 140.074 173.108C141.613 172.987 142.624 172.339 143.11 171.206L147.401 170.842C146.793 172.461 145.822 173.756 144.527 174.808C143.232 175.82 141.734 176.427 140.074 176.589C137.808 176.792 135.905 176.225 134.489 174.889C133.032 173.554 132.303 171.732 132.303 169.465C132.303 167.32 133.032 165.418 134.529 163.758C135.946 162.018 137.767 161.087 139.913 160.884ZM138.82 159.184L135.055 159.508V155.825L138.82 155.501V159.184ZM143.596 166.834C143.11 164.973 141.896 164.163 139.953 164.325C138.01 164.487 136.796 165.539 136.27 167.482L143.596 166.834ZM144.851 158.658L141.046 158.982V155.299L144.851 154.975V158.658Z" fill="black"/>
<path d="M174.398 173.068L170.229 173.432L167.193 164.042L164.117 173.999L160.029 174.363L165.129 159.184L169.258 158.82L174.398 173.068Z" fill="black"/>
<path d="M184.193 156.999C185.934 156.837 187.472 157.201 188.767 158.011C190.062 158.861 190.953 160.075 191.479 161.694C191.762 162.584 191.924 163.637 191.924 164.892C191.924 165.013 191.924 165.215 191.884 165.418L180.51 166.43C180.874 168.494 182.129 169.425 184.355 169.222C185.893 169.101 186.905 168.453 187.391 167.32L191.682 166.956C191.074 168.575 190.103 169.87 188.808 170.923C187.512 171.934 186.015 172.542 184.355 172.703C182.089 172.906 180.186 172.339 178.77 171.003C177.312 169.668 176.584 167.846 176.584 165.58C176.584 163.434 177.312 161.532 178.81 159.873C180.227 158.132 182.048 157.201 184.193 156.999ZM187.917 162.949C187.432 161.087 186.217 160.277 184.274 160.439C182.332 160.601 181.117 161.653 180.591 163.596L187.917 162.949Z" fill="black"/>
<path d="M202.084 170.68L197.834 171.044V159.63L194.191 159.953V156.594L205.686 155.582V158.942L202.043 159.265V170.68H202.084Z" fill="black"/>
<path d="M215.967 154.246C218.234 154.044 220.136 154.611 221.674 155.946C223.172 157.282 223.941 159.063 223.941 161.33C223.941 163.596 223.172 165.539 221.674 167.118C220.177 168.737 218.274 169.627 215.967 169.83C213.701 170.032 211.839 169.465 210.301 168.089C208.762 166.754 208.034 164.932 208.034 162.706C208.034 160.439 208.803 158.537 210.301 156.958C211.798 155.339 213.701 154.449 215.967 154.246ZM219.812 161.734C219.812 160.561 219.448 159.63 218.76 158.901C218.031 158.173 217.141 157.889 215.967 157.97C214.834 158.051 213.903 158.537 213.215 159.387C212.486 160.237 212.162 161.249 212.162 162.382C212.162 163.515 212.527 164.446 213.255 165.134C213.984 165.863 214.874 166.146 216.008 166.065C217.141 165.984 218.072 165.499 218.801 164.689C219.448 163.88 219.812 162.908 219.812 161.734Z" fill="black"/>
<path d="M37.6714 172.706C37.6714 175.782 36.6595 178.413 34.5952 180.599C32.5309 182.825 29.9809 184.039 26.9048 184.323C24.8 184.525 22.8571 184.08 21.1571 183.028C19.4571 181.975 18.1619 180.518 17.3524 178.616L22.5333 178.17C23.6667 179.628 25.1643 180.275 27.0667 180.113C28.4833 179.992 29.6976 179.466 30.7095 178.535C31.7619 177.604 32.4095 176.47 32.7333 175.054L24.9214 175.742V171.937L32.7738 171.249C32.4905 169.913 31.8024 168.901 30.75 168.173C29.6976 167.444 28.4833 167.161 27.0667 167.282C25.1238 167.444 23.5857 168.375 22.4928 170.075L17.3119 170.52C18.1214 168.375 19.3762 166.675 21.1167 165.339C22.8571 164.044 24.8405 163.275 27.0667 163.073C30.0619 162.83 32.5714 163.599 34.6357 165.42C36.6595 167.323 37.6714 169.711 37.6714 172.706Z" fill="white"/>
<path d="M47.9928 182.097L43.7428 182.461V171.087L40.1 171.411V168.051L51.5952 167.04V170.399L47.9524 170.723V182.097H47.9928Z" fill="white"/>
<path d="M61.8357 165.704C64.1024 165.501 66.0047 166.068 67.5428 167.404C69.0405 168.739 69.8095 170.52 69.8095 172.787C69.8095 175.054 69.0405 176.997 67.5428 178.575C66.0452 180.194 64.1428 181.085 61.8357 181.287C59.569 181.489 57.7071 180.923 56.169 179.547C54.6309 178.211 53.9024 176.389 53.9024 174.163C53.9024 171.897 54.6714 169.994 56.169 168.416C57.7071 166.797 59.6095 165.906 61.8357 165.704ZM65.7214 173.192C65.7214 172.018 65.3571 171.087 64.669 170.359C63.9405 169.63 63.05 169.347 61.8762 169.428C60.7428 169.509 59.8119 169.994 59.1238 170.844C58.3952 171.694 58.0714 172.706 58.0714 173.839C58.0714 174.973 58.4357 175.904 59.1643 176.592C59.8928 177.32 60.7833 177.604 61.9166 177.523C63.05 177.442 63.9809 176.956 64.7095 176.147C65.3571 175.297 65.7214 174.325 65.7214 173.192Z" fill="white"/>
<path d="M90.169 178.413L85.919 178.778V167.363L82.2762 167.687V164.368L93.7714 163.356V166.716L90.1286 167.04V178.413H90.169Z" fill="white"/>
<path d="M109.355 172.463C109.355 175.297 107.29 176.875 103.202 177.239L96.8881 177.806V163.073L103.324 162.506C106.845 162.182 108.626 163.356 108.626 165.947C108.626 167.282 108.019 168.294 106.805 169.063V169.104C108.505 169.67 109.355 170.804 109.355 172.463ZM104.336 166.756C104.336 165.866 103.81 165.461 102.757 165.542L101.017 165.704V168.578L102.636 168.456C103.769 168.294 104.336 167.768 104.336 166.756ZM104.821 172.625C104.821 171.492 104.133 171.006 102.798 171.128L101.017 171.289V174.366L103.04 174.204C104.255 174.082 104.821 173.556 104.821 172.625Z" fill="white"/>
<path d="M120.202 160.604C122.469 160.401 124.371 160.968 125.91 162.304C127.407 163.639 128.176 165.42 128.176 167.687C128.176 169.954 127.407 171.897 125.91 173.475C124.412 175.094 122.51 175.985 120.202 176.187C117.936 176.389 116.074 175.823 114.536 174.447C112.998 173.111 112.269 171.289 112.269 169.063C112.269 166.797 113.038 164.894 114.536 163.316C116.074 161.697 117.976 160.766 120.202 160.604ZM124.088 168.051C124.088 166.878 123.724 165.947 123.036 165.218C122.307 164.489 121.417 164.206 120.243 164.287C119.11 164.368 118.179 164.854 117.49 165.704C116.762 166.554 116.438 167.566 116.438 168.699C116.438 169.832 116.802 170.763 117.531 171.451C118.26 172.18 119.15 172.463 120.283 172.382C121.417 172.301 122.348 171.816 123.076 171.006C123.724 170.197 124.088 169.225 124.088 168.051Z" fill="white"/>
<path d="M138.619 158.944C140.36 158.782 141.898 159.147 143.193 159.956C144.488 160.806 145.379 162.02 145.905 163.639C146.188 164.53 146.35 165.582 146.35 166.837C146.35 166.959 146.35 167.161 146.31 167.363L134.936 168.375C135.3 170.439 136.555 171.37 138.781 171.168C140.319 171.047 141.331 170.399 141.817 169.266L146.107 168.901C145.5 170.52 144.529 171.816 143.233 172.868C141.938 173.88 140.44 174.487 138.781 174.649C136.514 174.851 134.612 174.285 133.195 172.949C131.738 171.613 131.01 169.792 131.01 167.525C131.01 165.38 131.738 163.478 133.236 161.818C134.652 160.078 136.474 159.147 138.619 158.944ZM137.526 157.244L133.762 157.568V153.885L137.526 153.561V157.244ZM142.302 164.894C141.817 163.032 140.602 162.223 138.66 162.385C136.717 162.547 135.502 163.599 134.976 165.542L142.302 164.894ZM143.557 156.718L139.752 157.042V153.359L143.557 153.035V156.718Z" fill="white"/>
<path d="M173.105 171.128L168.936 171.492L165.9 162.101L162.824 172.059L158.736 172.423L163.836 157.244L167.964 156.88L173.105 171.128Z" fill="white"/>
<path d="M182.9 155.059C184.64 154.897 186.179 155.261 187.474 156.07C188.769 156.92 189.659 158.135 190.186 159.754C190.469 160.644 190.631 161.697 190.631 162.951C190.631 163.073 190.631 163.275 190.59 163.478L179.217 164.489C179.581 166.554 180.836 167.485 183.062 167.282C184.6 167.161 185.612 166.513 186.098 165.38L190.388 165.016C189.781 166.635 188.809 167.93 187.514 168.982C186.219 169.994 184.721 170.601 183.062 170.763C180.795 170.966 178.893 170.399 177.476 169.063C176.019 167.728 175.29 165.906 175.29 163.639C175.29 161.494 176.019 159.592 177.517 157.932C178.933 156.192 180.755 155.261 182.9 155.059ZM186.624 161.009C186.138 159.147 184.924 158.337 182.981 158.499C181.038 158.661 179.824 159.713 179.298 161.656L186.624 161.009Z" fill="white"/>
<path d="M200.79 168.739L196.54 169.104V157.689L192.898 158.013V154.654L204.393 153.642V157.001L200.75 157.325V168.739H200.79Z" fill="white"/>
<path d="M214.674 152.306C216.94 152.104 218.843 152.67 220.381 154.006C221.879 155.342 222.648 157.123 222.648 159.39C222.648 161.656 221.879 163.599 220.381 165.178C218.883 166.797 216.981 167.687 214.674 167.89C212.407 168.092 210.545 167.525 209.007 166.149C207.469 164.813 206.74 162.992 206.74 160.766C206.74 158.499 207.509 156.597 209.007 155.018C210.505 153.399 212.407 152.509 214.674 152.306ZM218.519 159.794C218.519 158.62 218.155 157.69 217.467 156.961C216.738 156.232 215.848 155.949 214.674 156.03C213.54 156.111 212.609 156.597 211.921 157.447C211.193 158.297 210.869 159.309 210.869 160.442C210.869 161.575 211.233 162.506 211.962 163.194C212.69 163.923 213.581 164.206 214.714 164.125C215.848 164.044 216.779 163.559 217.507 162.749C218.155 161.94 218.519 160.968 218.519 159.794Z" fill="white"/>
</svg>
